%TF.GenerationSoftware,KiCad,Pcbnew,9.0.0*%
%TF.CreationDate,2025-06-13T08:55:22+10:00*%
%TF.ProjectId,NeoNavPrecision3D,4e656f4e-6176-4507-9265-636973696f6e,rev?*%
%TF.SameCoordinates,Original*%
%TF.FileFunction,Copper,L1,Top*%
%TF.FilePolarity,Positive*%
%FSLAX46Y46*%
G04 Gerber Fmt 4.6, Leading zero omitted, Abs format (unit mm)*
G04 Created by KiCad (PCBNEW 9.0.0) date 2025-06-13 08:55:22*
%MOMM*%
%LPD*%
G01*
G04 APERTURE LIST*
G04 Aperture macros list*
%AMRoundRect*
0 Rectangle with rounded corners*
0 $1 Rounding radius*
0 $2 $3 $4 $5 $6 $7 $8 $9 X,Y pos of 4 corners*
0 Add a 4 corners polygon primitive as box body*
4,1,4,$2,$3,$4,$5,$6,$7,$8,$9,$2,$3,0*
0 Add four circle primitives for the rounded corners*
1,1,$1+$1,$2,$3*
1,1,$1+$1,$4,$5*
1,1,$1+$1,$6,$7*
1,1,$1+$1,$8,$9*
0 Add four rect primitives between the rounded corners*
20,1,$1+$1,$2,$3,$4,$5,0*
20,1,$1+$1,$4,$5,$6,$7,0*
20,1,$1+$1,$6,$7,$8,$9,0*
20,1,$1+$1,$8,$9,$2,$3,0*%
G04 Aperture macros list end*
%TA.AperFunction,SMDPad,CuDef*%
%ADD10RoundRect,0.250000X-0.337500X-0.475000X0.337500X-0.475000X0.337500X0.475000X-0.337500X0.475000X0*%
%TD*%
%TA.AperFunction,SMDPad,CuDef*%
%ADD11RoundRect,0.090000X0.360000X-0.660000X0.360000X0.660000X-0.360000X0.660000X-0.360000X-0.660000X0*%
%TD*%
%TA.AperFunction,SMDPad,CuDef*%
%ADD12R,0.800100X0.508000*%
%TD*%
%TA.AperFunction,SMDPad,CuDef*%
%ADD13RoundRect,0.250000X0.325000X0.450000X-0.325000X0.450000X-0.325000X-0.450000X0.325000X-0.450000X0*%
%TD*%
%TA.AperFunction,ViaPad*%
%ADD14C,0.600000*%
%TD*%
%TA.AperFunction,Conductor*%
%ADD15C,0.200000*%
%TD*%
%TA.AperFunction,Conductor*%
%ADD16C,0.400000*%
%TD*%
G04 APERTURE END LIST*
D10*
%TO.P,C1,1*%
%TO.N,3.3V*%
X154675000Y-58000000D03*
%TO.P,C1,2*%
%TO.N,GND*%
X156750000Y-58000000D03*
%TD*%
D11*
%TO.P,D2,1,VDD*%
%TO.N,5V*%
X143700000Y-85950000D03*
%TO.P,D2,2,DOUT*%
%TO.N,Net-(D2-DOUT)*%
X147000000Y-85950000D03*
%TO.P,D2,3,GND*%
%TO.N,GND*%
X147000000Y-81050000D03*
%TO.P,D2,4,DIN*%
%TO.N,Net-(D1-DOUT)*%
X143700000Y-81050000D03*
%TD*%
D12*
%TO.P,U4,1,SCL/INT*%
%TO.N,SCL*%
X158749050Y-68049999D03*
%TO.P,U4,2,GND*%
%TO.N,GND*%
X158749050Y-69000000D03*
%TO.P,U4,3,GND*%
X158749050Y-69950001D03*
%TO.P,U4,4,VDD*%
%TO.N,3.3V*%
X161250950Y-69950001D03*
%TO.P,U4,5,GND*%
%TO.N,GND*%
X161250950Y-69000000D03*
%TO.P,U4,6,SDA/ADDR*%
%TO.N,SDA*%
X161250950Y-68049999D03*
%TD*%
D11*
%TO.P,D3,1,VDD*%
%TO.N,5V*%
X172350000Y-85450000D03*
%TO.P,D3,2,DOUT*%
%TO.N,Net-(D3-DOUT)*%
X175650000Y-85450000D03*
%TO.P,D3,3,GND*%
%TO.N,GND*%
X175650000Y-80550000D03*
%TO.P,D3,4,DIN*%
%TO.N,Net-(D2-DOUT)*%
X172350000Y-80550000D03*
%TD*%
%TO.P,D4,1,VDD*%
%TO.N,5V*%
X172350000Y-57000000D03*
%TO.P,D4,2,DOUT*%
%TO.N,unconnected-(D4-DOUT-Pad2)*%
X175650000Y-57000000D03*
%TO.P,D4,3,GND*%
%TO.N,GND*%
X175650000Y-52100000D03*
%TO.P,D4,4,DIN*%
%TO.N,Net-(D3-DOUT)*%
X172350000Y-52100000D03*
%TD*%
%TO.P,D1,1,VDD*%
%TO.N,5V*%
X143700000Y-57500000D03*
%TO.P,D1,2,DOUT*%
%TO.N,Net-(D1-DOUT)*%
X147000000Y-57500000D03*
%TO.P,D1,3,GND*%
%TO.N,GND*%
X147000000Y-52600000D03*
%TO.P,D1,4,DIN*%
%TO.N,Net-(D1-DIN)*%
X143700000Y-52600000D03*
%TD*%
D13*
%TO.P,R5,1*%
%TO.N,LED*%
X166525000Y-55000000D03*
%TO.P,R5,2*%
%TO.N,Net-(D1-DIN)*%
X164475000Y-55000000D03*
%TD*%
D14*
%TO.N,SCL*%
X168000000Y-65500000D03*
%TO.N,3.3V*%
X152000000Y-57975000D03*
%TO.N,GND*%
X159750000Y-59500000D03*
X162750000Y-69000000D03*
X151839500Y-55150250D03*
X157500000Y-69500000D03*
%TO.N,SDA*%
X168000000Y-63000000D03*
%TO.N,LED*%
X168000000Y-52500000D03*
%TO.N,5V*%
X152000000Y-52500000D03*
%TD*%
D15*
%TO.N,SCL*%
X157750000Y-71500000D02*
X156750000Y-70500000D01*
X156750000Y-69000000D02*
X157700001Y-68049999D01*
X157700001Y-68049999D02*
X158749050Y-68049999D01*
X162000000Y-71500000D02*
X157750000Y-71500000D01*
X168000000Y-65500000D02*
X162000000Y-71500000D01*
X156750000Y-70500000D02*
X156750000Y-69000000D01*
%TO.N,3.3V*%
X152000000Y-57975000D02*
X154450000Y-57975000D01*
X160000000Y-65975000D02*
X160000000Y-68845101D01*
X161104900Y-69950001D02*
X161250950Y-69950001D01*
X152000000Y-57975000D02*
X160000000Y-65975000D01*
X160000000Y-68845101D02*
X161104900Y-69950001D01*
%TO.N,GND*%
X157500000Y-69500000D02*
X158000000Y-69000000D01*
X158000000Y-69000000D02*
X158749050Y-69000000D01*
X157500000Y-70000000D02*
X158699051Y-70000000D01*
X158699051Y-70000000D02*
X158749050Y-69950001D01*
X157500000Y-69500000D02*
X157500000Y-70000000D01*
X161250950Y-69000000D02*
X162750000Y-69000000D01*
%TO.N,SDA*%
X161300949Y-68000000D02*
X161250950Y-68049999D01*
X166564365Y-63830051D02*
X167169949Y-63830051D01*
X162344417Y-68049999D02*
X161250950Y-68049999D01*
X167169949Y-63830051D02*
X168000000Y-63000000D01*
X166564365Y-63830051D02*
X162344417Y-68049999D01*
%TO.N,LED*%
X166525000Y-53975000D02*
X168000000Y-52500000D01*
X166525000Y-55000000D02*
X166525000Y-53975000D01*
D16*
%TO.N,5V*%
X150500000Y-52500000D02*
X148000000Y-55000000D01*
X141000000Y-83250000D02*
X143700000Y-85950000D01*
X172350000Y-86350000D02*
X172350000Y-85450000D01*
X174000000Y-83800000D02*
X172350000Y-85450000D01*
X141000000Y-60200000D02*
X141000000Y-83250000D01*
X146200000Y-55000000D02*
X143700000Y-57500000D01*
X174000000Y-78885128D02*
X174000000Y-83800000D01*
X148000000Y-55000000D02*
X146200000Y-55000000D01*
X172350000Y-57000000D02*
X172350000Y-77235128D01*
X170700000Y-88000000D02*
X172350000Y-86350000D01*
X172350000Y-77235128D02*
X174000000Y-78885128D01*
X143700000Y-85950000D02*
X145750000Y-88000000D01*
X152000000Y-52500000D02*
X150500000Y-52500000D01*
X143700000Y-57500000D02*
X141000000Y-60200000D01*
X145750000Y-88000000D02*
X170700000Y-88000000D01*
D15*
%TO.N,Net-(D1-DIN)*%
X159975000Y-50500000D02*
X145800000Y-50500000D01*
X145800000Y-50500000D02*
X143700000Y-52600000D01*
X164475000Y-55000000D02*
X159975000Y-50500000D01*
%TO.N,Net-(D1-DOUT)*%
X143700000Y-81050000D02*
X142000000Y-79350000D01*
X142000000Y-61000000D02*
X145500000Y-57500000D01*
X145500000Y-57500000D02*
X147000000Y-57500000D01*
X142000000Y-79350000D02*
X142000000Y-61000000D01*
%TO.N,Net-(D2-DOUT)*%
X147050000Y-86000000D02*
X167800000Y-86000000D01*
X167800000Y-86000000D02*
X172350000Y-81450000D01*
X147000000Y-85950000D02*
X147050000Y-86000000D01*
X172350000Y-81450000D02*
X172350000Y-80550000D01*
%TO.N,Net-(D3-DOUT)*%
X176500000Y-50500000D02*
X178500000Y-52500000D01*
X178500000Y-52500000D02*
X178500000Y-82600000D01*
X172350000Y-52100000D02*
X173950000Y-50500000D01*
X173950000Y-50500000D02*
X176500000Y-50500000D01*
X178500000Y-82600000D02*
X175650000Y-85450000D01*
%TD*%
%TA.AperFunction,Conductor*%
%TO.N,GND*%
G36*
X158133542Y-68757818D02*
G01*
X158241517Y-68798090D01*
X158301127Y-68804499D01*
X158625052Y-68804498D01*
X158692089Y-68824182D01*
X158737844Y-68876986D01*
X158749050Y-68928498D01*
X158749050Y-69000000D01*
X158875050Y-69000000D01*
X158942089Y-69019685D01*
X158987844Y-69072489D01*
X158999050Y-69124000D01*
X158999050Y-69700001D01*
X159649100Y-69700001D01*
X159649100Y-69644852D01*
X159650226Y-69644852D01*
X159665210Y-69581356D01*
X159715474Y-69532825D01*
X159783996Y-69519172D01*
X159849023Y-69544733D01*
X159860664Y-69555001D01*
X160314081Y-70008418D01*
X160347566Y-70069741D01*
X160350400Y-70096098D01*
X160350400Y-70251870D01*
X160350401Y-70251877D01*
X160356808Y-70311484D01*
X160407102Y-70446329D01*
X160407106Y-70446336D01*
X160493352Y-70561545D01*
X160493355Y-70561548D01*
X160608564Y-70647794D01*
X160608571Y-70647798D01*
X160639457Y-70659318D01*
X160695391Y-70701189D01*
X160719808Y-70766654D01*
X160704956Y-70834927D01*
X160655551Y-70884332D01*
X160596124Y-70899500D01*
X159402446Y-70899500D01*
X159335407Y-70879815D01*
X159289652Y-70827011D01*
X159279708Y-70757853D01*
X159308733Y-70694297D01*
X159359113Y-70659318D01*
X159391186Y-70647355D01*
X159391193Y-70647351D01*
X159506287Y-70561191D01*
X159506290Y-70561188D01*
X159592450Y-70446094D01*
X159592454Y-70446087D01*
X159642696Y-70311380D01*
X159642698Y-70311373D01*
X159649099Y-70251845D01*
X159649100Y-70251828D01*
X159649100Y-70200001D01*
X157849000Y-70200001D01*
X157849000Y-70251845D01*
X157855401Y-70311373D01*
X157855403Y-70311380D01*
X157905645Y-70446087D01*
X157905646Y-70446089D01*
X157939537Y-70491361D01*
X157963954Y-70556825D01*
X157949103Y-70625098D01*
X157899698Y-70674504D01*
X157831425Y-70689356D01*
X157765960Y-70664940D01*
X157752589Y-70653353D01*
X157386819Y-70287583D01*
X157353334Y-70226260D01*
X157350500Y-70199902D01*
X157350500Y-69301844D01*
X157849000Y-69301844D01*
X157855401Y-69361372D01*
X157855403Y-69361383D01*
X157881618Y-69431668D01*
X157886602Y-69501359D01*
X157881618Y-69518332D01*
X157855404Y-69588617D01*
X157855401Y-69588628D01*
X157849000Y-69648156D01*
X157849000Y-69700001D01*
X158499050Y-69700001D01*
X158499050Y-69250000D01*
X157849000Y-69250000D01*
X157849000Y-69301844D01*
X157350500Y-69301844D01*
X157350500Y-69300097D01*
X157359144Y-69270656D01*
X157365668Y-69240670D01*
X157369422Y-69235654D01*
X157370185Y-69233058D01*
X157386819Y-69212416D01*
X157812916Y-68786319D01*
X157874239Y-68752834D01*
X157900597Y-68750000D01*
X158090209Y-68750000D01*
X158133542Y-68757818D01*
G37*
%TD.AperFunction*%
%TA.AperFunction,Conductor*%
G36*
X174987108Y-49500789D02*
G01*
X175372761Y-49527207D01*
X175382223Y-49528222D01*
X175764679Y-49584264D01*
X175784650Y-49587191D01*
X175793251Y-49588763D01*
X176092273Y-49654382D01*
X176153535Y-49687979D01*
X176186908Y-49749363D01*
X176181797Y-49819045D01*
X176139823Y-49874902D01*
X176074315Y-49899200D01*
X176065694Y-49899500D01*
X174036670Y-49899500D01*
X174036654Y-49899499D01*
X174029058Y-49899499D01*
X173870943Y-49899499D01*
X173794579Y-49919961D01*
X173718214Y-49940423D01*
X173718209Y-49940426D01*
X173581290Y-50019475D01*
X173581282Y-50019481D01*
X172787582Y-50813181D01*
X172726259Y-50846666D01*
X172699901Y-50849500D01*
X171951296Y-50849500D01*
X171835857Y-50864696D01*
X171835848Y-50864699D01*
X171692205Y-50924198D01*
X171692202Y-50924199D01*
X171692202Y-50924200D01*
X171568851Y-51018851D01*
X171491095Y-51120185D01*
X171474198Y-51142205D01*
X171414699Y-51285848D01*
X171414698Y-51285850D01*
X171399500Y-51401298D01*
X171399500Y-52798703D01*
X171414696Y-52914142D01*
X171414699Y-52914151D01*
X171474093Y-53057541D01*
X171474200Y-53057798D01*
X171568851Y-53181149D01*
X171692202Y-53275800D01*
X171835849Y-53335301D01*
X171951299Y-53350500D01*
X172748700Y-53350499D01*
X172748703Y-53350499D01*
X172864142Y-53335303D01*
X172864146Y-53335301D01*
X172864151Y-53335301D01*
X173007798Y-53275800D01*
X173131149Y-53181149D01*
X173225800Y-53057798D01*
X173285301Y-52914151D01*
X173300500Y-52798701D01*
X173300500Y-52798670D01*
X174700000Y-52798670D01*
X174715185Y-52914019D01*
X174715187Y-52914024D01*
X174774633Y-53057541D01*
X174774633Y-53057542D01*
X174869207Y-53180792D01*
X174992458Y-53275366D01*
X175135975Y-53334812D01*
X175135980Y-53334814D01*
X175251329Y-53350000D01*
X175400000Y-53350000D01*
X175900000Y-53350000D01*
X176048671Y-53350000D01*
X176164019Y-53334814D01*
X176164024Y-53334812D01*
X176307541Y-53275366D01*
X176307542Y-53275366D01*
X176430792Y-53180792D01*
X176525366Y-53057542D01*
X176525366Y-53057541D01*
X176584812Y-52914024D01*
X176584814Y-52914019D01*
X176600000Y-52798670D01*
X176600000Y-52350000D01*
X175900000Y-52350000D01*
X175900000Y-53350000D01*
X175400000Y-53350000D01*
X175400000Y-52350000D01*
X174700000Y-52350000D01*
X174700000Y-52798670D01*
X173300500Y-52798670D01*
X173300499Y-52050096D01*
X173320184Y-51983058D01*
X173336818Y-51962416D01*
X174162417Y-51136819D01*
X174223740Y-51103334D01*
X174250098Y-51100500D01*
X174606435Y-51100500D01*
X174673474Y-51120185D01*
X174719229Y-51172989D01*
X174729173Y-51242147D01*
X174720996Y-51271952D01*
X174715187Y-51285975D01*
X174715185Y-51285980D01*
X174700000Y-51401329D01*
X174700000Y-51850000D01*
X176600000Y-51850000D01*
X176600000Y-51748597D01*
X176619685Y-51681558D01*
X176672489Y-51635803D01*
X176741647Y-51625859D01*
X176805203Y-51654884D01*
X176811681Y-51660916D01*
X177863181Y-52712416D01*
X177896666Y-52773739D01*
X177899500Y-52800097D01*
X177899500Y-82299902D01*
X177879815Y-82366941D01*
X177863181Y-82387583D01*
X176087582Y-84163181D01*
X176026259Y-84196666D01*
X175999901Y-84199500D01*
X175251296Y-84199500D01*
X175135857Y-84214696D01*
X175135848Y-84214699D01*
X174992205Y-84274198D01*
X174868851Y-84368851D01*
X174774198Y-84492205D01*
X174714699Y-84635848D01*
X174714698Y-84635850D01*
X174699500Y-84751298D01*
X174699500Y-86148703D01*
X174714696Y-86264142D01*
X174714699Y-86264151D01*
X174774109Y-86407580D01*
X174774200Y-86407798D01*
X174868851Y-86531149D01*
X174992202Y-86625800D01*
X175135849Y-86685301D01*
X175251299Y-86700500D01*
X176048700Y-86700499D01*
X176048703Y-86700499D01*
X176164142Y-86685303D01*
X176164146Y-86685301D01*
X176164151Y-86685301D01*
X176307798Y-86625800D01*
X176431149Y-86531149D01*
X176525800Y-86407798D01*
X176585301Y-86264151D01*
X176600500Y-86148701D01*
X176600499Y-85400095D01*
X176620183Y-85333057D01*
X176636813Y-85312420D01*
X178980520Y-82968716D01*
X179059577Y-82831784D01*
X179100501Y-82679057D01*
X179100501Y-82520942D01*
X179100501Y-82513347D01*
X179100500Y-82513329D01*
X179100500Y-52671540D01*
X179105892Y-52653175D01*
X179106307Y-52634038D01*
X179115533Y-52620342D01*
X179120185Y-52604501D01*
X179134649Y-52591967D01*
X179145345Y-52576091D01*
X179160511Y-52569557D01*
X179172989Y-52558746D01*
X179191933Y-52556021D01*
X179209514Y-52548449D01*
X179225802Y-52551152D01*
X179242147Y-52548802D01*
X179259558Y-52556753D01*
X179278441Y-52559887D01*
X179290682Y-52570967D01*
X179305703Y-52577827D01*
X179316052Y-52593931D01*
X179330242Y-52606775D01*
X179342311Y-52634791D01*
X179343477Y-52636605D01*
X179344206Y-52639189D01*
X179345597Y-52644336D01*
X179346900Y-52649615D01*
X179390855Y-52846088D01*
X179391901Y-52851286D01*
X179428841Y-53057411D01*
X179429646Y-53062509D01*
X179459000Y-53277482D01*
X179459577Y-53282456D01*
X179481095Y-53507506D01*
X179481462Y-53512343D01*
X179494686Y-53747413D01*
X179494861Y-53752100D01*
X179499479Y-54003432D01*
X179499500Y-54005710D01*
X179499500Y-83978633D01*
X179499210Y-83987108D01*
X179472793Y-84372741D01*
X179471773Y-84382244D01*
X179412807Y-84784652D01*
X179411235Y-84793253D01*
X179319347Y-85211981D01*
X179317073Y-85220786D01*
X179196266Y-85626540D01*
X179193193Y-85635574D01*
X179046899Y-86016874D01*
X179042927Y-86026094D01*
X178874011Y-86378167D01*
X178869049Y-86387473D01*
X178679716Y-86708836D01*
X178673703Y-86718076D01*
X178465406Y-87009016D01*
X178458323Y-87018002D01*
X178231660Y-87279767D01*
X178223544Y-87288288D01*
X177978220Y-87522491D01*
X177969173Y-87530329D01*
X177704100Y-87738459D01*
X177694285Y-87745422D01*
X177407580Y-87928607D01*
X177397214Y-87934548D01*
X177086285Y-88093336D01*
X177075612Y-88098165D01*
X176730871Y-88234921D01*
X176722838Y-88237792D01*
X176549941Y-88292956D01*
X176544605Y-88294527D01*
X176355671Y-88345594D01*
X176350388Y-88346899D01*
X176153893Y-88390858D01*
X176148695Y-88391904D01*
X175942587Y-88428841D01*
X175937489Y-88429646D01*
X175722517Y-88459000D01*
X175717543Y-88459577D01*
X175492488Y-88481095D01*
X175487651Y-88481462D01*
X175252585Y-88494686D01*
X175247898Y-88494861D01*
X174996566Y-88499479D01*
X174994288Y-88499500D01*
X171490519Y-88499500D01*
X171423480Y-88479815D01*
X171377725Y-88427011D01*
X171367781Y-88357853D01*
X171396806Y-88294297D01*
X171402838Y-88287819D01*
X171764839Y-87925818D01*
X172894113Y-86796543D01*
X172896892Y-86792385D01*
X172970775Y-86681811D01*
X172974818Y-86672049D01*
X173013893Y-86621122D01*
X173131149Y-86531149D01*
X173225800Y-86407798D01*
X173285301Y-86264151D01*
X173300500Y-86148701D01*
X173300499Y-85541517D01*
X173320183Y-85474479D01*
X173336813Y-85453842D01*
X174544113Y-84246543D01*
X174575348Y-84199798D01*
X174575548Y-84199499D01*
X174620774Y-84131813D01*
X174620774Y-84131812D01*
X174620775Y-84131811D01*
X174646211Y-84070402D01*
X174660457Y-84036011D01*
X174673578Y-84004333D01*
X174673580Y-84004329D01*
X174684287Y-83950500D01*
X174686619Y-83938777D01*
X174700500Y-83868995D01*
X174700500Y-81752786D01*
X174720185Y-81685747D01*
X174772989Y-81639992D01*
X174842147Y-81630048D01*
X174899987Y-81654411D01*
X174992452Y-81725363D01*
X174992458Y-81725366D01*
X175135975Y-81784812D01*
X175135980Y-81784814D01*
X175251329Y-81800000D01*
X175400000Y-81800000D01*
X175900000Y-81800000D01*
X176048671Y-81800000D01*
X176164019Y-81784814D01*
X176164024Y-81784812D01*
X176307541Y-81725366D01*
X176307542Y-81725366D01*
X176430792Y-81630792D01*
X176525366Y-81507542D01*
X176525366Y-81507541D01*
X176584812Y-81364024D01*
X176584814Y-81364019D01*
X176600000Y-81248670D01*
X176600000Y-80800000D01*
X175900000Y-80800000D01*
X175900000Y-81800000D01*
X175400000Y-81800000D01*
X175400000Y-80300000D01*
X175900000Y-80300000D01*
X176600000Y-80300000D01*
X176600000Y-79851329D01*
X176584814Y-79735980D01*
X176584812Y-79735975D01*
X176525366Y-79592458D01*
X176525366Y-79592457D01*
X176430792Y-79469207D01*
X176307541Y-79374633D01*
X176164024Y-79315187D01*
X176164019Y-79315185D01*
X176048671Y-79300000D01*
X175900000Y-79300000D01*
X175900000Y-80300000D01*
X175400000Y-80300000D01*
X175400000Y-79300000D01*
X175251329Y-79300000D01*
X175135980Y-79315185D01*
X175135975Y-79315187D01*
X174992458Y-79374633D01*
X174992453Y-79374636D01*
X174899986Y-79445589D01*
X174834817Y-79470783D01*
X174766372Y-79456745D01*
X174716383Y-79407931D01*
X174700500Y-79347213D01*
X174700500Y-78816132D01*
X174673581Y-78680805D01*
X174673580Y-78680804D01*
X174673580Y-78680800D01*
X174673578Y-78680795D01*
X174620778Y-78553323D01*
X174620771Y-78553310D01*
X174544115Y-78438587D01*
X174544114Y-78438586D01*
X174446542Y-78341014D01*
X174357083Y-78251555D01*
X174143514Y-78037985D01*
X174110029Y-77976662D01*
X174115013Y-77906970D01*
X174156885Y-77851037D01*
X174222349Y-77826620D01*
X174250585Y-77827830D01*
X174393713Y-77850500D01*
X174393715Y-77850500D01*
X174606286Y-77850500D01*
X174606287Y-77850500D01*
X174816243Y-77817246D01*
X175018412Y-77751557D01*
X175207816Y-77655051D01*
X175329093Y-77566939D01*
X175379786Y-77530109D01*
X175379788Y-77530106D01*
X175379792Y-77530104D01*
X175530104Y-77379792D01*
X175530106Y-77379788D01*
X175530109Y-77379786D01*
X175655048Y-77207820D01*
X175655047Y-77207820D01*
X175655051Y-77207816D01*
X175751557Y-77018412D01*
X175817246Y-76816243D01*
X175850500Y-76606287D01*
X175850500Y-76393713D01*
X175817246Y-76183757D01*
X175751557Y-75981588D01*
X175655051Y-75792184D01*
X175655049Y-75792181D01*
X175655048Y-75792179D01*
X175530109Y-75620213D01*
X175379786Y-75469890D01*
X175207820Y-75344951D01*
X175018414Y-75248444D01*
X175018413Y-75248443D01*
X175018412Y-75248443D01*
X174816243Y-75182754D01*
X174816241Y-75182753D01*
X174816240Y-75182753D01*
X174654957Y-75157208D01*
X174606287Y-75149500D01*
X174393713Y-75149500D01*
X174345042Y-75157208D01*
X174183760Y-75182753D01*
X173981585Y-75248444D01*
X173792179Y-75344951D01*
X173620213Y-75469890D01*
X173469890Y-75620213D01*
X173344951Y-75792180D01*
X173284985Y-75909870D01*
X173237010Y-75960666D01*
X173169189Y-75977461D01*
X173103054Y-75954924D01*
X173059603Y-75900208D01*
X173050500Y-75853575D01*
X173050500Y-61393713D01*
X173649500Y-61393713D01*
X173649500Y-61606286D01*
X173682753Y-61816239D01*
X173748444Y-62018414D01*
X173844951Y-62207820D01*
X173969890Y-62379786D01*
X174120213Y-62530109D01*
X174292179Y-62655048D01*
X174292181Y-62655049D01*
X174292184Y-62655051D01*
X174481588Y-62751557D01*
X174683757Y-62817246D01*
X174893713Y-62850500D01*
X174893714Y-62850500D01*
X175106286Y-62850500D01*
X175106287Y-62850500D01*
X175316243Y-62817246D01*
X175518412Y-62751557D01*
X175707816Y-62655051D01*
X175754940Y-62620814D01*
X175879786Y-62530109D01*
X175879788Y-62530106D01*
X175879792Y-62530104D01*
X176030104Y-62379792D01*
X176030106Y-62379788D01*
X176030109Y-62379786D01*
X176155048Y-62207820D01*
X176155047Y-62207820D01*
X176155051Y-62207816D01*
X176251557Y-62018412D01*
X176317246Y-61816243D01*
X176350500Y-61606287D01*
X176350500Y-61393713D01*
X176317246Y-61183757D01*
X176251557Y-60981588D01*
X176155051Y-60792184D01*
X176155049Y-60792181D01*
X176155048Y-60792179D01*
X176030109Y-60620213D01*
X175879786Y-60469890D01*
X175707820Y-60344951D01*
X175518414Y-60248444D01*
X175518413Y-60248443D01*
X175518412Y-60248443D01*
X175316243Y-60182754D01*
X175316241Y-60182753D01*
X175316240Y-60182753D01*
X175154957Y-60157208D01*
X175106287Y-60149500D01*
X174893713Y-60149500D01*
X174845042Y-60157208D01*
X174683760Y-60182753D01*
X174481585Y-60248444D01*
X174292179Y-60344951D01*
X174120213Y-60469890D01*
X173969890Y-60620213D01*
X173844951Y-60792179D01*
X173748444Y-60981585D01*
X173682753Y-61183760D01*
X173649500Y-61393713D01*
X173050500Y-61393713D01*
X173050500Y-58204182D01*
X173070185Y-58137143D01*
X173099011Y-58105809D01*
X173131149Y-58081149D01*
X173225800Y-57957798D01*
X173285301Y-57814151D01*
X173300500Y-57698701D01*
X173300499Y-56301300D01*
X173300499Y-56301298D01*
X174699500Y-56301298D01*
X174699500Y-57698703D01*
X174714696Y-57814142D01*
X174714699Y-57814151D01*
X174748667Y-57896158D01*
X174774200Y-57957798D01*
X174868851Y-58081149D01*
X174992202Y-58175800D01*
X175135849Y-58235301D01*
X175251299Y-58250500D01*
X176048700Y-58250499D01*
X176048703Y-58250499D01*
X176164142Y-58235303D01*
X176164146Y-58235301D01*
X176164151Y-58235301D01*
X176307798Y-58175800D01*
X176431149Y-58081149D01*
X176525800Y-57957798D01*
X176585301Y-57814151D01*
X176600500Y-57698701D01*
X176600499Y-56301300D01*
X176600499Y-56301298D01*
X176600499Y-56301296D01*
X176585303Y-56185857D01*
X176585301Y-56185850D01*
X176585301Y-56185849D01*
X176525800Y-56042202D01*
X176431149Y-55918851D01*
X176307798Y-55824200D01*
X176307794Y-55824198D01*
X176164151Y-55764699D01*
X176164149Y-55764698D01*
X176048701Y-55749500D01*
X175251296Y-55749500D01*
X175135857Y-55764696D01*
X175135848Y-55764699D01*
X174992205Y-55824198D01*
X174868851Y-55918851D01*
X174774198Y-56042205D01*
X174714699Y-56185848D01*
X174714698Y-56185850D01*
X174699500Y-56301298D01*
X173300499Y-56301298D01*
X173300499Y-56301296D01*
X173285303Y-56185857D01*
X173285301Y-56185850D01*
X173285301Y-56185849D01*
X173225800Y-56042202D01*
X173131149Y-55918851D01*
X173007798Y-55824200D01*
X173007794Y-55824198D01*
X172864151Y-55764699D01*
X172864149Y-55764698D01*
X172748701Y-55749500D01*
X171951296Y-55749500D01*
X171835857Y-55764696D01*
X171835848Y-55764699D01*
X171692205Y-55824198D01*
X171568851Y-55918851D01*
X171474198Y-56042205D01*
X171414699Y-56185848D01*
X171414698Y-56185850D01*
X171399500Y-56301298D01*
X171399500Y-57698703D01*
X171414696Y-57814142D01*
X171414699Y-57814151D01*
X171448667Y-57896158D01*
X171474200Y-57957798D01*
X171568851Y-58081149D01*
X171600987Y-58105807D01*
X171642189Y-58162233D01*
X171649500Y-58204182D01*
X171649500Y-77166134D01*
X171649500Y-77304122D01*
X171649500Y-77304124D01*
X171649499Y-77304124D01*
X171676418Y-77439450D01*
X171676421Y-77439460D01*
X171729222Y-77566935D01*
X171805887Y-77681673D01*
X171805888Y-77681674D01*
X173263181Y-79138965D01*
X173277884Y-79165892D01*
X173294477Y-79191711D01*
X173295368Y-79197911D01*
X173296666Y-79200288D01*
X173299500Y-79226646D01*
X173299500Y-79346584D01*
X173279815Y-79413623D01*
X173227011Y-79459378D01*
X173157853Y-79469322D01*
X173100014Y-79444960D01*
X173007798Y-79374200D01*
X173007797Y-79374199D01*
X173007795Y-79374198D01*
X172864151Y-79314699D01*
X172864149Y-79314698D01*
X172748701Y-79299500D01*
X171951296Y-79299500D01*
X171835857Y-79314696D01*
X171835848Y-79314699D01*
X171692205Y-79374198D01*
X171692202Y-79374199D01*
X171692202Y-79374200D01*
X171584628Y-79456745D01*
X171568851Y-79468851D01*
X171474198Y-79592205D01*
X171414699Y-79735848D01*
X171414698Y-79735850D01*
X171399500Y-79851298D01*
X171399500Y-81248703D01*
X171414696Y-81364142D01*
X171414700Y-81364154D01*
X171433344Y-81409165D01*
X171440813Y-81478634D01*
X171409537Y-81541113D01*
X171406464Y-81544298D01*
X167587584Y-85363181D01*
X167526261Y-85396666D01*
X167499903Y-85399500D01*
X148074499Y-85399500D01*
X148007460Y-85379815D01*
X147961705Y-85327011D01*
X147950499Y-85275500D01*
X147950499Y-85251296D01*
X147935303Y-85135857D01*
X147935301Y-85135850D01*
X147935301Y-85135849D01*
X147875800Y-84992202D01*
X147781149Y-84868851D01*
X147657798Y-84774200D01*
X147657794Y-84774198D01*
X147514151Y-84714699D01*
X147514149Y-84714698D01*
X147398701Y-84699500D01*
X146601296Y-84699500D01*
X146485857Y-84714696D01*
X146485848Y-84714699D01*
X146342205Y-84774198D01*
X146342202Y-84774199D01*
X146342202Y-84774200D01*
X146218851Y-84868851D01*
X146164230Y-84940035D01*
X146124198Y-84992205D01*
X146064699Y-85135848D01*
X146064698Y-85135850D01*
X146049500Y-85251298D01*
X146049500Y-86648703D01*
X146064696Y-86764142D01*
X146064699Y-86764151D01*
X146106729Y-86865621D01*
X146124200Y-86907798D01*
X146218851Y-87031149D01*
X146278769Y-87077126D01*
X146319970Y-87133552D01*
X146324125Y-87203298D01*
X146289913Y-87264219D01*
X146228195Y-87296971D01*
X146203281Y-87299500D01*
X146091519Y-87299500D01*
X146024480Y-87279815D01*
X146003838Y-87263181D01*
X144686818Y-85946161D01*
X144653333Y-85884838D01*
X144650499Y-85858480D01*
X144650499Y-85251296D01*
X144635303Y-85135857D01*
X144635301Y-85135850D01*
X144635301Y-85135849D01*
X144575800Y-84992202D01*
X144481149Y-84868851D01*
X144357798Y-84774200D01*
X144357794Y-84774198D01*
X144214151Y-84714699D01*
X144214149Y-84714698D01*
X144098702Y-84699500D01*
X144098701Y-84699500D01*
X143491519Y-84699500D01*
X143424480Y-84679815D01*
X143403838Y-84663181D01*
X141736819Y-82996162D01*
X141703334Y-82934839D01*
X141700500Y-82908481D01*
X141700500Y-80199097D01*
X141720185Y-80132058D01*
X141772989Y-80086303D01*
X141842147Y-80076359D01*
X141905703Y-80105384D01*
X141912181Y-80111416D01*
X142713181Y-80912416D01*
X142746666Y-80973739D01*
X142749500Y-81000097D01*
X142749500Y-81748703D01*
X142764696Y-81864142D01*
X142764699Y-81864151D01*
X142824093Y-82007541D01*
X142824200Y-82007798D01*
X142918851Y-82131149D01*
X143042202Y-82225800D01*
X143185849Y-82285301D01*
X143301299Y-82300500D01*
X144098700Y-82300499D01*
X144098703Y-82300499D01*
X144214142Y-82285303D01*
X144214146Y-82285301D01*
X144214151Y-82285301D01*
X144357798Y-82225800D01*
X144481149Y-82131149D01*
X144575800Y-82007798D01*
X144635301Y-81864151D01*
X144650500Y-81748701D01*
X144650500Y-81748670D01*
X146050000Y-81748670D01*
X146065185Y-81864019D01*
X146065187Y-81864024D01*
X146124633Y-82007541D01*
X146124633Y-82007542D01*
X146219207Y-82130792D01*
X146342458Y-82225366D01*
X146485975Y-82284812D01*
X146485980Y-82284814D01*
X146601329Y-82300000D01*
X146750000Y-82300000D01*
X147250000Y-82300000D01*
X147398671Y-82300000D01*
X147514019Y-82284814D01*
X147514024Y-82284812D01*
X147657541Y-82225366D01*
X147657542Y-82225366D01*
X147780792Y-82130792D01*
X147875366Y-82007542D01*
X147875366Y-82007541D01*
X147934812Y-81864024D01*
X147934814Y-81864019D01*
X147950000Y-81748670D01*
X147950000Y-81300000D01*
X147250000Y-81300000D01*
X147250000Y-82300000D01*
X146750000Y-82300000D01*
X146750000Y-81300000D01*
X146050000Y-81300000D01*
X146050000Y-81748670D01*
X144650500Y-81748670D01*
X144650499Y-81000097D01*
X144650499Y-80351329D01*
X146050000Y-80351329D01*
X146050000Y-80800000D01*
X146750000Y-80800000D01*
X147250000Y-80800000D01*
X147950000Y-80800000D01*
X147950000Y-80351329D01*
X147934814Y-80235980D01*
X147934812Y-80235975D01*
X147875366Y-80092458D01*
X147875366Y-80092457D01*
X147780792Y-79969207D01*
X147657541Y-79874633D01*
X147514024Y-79815187D01*
X147514019Y-79815185D01*
X147398671Y-79800000D01*
X147250000Y-79800000D01*
X147250000Y-80800000D01*
X146750000Y-80800000D01*
X146750000Y-79800000D01*
X146601329Y-79800000D01*
X146485980Y-79815185D01*
X146485975Y-79815187D01*
X146342458Y-79874633D01*
X146342457Y-79874633D01*
X146219207Y-79969207D01*
X146124633Y-80092457D01*
X146124633Y-80092458D01*
X146065187Y-80235975D01*
X146065185Y-80235980D01*
X146050000Y-80351329D01*
X144650499Y-80351329D01*
X144650499Y-80351296D01*
X144635303Y-80235857D01*
X144635301Y-80235852D01*
X144635301Y-80235849D01*
X144575800Y-80092202D01*
X144481149Y-79968851D01*
X144357798Y-79874200D01*
X144357794Y-79874198D01*
X144214151Y-79814699D01*
X144214149Y-79814698D01*
X144098702Y-79799500D01*
X143350097Y-79799500D01*
X143283058Y-79779815D01*
X143262416Y-79763181D01*
X142636819Y-79137584D01*
X142603334Y-79076261D01*
X142600500Y-79049903D01*
X142600500Y-76893713D01*
X143649500Y-76893713D01*
X143649500Y-77106286D01*
X143680834Y-77304124D01*
X143682754Y-77316243D01*
X143703402Y-77379792D01*
X143748444Y-77518414D01*
X143844951Y-77707820D01*
X143969890Y-77879786D01*
X144120213Y-78030109D01*
X144292179Y-78155048D01*
X144292181Y-78155049D01*
X144292184Y-78155051D01*
X144481588Y-78251557D01*
X144683757Y-78317246D01*
X144893713Y-78350500D01*
X144893714Y-78350500D01*
X145106286Y-78350500D01*
X145106287Y-78350500D01*
X145316243Y-78317246D01*
X145518412Y-78251557D01*
X145707816Y-78155051D01*
X145868945Y-78037985D01*
X145879786Y-78030109D01*
X145879788Y-78030106D01*
X145879792Y-78030104D01*
X146030104Y-77879792D01*
X146030106Y-77879788D01*
X146030109Y-77879786D01*
X146155048Y-77707820D01*
X146155047Y-77707820D01*
X146155051Y-77707816D01*
X146251557Y-77518412D01*
X146317246Y-77316243D01*
X146350500Y-77106287D01*
X146350500Y-76893713D01*
X146317246Y-76683757D01*
X146251557Y-76481588D01*
X146155051Y-76292184D01*
X146155049Y-76292181D01*
X146155048Y-76292179D01*
X146030109Y-76120213D01*
X145879786Y-75969890D01*
X145707820Y-75844951D01*
X145518414Y-75748444D01*
X145518413Y-75748443D01*
X145518412Y-75748443D01*
X145316243Y-75682754D01*
X145316241Y-75682753D01*
X145316240Y-75682753D01*
X145154957Y-75657208D01*
X145106287Y-75649500D01*
X144893713Y-75649500D01*
X144845042Y-75657208D01*
X144683760Y-75682753D01*
X144481585Y-75748444D01*
X144292179Y-75844951D01*
X144120213Y-75969890D01*
X143969890Y-76120213D01*
X143844951Y-76292179D01*
X143748444Y-76481585D01*
X143682753Y-76683760D01*
X143649500Y-76893713D01*
X142600500Y-76893713D01*
X142600500Y-61393713D01*
X143649500Y-61393713D01*
X143649500Y-61606286D01*
X143682753Y-61816239D01*
X143748444Y-62018414D01*
X143844951Y-62207820D01*
X143969890Y-62379786D01*
X144120213Y-62530109D01*
X144292179Y-62655048D01*
X144292181Y-62655049D01*
X144292184Y-62655051D01*
X144481588Y-62751557D01*
X144683757Y-62817246D01*
X144893713Y-62850500D01*
X144893714Y-62850500D01*
X145106286Y-62850500D01*
X145106287Y-62850500D01*
X145316243Y-62817246D01*
X145518412Y-62751557D01*
X145707816Y-62655051D01*
X145754940Y-62620814D01*
X145879786Y-62530109D01*
X145879788Y-62530106D01*
X145879792Y-62530104D01*
X146030104Y-62379792D01*
X146030106Y-62379788D01*
X146030109Y-62379786D01*
X146155048Y-62207820D01*
X146155047Y-62207820D01*
X146155051Y-62207816D01*
X146251557Y-62018412D01*
X146317246Y-61816243D01*
X146350500Y-61606287D01*
X146350500Y-61393713D01*
X146317246Y-61183757D01*
X146251557Y-60981588D01*
X146155051Y-60792184D01*
X146155049Y-60792181D01*
X146155048Y-60792179D01*
X146030109Y-60620213D01*
X145879786Y-60469890D01*
X145707820Y-60344951D01*
X145518414Y-60248444D01*
X145518413Y-60248443D01*
X145518412Y-60248443D01*
X145316243Y-60182754D01*
X145316241Y-60182753D01*
X145316240Y-60182753D01*
X145154957Y-60157208D01*
X145106287Y-60149500D01*
X144893713Y-60149500D01*
X144845042Y-60157208D01*
X144683760Y-60182753D01*
X144481585Y-60248444D01*
X144292179Y-60344951D01*
X144120213Y-60469890D01*
X143969890Y-60620213D01*
X143844951Y-60792179D01*
X143748444Y-60981585D01*
X143682753Y-61183760D01*
X143649500Y-61393713D01*
X142600500Y-61393713D01*
X142600500Y-61300097D01*
X142620185Y-61233058D01*
X142636819Y-61212416D01*
X145712416Y-58136819D01*
X145773739Y-58103334D01*
X145800097Y-58100500D01*
X145927828Y-58100500D01*
X145994867Y-58120185D01*
X146040622Y-58172989D01*
X146050767Y-58208317D01*
X146064697Y-58314142D01*
X146064699Y-58314149D01*
X146064699Y-58314151D01*
X146124200Y-58457798D01*
X146218851Y-58581149D01*
X146342202Y-58675800D01*
X146485849Y-58735301D01*
X146601299Y-58750500D01*
X147398700Y-58750499D01*
X147398703Y-58750499D01*
X147514142Y-58735303D01*
X147514146Y-58735301D01*
X147514151Y-58735301D01*
X147657798Y-58675800D01*
X147781149Y-58581149D01*
X147875800Y-58457798D01*
X147935301Y-58314151D01*
X147950500Y-58198701D01*
X147950500Y-57896153D01*
X151199500Y-57896153D01*
X151199500Y-58053846D01*
X151230261Y-58208489D01*
X151230264Y-58208501D01*
X151290602Y-58354172D01*
X151290609Y-58354185D01*
X151378210Y-58485288D01*
X151378213Y-58485292D01*
X151489707Y-58596786D01*
X151489711Y-58596789D01*
X151620814Y-58684390D01*
X151620827Y-58684397D01*
X151743720Y-58735300D01*
X151766503Y-58744737D01*
X151831147Y-58757595D01*
X151921849Y-58775638D01*
X151983760Y-58808023D01*
X151985339Y-58809574D01*
X159363181Y-66187416D01*
X159396666Y-66248739D01*
X159399500Y-66275097D01*
X159399500Y-67179227D01*
X159379815Y-67246266D01*
X159327011Y-67292021D01*
X159262246Y-67302517D01*
X159256583Y-67301908D01*
X159196973Y-67295499D01*
X159196965Y-67295499D01*
X158301129Y-67295499D01*
X158301123Y-67295500D01*
X158241516Y-67301907D01*
X158106671Y-67352201D01*
X158106664Y-67352205D01*
X158009738Y-67424765D01*
X157944274Y-67449183D01*
X157935427Y-67449499D01*
X157779058Y-67449499D01*
X157620943Y-67449499D01*
X157468216Y-67490422D01*
X157468215Y-67490422D01*
X157468213Y-67490423D01*
X157468210Y-67490424D01*
X157418097Y-67519358D01*
X157418096Y-67519359D01*
X157374690Y-67544419D01*
X157331286Y-67569478D01*
X157331283Y-67569480D01*
X156269481Y-68631282D01*
X156269479Y-68631285D01*
X156252009Y-68661545D01*
X156225500Y-68707461D01*
X156219361Y-68718094D01*
X156219359Y-68718096D01*
X156190425Y-68768209D01*
X156190424Y-68768210D01*
X156177698Y-68815704D01*
X156149499Y-68920943D01*
X156149499Y-68920945D01*
X156149499Y-69089046D01*
X156149500Y-69089059D01*
X156149500Y-70413330D01*
X156149499Y-70413348D01*
X156149499Y-70579054D01*
X156149498Y-70579054D01*
X156190423Y-70731785D01*
X156219358Y-70781900D01*
X156219359Y-70781904D01*
X156219360Y-70781904D01*
X156269479Y-70868714D01*
X156269481Y-70868717D01*
X156388349Y-70987585D01*
X156388354Y-70987589D01*
X157381284Y-71980520D01*
X157381286Y-71980521D01*
X157381290Y-71980524D01*
X157518209Y-72059573D01*
X157518216Y-72059577D01*
X157670943Y-72100501D01*
X157670945Y-72100501D01*
X157836654Y-72100501D01*
X157836670Y-72100500D01*
X161913331Y-72100500D01*
X161913347Y-72100501D01*
X161920943Y-72100501D01*
X162079054Y-72100501D01*
X162079057Y-72100501D01*
X162231785Y-72059577D01*
X162281904Y-72030639D01*
X162368716Y-71980520D01*
X162480520Y-71868716D01*
X162480520Y-71868714D01*
X162490728Y-71858507D01*
X162490729Y-71858504D01*
X168014662Y-66334572D01*
X168075983Y-66301089D01*
X168078150Y-66300638D01*
X168136085Y-66289113D01*
X168233497Y-66269737D01*
X168379179Y-66209394D01*
X168510289Y-66121789D01*
X168621789Y-66010289D01*
X168709394Y-65879179D01*
X168769737Y-65733497D01*
X168800500Y-65578842D01*
X168800500Y-65421158D01*
X168800500Y-65421155D01*
X168800499Y-65421153D01*
X168769738Y-65266510D01*
X168769738Y-65266508D01*
X168769737Y-65266503D01*
X168769735Y-65266498D01*
X168709397Y-65120827D01*
X168709390Y-65120814D01*
X168621789Y-64989711D01*
X168621786Y-64989707D01*
X168510292Y-64878213D01*
X168510288Y-64878210D01*
X168379185Y-64790609D01*
X168379172Y-64790602D01*
X168233501Y-64730264D01*
X168233489Y-64730261D01*
X168078845Y-64699500D01*
X168078842Y-64699500D01*
X167921158Y-64699500D01*
X167921155Y-64699500D01*
X167766510Y-64730261D01*
X167766498Y-64730264D01*
X167620827Y-64790602D01*
X167620814Y-64790609D01*
X167489711Y-64878210D01*
X167489707Y-64878213D01*
X167378213Y-64989707D01*
X167378210Y-64989711D01*
X167290609Y-65120814D01*
X167290602Y-65120827D01*
X167230264Y-65266498D01*
X167230261Y-65266508D01*
X167199361Y-65421850D01*
X167166976Y-65483761D01*
X167165425Y-65485339D01*
X162363180Y-70287584D01*
X162301857Y-70321069D01*
X162232165Y-70316085D01*
X162176232Y-70274213D01*
X162151815Y-70208749D01*
X162151499Y-70199928D01*
X162151499Y-69648129D01*
X162145091Y-69588518D01*
X162118646Y-69517617D01*
X162113663Y-69447927D01*
X162118648Y-69430950D01*
X162144597Y-69361379D01*
X162144597Y-69361377D01*
X162150999Y-69301844D01*
X162151000Y-69301827D01*
X162151000Y-69250000D01*
X161909791Y-69250000D01*
X161866458Y-69242182D01*
X161758482Y-69201909D01*
X161758483Y-69201909D01*
X161698883Y-69195502D01*
X161698881Y-69195501D01*
X161698873Y-69195501D01*
X161698865Y-69195501D01*
X161374950Y-69195501D01*
X161366264Y-69192950D01*
X161357303Y-69194239D01*
X161333262Y-69183260D01*
X161307911Y-69175816D01*
X161301983Y-69168975D01*
X161293747Y-69165214D01*
X161279457Y-69142979D01*
X161262156Y-69123012D01*
X161259868Y-69112497D01*
X161255973Y-69106436D01*
X161250950Y-69071501D01*
X161250950Y-68928498D01*
X161270635Y-68861459D01*
X161323439Y-68815704D01*
X161374950Y-68804498D01*
X161698871Y-68804498D01*
X161698872Y-68804498D01*
X161758483Y-68798090D01*
X161866458Y-68757818D01*
X161909791Y-68750000D01*
X162151000Y-68750000D01*
X162161184Y-68739815D01*
X162170685Y-68707461D01*
X162223489Y-68661706D01*
X162275000Y-68650500D01*
X162423471Y-68650500D01*
X162423474Y-68650500D01*
X162576202Y-68609576D01*
X162626321Y-68580638D01*
X162713133Y-68530519D01*
X162824937Y-68418715D01*
X162824937Y-68418713D01*
X162835145Y-68408506D01*
X162835146Y-68408503D01*
X166776782Y-64466870D01*
X166803709Y-64452166D01*
X166829528Y-64435574D01*
X166835728Y-64434682D01*
X166838105Y-64433385D01*
X166864463Y-64430551D01*
X167083280Y-64430551D01*
X167083296Y-64430552D01*
X167090892Y-64430552D01*
X167249003Y-64430552D01*
X167249006Y-64430552D01*
X167401734Y-64389628D01*
X167451853Y-64360690D01*
X167538665Y-64310571D01*
X167650469Y-64198767D01*
X167650469Y-64198765D01*
X167660677Y-64188558D01*
X167660678Y-64188555D01*
X168014662Y-63834572D01*
X168075983Y-63801089D01*
X168078150Y-63800638D01*
X168136085Y-63789113D01*
X168233497Y-63769737D01*
X168379179Y-63709394D01*
X168510289Y-63621789D01*
X168621789Y-63510289D01*
X168709394Y-63379179D01*
X168769737Y-63233497D01*
X168800500Y-63078842D01*
X168800500Y-62921158D01*
X168800500Y-62921155D01*
X168800499Y-62921153D01*
X168769738Y-62766510D01*
X168769738Y-62766508D01*
X168769737Y-62766503D01*
X168763545Y-62751555D01*
X168709397Y-62620827D01*
X168709390Y-62620814D01*
X168621789Y-62489711D01*
X168621786Y-62489707D01*
X168510292Y-62378213D01*
X168510288Y-62378210D01*
X168379185Y-62290609D01*
X168379172Y-62290602D01*
X168233501Y-62230264D01*
X168233489Y-62230261D01*
X168078845Y-62199500D01*
X168078842Y-62199500D01*
X167921158Y-62199500D01*
X167921155Y-62199500D01*
X167766510Y-62230261D01*
X167766498Y-62230264D01*
X167620827Y-62290602D01*
X167620814Y-62290609D01*
X167489711Y-62378210D01*
X167489707Y-62378213D01*
X167378213Y-62489707D01*
X167378210Y-62489711D01*
X167290609Y-62620814D01*
X167290602Y-62620827D01*
X167230264Y-62766498D01*
X167230261Y-62766508D01*
X167199361Y-62921850D01*
X167166976Y-62983761D01*
X167165425Y-62985339D01*
X166957533Y-63193232D01*
X166930605Y-63207935D01*
X166904787Y-63224528D01*
X166898586Y-63225419D01*
X166896210Y-63226717D01*
X166869852Y-63229551D01*
X166651035Y-63229551D01*
X166651019Y-63229550D01*
X166643423Y-63229550D01*
X166485308Y-63229550D01*
X166408944Y-63250012D01*
X166332579Y-63270474D01*
X166332574Y-63270477D01*
X166195655Y-63349526D01*
X166195647Y-63349532D01*
X162140671Y-67404509D01*
X162079348Y-67437994D01*
X162009656Y-67433010D01*
X161978679Y-67416094D01*
X161893335Y-67352205D01*
X161893328Y-67352201D01*
X161758482Y-67301907D01*
X161758483Y-67301907D01*
X161698883Y-67295500D01*
X161698881Y-67295499D01*
X161698873Y-67295499D01*
X161698864Y-67295499D01*
X160803029Y-67295499D01*
X160803020Y-67295500D01*
X160737752Y-67302516D01*
X160668993Y-67290109D01*
X160617857Y-67242497D01*
X160600500Y-67179226D01*
X160600500Y-65895945D01*
X160600500Y-65895943D01*
X160559577Y-65743216D01*
X160553961Y-65733489D01*
X160480524Y-65606290D01*
X160480521Y-65606286D01*
X160480520Y-65606284D01*
X160368716Y-65494480D01*
X160368715Y-65494479D01*
X160364385Y-65490149D01*
X160364374Y-65490139D01*
X154311415Y-59437180D01*
X154277930Y-59375857D01*
X154282914Y-59306165D01*
X154324786Y-59250232D01*
X154390250Y-59225815D01*
X154399072Y-59225499D01*
X155062508Y-59225499D01*
X155062516Y-59225498D01*
X155062519Y-59225498D01*
X155118802Y-59219748D01*
X155165297Y-59214999D01*
X155331834Y-59159814D01*
X155481156Y-59067712D01*
X155605212Y-58943656D01*
X155607252Y-58940347D01*
X155609245Y-58938555D01*
X155609693Y-58937989D01*
X155609789Y-58938065D01*
X155659194Y-58893623D01*
X155728156Y-58882395D01*
X155792240Y-58910234D01*
X155818329Y-58940339D01*
X155820181Y-58943341D01*
X155820183Y-58943344D01*
X155944154Y-59067315D01*
X156093375Y-59159356D01*
X156093380Y-59159358D01*
X156259802Y-59214505D01*
X156259809Y-59214506D01*
X156362519Y-59224999D01*
X156499999Y-59224999D01*
X157000000Y-59224999D01*
X157137472Y-59224999D01*
X157137486Y-59224998D01*
X157240197Y-59214505D01*
X157406619Y-59159358D01*
X157406624Y-59159356D01*
X157555845Y-59067315D01*
X157679815Y-58943345D01*
X157771856Y-58794124D01*
X157771858Y-58794119D01*
X157827005Y-58627697D01*
X157827006Y-58627690D01*
X157837499Y-58524986D01*
X157837500Y-58524973D01*
X157837500Y-58250000D01*
X157000000Y-58250000D01*
X157000000Y-59224999D01*
X156499999Y-59224999D01*
X156500000Y-59224998D01*
X156500000Y-57750000D01*
X157000000Y-57750000D01*
X157837499Y-57750000D01*
X157837499Y-57475028D01*
X157837498Y-57475013D01*
X157827005Y-57372302D01*
X157771858Y-57205880D01*
X157771856Y-57205875D01*
X157679815Y-57056654D01*
X157555845Y-56932684D01*
X157406624Y-56840643D01*
X157406619Y-56840641D01*
X157240197Y-56785494D01*
X157240190Y-56785493D01*
X157137486Y-56775000D01*
X157000000Y-56775000D01*
X157000000Y-57750000D01*
X156500000Y-57750000D01*
X156500000Y-56775000D01*
X156362527Y-56775000D01*
X156362512Y-56775001D01*
X156259802Y-56785494D01*
X156093380Y-56840641D01*
X156093375Y-56840643D01*
X155944154Y-56932684D01*
X155820183Y-57056655D01*
X155820179Y-57056660D01*
X155818326Y-57059665D01*
X155816518Y-57061290D01*
X155815702Y-57062323D01*
X155815525Y-57062183D01*
X155766374Y-57106385D01*
X155697411Y-57117601D01*
X155633331Y-57089752D01*
X155607253Y-57059653D01*
X155607237Y-57059628D01*
X155605212Y-57056344D01*
X155481156Y-56932288D01*
X155388388Y-56875069D01*
X155331836Y-56840187D01*
X155331831Y-56840185D01*
X155330362Y-56839698D01*
X155165297Y-56785001D01*
X155165295Y-56785000D01*
X155062510Y-56774500D01*
X154287498Y-56774500D01*
X154287480Y-56774501D01*
X154184703Y-56785000D01*
X154184700Y-56785001D01*
X154018168Y-56840185D01*
X154018163Y-56840187D01*
X153868842Y-56932289D01*
X153744789Y-57056342D01*
X153652687Y-57205663D01*
X153652685Y-57205668D01*
X153624905Y-57289504D01*
X153585132Y-57346949D01*
X153520616Y-57373772D01*
X153507199Y-57374500D01*
X152579766Y-57374500D01*
X152512727Y-57354815D01*
X152510875Y-57353602D01*
X152379185Y-57265609D01*
X152379172Y-57265602D01*
X152233501Y-57205264D01*
X152233489Y-57205261D01*
X152078845Y-57174500D01*
X152078842Y-57174500D01*
X151921158Y-57174500D01*
X151921155Y-57174500D01*
X151766510Y-57205261D01*
X151766498Y-57205264D01*
X151620827Y-57265602D01*
X151620814Y-57265609D01*
X151489711Y-57353210D01*
X151489707Y-57353213D01*
X151378213Y-57464707D01*
X151378210Y-57464711D01*
X151290609Y-57595814D01*
X151290602Y-57595827D01*
X151230264Y-57741498D01*
X151230261Y-57741510D01*
X151199500Y-57896153D01*
X147950500Y-57896153D01*
X147950499Y-57496161D01*
X147950499Y-56801296D01*
X147935303Y-56685857D01*
X147935301Y-56685850D01*
X147935301Y-56685849D01*
X147875800Y-56542202D01*
X147781149Y-56418851D01*
X147657798Y-56324200D01*
X147657794Y-56324198D01*
X147514151Y-56264699D01*
X147514149Y-56264698D01*
X147398701Y-56249500D01*
X146601296Y-56249500D01*
X146485857Y-56264696D01*
X146485848Y-56264699D01*
X146342205Y-56324198D01*
X146218851Y-56418851D01*
X146124198Y-56542205D01*
X146064699Y-56685848D01*
X146064698Y-56685850D01*
X146050766Y-56791685D01*
X146022500Y-56855581D01*
X145964176Y-56894053D01*
X145927827Y-56899500D01*
X145590518Y-56899500D01*
X145523479Y-56879815D01*
X145477724Y-56827011D01*
X145467780Y-56757853D01*
X145496805Y-56694297D01*
X145502837Y-56687819D01*
X145866457Y-56324200D01*
X146453838Y-55736819D01*
X146515161Y-55703334D01*
X146541519Y-55700500D01*
X148068996Y-55700500D01*
X148160040Y-55682389D01*
X148204328Y-55673580D01*
X148268069Y-55647177D01*
X148331807Y-55620777D01*
X148331808Y-55620776D01*
X148331811Y-55620775D01*
X148446543Y-55544114D01*
X150753838Y-53236819D01*
X150815161Y-53203334D01*
X150841519Y-53200500D01*
X151574684Y-53200500D01*
X151622136Y-53209939D01*
X151670542Y-53229989D01*
X151766503Y-53269737D01*
X151911958Y-53298670D01*
X151921153Y-53300499D01*
X151921156Y-53300500D01*
X151921158Y-53300500D01*
X152078844Y-53300500D01*
X152078845Y-53300499D01*
X152233497Y-53269737D01*
X152379179Y-53209394D01*
X152510289Y-53121789D01*
X152621789Y-53010289D01*
X152709394Y-52879179D01*
X152769737Y-52733497D01*
X152800500Y-52578842D01*
X152800500Y-52421158D01*
X152800500Y-52421155D01*
X152800499Y-52421153D01*
X152791012Y-52373461D01*
X152769737Y-52266503D01*
X152755981Y-52233292D01*
X152709397Y-52120827D01*
X152709390Y-52120814D01*
X152621789Y-51989711D01*
X152621786Y-51989707D01*
X152510292Y-51878213D01*
X152510288Y-51878210D01*
X152379185Y-51790609D01*
X152379172Y-51790602D01*
X152233501Y-51730264D01*
X152233489Y-51730261D01*
X152078845Y-51699500D01*
X152078842Y-51699500D01*
X151921158Y-51699500D01*
X151921155Y-51699500D01*
X151766510Y-51730261D01*
X151766498Y-51730264D01*
X151622136Y-51790061D01*
X151574684Y-51799500D01*
X150431004Y-51799500D01*
X150295677Y-51826418D01*
X150295667Y-51826421D01*
X150168192Y-51879222D01*
X150053454Y-51955887D01*
X150053453Y-51955888D01*
X147746162Y-54263181D01*
X147684839Y-54296666D01*
X147658481Y-54299500D01*
X146131004Y-54299500D01*
X145995677Y-54326418D01*
X145995667Y-54326421D01*
X145868192Y-54379222D01*
X145753454Y-54455887D01*
X143996160Y-56213181D01*
X143934837Y-56246666D01*
X143908479Y-56249500D01*
X143301296Y-56249500D01*
X143185857Y-56264696D01*
X143185848Y-56264699D01*
X143042205Y-56324198D01*
X142918851Y-56418851D01*
X142824198Y-56542205D01*
X142764699Y-56685848D01*
X142764698Y-56685850D01*
X142749500Y-56801298D01*
X142749500Y-57408480D01*
X142729815Y-57475519D01*
X142713181Y-57496161D01*
X140712181Y-59497161D01*
X140650858Y-59530646D01*
X140581166Y-59525662D01*
X140525233Y-59483790D01*
X140500816Y-59418326D01*
X140500500Y-59409480D01*
X140500500Y-54021365D01*
X140500790Y-54012891D01*
X140505057Y-53950599D01*
X140527207Y-53627234D01*
X140528222Y-53617778D01*
X140587191Y-53215345D01*
X140588763Y-53206747D01*
X140590134Y-53200500D01*
X140680656Y-52787993D01*
X140682919Y-52779233D01*
X140803732Y-52373457D01*
X140806804Y-52364427D01*
X140861483Y-52221913D01*
X140953105Y-51983108D01*
X140957068Y-51973910D01*
X140991905Y-51901298D01*
X142749500Y-51901298D01*
X142749500Y-53298703D01*
X142764696Y-53414142D01*
X142764699Y-53414151D01*
X142824093Y-53557541D01*
X142824200Y-53557798D01*
X142918851Y-53681149D01*
X143042202Y-53775800D01*
X143185849Y-53835301D01*
X143301299Y-53850500D01*
X144098700Y-53850499D01*
X144098703Y-53850499D01*
X144214142Y-53835303D01*
X144214146Y-53835301D01*
X144214151Y-53835301D01*
X144357798Y-53775800D01*
X144481149Y-53681149D01*
X144575800Y-53557798D01*
X144635301Y-53414151D01*
X144650500Y-53298701D01*
X144650500Y-53298670D01*
X146050000Y-53298670D01*
X146065185Y-53414019D01*
X146065187Y-53414024D01*
X146124633Y-53557541D01*
X146124633Y-53557542D01*
X146219207Y-53680792D01*
X146342458Y-53775366D01*
X146485975Y-53834812D01*
X146485980Y-53834814D01*
X146601329Y-53850000D01*
X146750000Y-53850000D01*
X147250000Y-53850000D01*
X147398671Y-53850000D01*
X147514019Y-53834814D01*
X147514024Y-53834812D01*
X147657541Y-53775366D01*
X147657542Y-53775366D01*
X147780792Y-53680792D01*
X147875366Y-53557542D01*
X147875366Y-53557541D01*
X147934812Y-53414024D01*
X147934814Y-53414019D01*
X147950000Y-53298670D01*
X147950000Y-52850000D01*
X147250000Y-52850000D01*
X147250000Y-53850000D01*
X146750000Y-53850000D01*
X146750000Y-52850000D01*
X146050000Y-52850000D01*
X146050000Y-53298670D01*
X144650500Y-53298670D01*
X144650499Y-52550095D01*
X144670184Y-52483057D01*
X144686813Y-52462420D01*
X145247905Y-51901329D01*
X146050000Y-51901329D01*
X146050000Y-52350000D01*
X146750000Y-52350000D01*
X147250000Y-52350000D01*
X147950000Y-52350000D01*
X147950000Y-51901329D01*
X147934814Y-51785980D01*
X147934812Y-51785975D01*
X147875366Y-51642458D01*
X147875366Y-51642457D01*
X147780792Y-51519207D01*
X147657541Y-51424633D01*
X147514024Y-51365187D01*
X147514019Y-51365185D01*
X147398671Y-51350000D01*
X147250000Y-51350000D01*
X147250000Y-52350000D01*
X146750000Y-52350000D01*
X146750000Y-51350000D01*
X146601329Y-51350000D01*
X146485980Y-51365185D01*
X146485975Y-51365187D01*
X146342458Y-51424633D01*
X146342457Y-51424633D01*
X146219207Y-51519207D01*
X146124633Y-51642457D01*
X146124633Y-51642458D01*
X146065187Y-51785975D01*
X146065185Y-51785980D01*
X146050000Y-51901329D01*
X145247905Y-51901329D01*
X146012416Y-51136819D01*
X146073739Y-51103334D01*
X146100097Y-51100500D01*
X159674903Y-51100500D01*
X159741942Y-51120185D01*
X159762584Y-51136819D01*
X163363181Y-54737416D01*
X163396666Y-54798739D01*
X163399500Y-54825097D01*
X163399500Y-55500001D01*
X163399501Y-55500019D01*
X163410000Y-55602796D01*
X163410001Y-55602799D01*
X163458614Y-55749500D01*
X163465186Y-55769334D01*
X163557288Y-55918656D01*
X163681344Y-56042712D01*
X163830666Y-56134814D01*
X163997203Y-56189999D01*
X164099991Y-56200500D01*
X164850008Y-56200499D01*
X164850016Y-56200498D01*
X164850019Y-56200498D01*
X164906302Y-56194748D01*
X164952797Y-56189999D01*
X165119334Y-56134814D01*
X165268656Y-56042712D01*
X165392712Y-55918656D01*
X165394461Y-55915819D01*
X165396169Y-55914283D01*
X165397193Y-55912989D01*
X165397414Y-55913163D01*
X165446406Y-55869096D01*
X165515368Y-55857872D01*
X165579451Y-55885713D01*
X165605537Y-55915817D01*
X165607288Y-55918656D01*
X165731344Y-56042712D01*
X165880666Y-56134814D01*
X166047203Y-56189999D01*
X166149991Y-56200500D01*
X166900008Y-56200499D01*
X166900016Y-56200498D01*
X166900019Y-56200498D01*
X166956302Y-56194748D01*
X167002797Y-56189999D01*
X167169334Y-56134814D01*
X167318656Y-56042712D01*
X167442712Y-55918656D01*
X167534814Y-55769334D01*
X167589999Y-55602797D01*
X167600500Y-55500009D01*
X167600499Y-54499992D01*
X167589999Y-54397203D01*
X167534814Y-54230666D01*
X167442712Y-54081344D01*
X167442709Y-54081341D01*
X167438234Y-54075681D01*
X167439287Y-54074847D01*
X167409497Y-54020291D01*
X167414481Y-53950599D01*
X167442982Y-53906252D01*
X167693199Y-53656035D01*
X168014662Y-53334572D01*
X168075983Y-53301089D01*
X168078150Y-53300638D01*
X168136085Y-53289113D01*
X168233497Y-53269737D01*
X168379179Y-53209394D01*
X168510289Y-53121789D01*
X168621789Y-53010289D01*
X168709394Y-52879179D01*
X168769737Y-52733497D01*
X168800500Y-52578842D01*
X168800500Y-52421158D01*
X168800500Y-52421155D01*
X168800499Y-52421153D01*
X168791012Y-52373461D01*
X168769737Y-52266503D01*
X168755981Y-52233292D01*
X168709397Y-52120827D01*
X168709390Y-52120814D01*
X168621789Y-51989711D01*
X168621786Y-51989707D01*
X168510292Y-51878213D01*
X168510288Y-51878210D01*
X168379185Y-51790609D01*
X168379172Y-51790602D01*
X168233501Y-51730264D01*
X168233489Y-51730261D01*
X168078845Y-51699500D01*
X168078842Y-51699500D01*
X167921158Y-51699500D01*
X167921155Y-51699500D01*
X167766510Y-51730261D01*
X167766498Y-51730264D01*
X167620827Y-51790602D01*
X167620814Y-51790609D01*
X167489711Y-51878210D01*
X167489707Y-51878213D01*
X167378213Y-51989707D01*
X167378210Y-51989711D01*
X167290609Y-52120814D01*
X167290602Y-52120827D01*
X167230264Y-52266498D01*
X167230261Y-52266508D01*
X167199361Y-52421850D01*
X167166976Y-52483761D01*
X167165425Y-52485339D01*
X166044481Y-53606282D01*
X166044479Y-53606285D01*
X166008136Y-53669234D01*
X166008134Y-53669238D01*
X166005143Y-53674419D01*
X165965423Y-53743215D01*
X165952462Y-53791580D01*
X165948208Y-53800931D01*
X165931808Y-53819908D01*
X165918752Y-53841329D01*
X165907727Y-53847776D01*
X165902525Y-53853797D01*
X165892246Y-53856830D01*
X165886348Y-53860279D01*
X165887213Y-53862133D01*
X165880668Y-53865185D01*
X165880666Y-53865185D01*
X165880666Y-53865186D01*
X165814087Y-53906252D01*
X165731342Y-53957289D01*
X165607285Y-54081346D01*
X165605537Y-54084182D01*
X165603829Y-54085717D01*
X165602807Y-54087011D01*
X165602585Y-54086836D01*
X165553589Y-54130905D01*
X165484626Y-54142126D01*
X165420544Y-54114282D01*
X165394463Y-54084182D01*
X165392714Y-54081346D01*
X165268657Y-53957289D01*
X165268656Y-53957288D01*
X165119334Y-53865186D01*
X164952797Y-53810001D01*
X164952795Y-53810000D01*
X164850016Y-53799500D01*
X164850009Y-53799500D01*
X164175097Y-53799500D01*
X164108058Y-53779815D01*
X164087416Y-53763181D01*
X160462590Y-50138355D01*
X160462588Y-50138352D01*
X160343717Y-50019481D01*
X160343712Y-50019477D01*
X160227280Y-49952256D01*
X160227278Y-49952254D01*
X160213616Y-49944367D01*
X160206785Y-49940423D01*
X160054057Y-49899499D01*
X159895943Y-49899499D01*
X159888347Y-49899499D01*
X159888331Y-49899500D01*
X145720939Y-49899500D01*
X145691051Y-49907508D01*
X145691052Y-49907509D01*
X145568214Y-49940423D01*
X145568209Y-49940426D01*
X145431290Y-50019475D01*
X145431282Y-50019481D01*
X145319478Y-50131286D01*
X144137582Y-51313181D01*
X144076259Y-51346666D01*
X144049901Y-51349500D01*
X143301296Y-51349500D01*
X143185857Y-51364696D01*
X143185848Y-51364699D01*
X143042205Y-51424198D01*
X143042202Y-51424199D01*
X143042202Y-51424200D01*
X142918851Y-51518851D01*
X142836741Y-51625859D01*
X142824198Y-51642205D01*
X142764699Y-51785848D01*
X142764698Y-51785850D01*
X142749500Y-51901298D01*
X140991905Y-51901298D01*
X141125992Y-51621820D01*
X141130947Y-51612530D01*
X141241902Y-51424200D01*
X141320282Y-51291162D01*
X141326291Y-51281928D01*
X141534602Y-50990970D01*
X141541655Y-50982020D01*
X141768371Y-50720194D01*
X141776455Y-50711709D01*
X142021780Y-50477504D01*
X142030799Y-50469690D01*
X142295908Y-50261530D01*
X142305704Y-50254580D01*
X142592423Y-50071387D01*
X142602768Y-50065457D01*
X142913724Y-49906655D01*
X142924372Y-49901838D01*
X143269134Y-49765075D01*
X143277154Y-49762208D01*
X143450079Y-49707034D01*
X143455376Y-49705474D01*
X143644377Y-49654391D01*
X143649571Y-49653108D01*
X143846106Y-49609139D01*
X143851268Y-49608100D01*
X144057435Y-49571153D01*
X144062486Y-49570355D01*
X144277499Y-49540995D01*
X144282438Y-49540422D01*
X144507532Y-49518900D01*
X144512316Y-49518538D01*
X144747467Y-49505308D01*
X144752048Y-49505137D01*
X145003434Y-49500521D01*
X145005711Y-49500500D01*
X174978635Y-49500500D01*
X174987108Y-49500789D01*
G37*
%TD.AperFunction*%
%TD*%
%TA.AperFunction,NonConductor*%
G36*
X177258707Y-50068673D02*
G01*
X177378164Y-50125986D01*
X177387468Y-50130947D01*
X177708829Y-50320278D01*
X177718070Y-50326291D01*
X178009020Y-50534596D01*
X178017988Y-50541664D01*
X178279793Y-50768362D01*
X178288299Y-50776465D01*
X178493088Y-50990978D01*
X178522481Y-51021766D01*
X178530318Y-51030811D01*
X178585037Y-51100500D01*
X178738461Y-51295899D01*
X178745424Y-51305714D01*
X178928605Y-51592413D01*
X178934546Y-51602779D01*
X179081016Y-51889587D01*
X179084010Y-51905449D01*
X179091748Y-51919619D01*
X179090357Y-51939077D01*
X179093975Y-51958244D01*
X179087917Y-51973207D01*
X179086767Y-51989311D01*
X179075078Y-52004927D01*
X179067759Y-52023009D01*
X179054572Y-52032323D01*
X179044899Y-52045247D01*
X179026623Y-52052064D01*
X179010690Y-52063319D01*
X178994561Y-52064025D01*
X178979436Y-52069668D01*
X178960375Y-52065522D01*
X178940887Y-52066376D01*
X178926195Y-52058088D01*
X178911162Y-52054819D01*
X178882916Y-52033676D01*
X178882906Y-52033670D01*
X178881559Y-52032323D01*
X178868716Y-52019480D01*
X178868713Y-52019478D01*
X177117387Y-50268152D01*
X177083902Y-50206829D01*
X177088886Y-50137137D01*
X177130758Y-50081204D01*
X177196222Y-50056787D01*
X177258707Y-50068673D01*
G37*
%TD.AperFunction*%
%TA.AperFunction,NonConductor*%
G36*
X173233627Y-81643883D02*
G01*
X173283617Y-81692696D01*
X173299500Y-81753415D01*
X173299500Y-83458481D01*
X173279815Y-83525520D01*
X173263181Y-83546162D01*
X172646161Y-84163181D01*
X172584838Y-84196666D01*
X172558480Y-84199500D01*
X171951296Y-84199500D01*
X171835857Y-84214696D01*
X171835848Y-84214699D01*
X171692205Y-84274198D01*
X171568851Y-84368851D01*
X171474198Y-84492205D01*
X171414699Y-84635848D01*
X171414698Y-84635850D01*
X171399500Y-84751298D01*
X171399500Y-86148696D01*
X171410265Y-86230473D01*
X171399497Y-86299508D01*
X171375006Y-86334336D01*
X170446162Y-87263181D01*
X170384839Y-87296666D01*
X170358481Y-87299500D01*
X147796719Y-87299500D01*
X147729680Y-87279815D01*
X147683925Y-87227011D01*
X147673981Y-87157853D01*
X147703006Y-87094297D01*
X147721225Y-87077130D01*
X147781149Y-87031149D01*
X147875800Y-86907798D01*
X147935301Y-86764151D01*
X147942652Y-86708314D01*
X147970919Y-86644418D01*
X148029243Y-86605947D01*
X148065591Y-86600500D01*
X167713331Y-86600500D01*
X167713347Y-86600501D01*
X167720943Y-86600501D01*
X167879054Y-86600501D01*
X167879057Y-86600501D01*
X168031785Y-86559577D01*
X168081904Y-86530639D01*
X168168716Y-86480520D01*
X168280520Y-86368716D01*
X168280520Y-86368714D01*
X168290728Y-86358507D01*
X168290729Y-86358504D01*
X172830520Y-81818716D01*
X172830522Y-81818711D01*
X172832204Y-81816521D01*
X172834405Y-81814831D01*
X172836268Y-81812969D01*
X172836513Y-81813214D01*
X172883132Y-81777438D01*
X173007798Y-81725800D01*
X173100014Y-81655039D01*
X173165182Y-81629845D01*
X173233627Y-81643883D01*
G37*
%TD.AperFunction*%
%TA.AperFunction,NonConductor*%
G36*
X140704832Y-83946195D02*
G01*
X140713045Y-83953702D01*
X142713181Y-85953838D01*
X142746666Y-86015161D01*
X142749500Y-86041519D01*
X142749500Y-86648703D01*
X142764696Y-86764142D01*
X142764699Y-86764151D01*
X142806729Y-86865621D01*
X142824200Y-86907798D01*
X142918851Y-87031149D01*
X143042202Y-87125800D01*
X143185849Y-87185301D01*
X143301299Y-87200500D01*
X143908480Y-87200499D01*
X143975519Y-87220183D01*
X143996161Y-87236818D01*
X145045800Y-88286457D01*
X145079285Y-88347780D01*
X145074301Y-88417472D01*
X145032429Y-88473405D01*
X144966965Y-88497822D01*
X144948581Y-88497771D01*
X144628843Y-88473104D01*
X144620403Y-88472161D01*
X144215346Y-88412807D01*
X144206745Y-88411235D01*
X143788017Y-88319347D01*
X143779212Y-88317073D01*
X143373458Y-88196266D01*
X143364424Y-88193193D01*
X142983124Y-88046899D01*
X142973904Y-88042927D01*
X142621831Y-87874011D01*
X142612525Y-87869049D01*
X142291162Y-87679716D01*
X142281922Y-87673703D01*
X141990982Y-87465406D01*
X141981996Y-87458323D01*
X141720231Y-87231660D01*
X141711710Y-87223544D01*
X141477507Y-86978220D01*
X141469669Y-86969173D01*
X141261539Y-86704100D01*
X141254576Y-86694285D01*
X141105267Y-86460599D01*
X141071390Y-86407579D01*
X141065450Y-86397214D01*
X140906662Y-86086285D01*
X140901833Y-86075612D01*
X140867934Y-85990157D01*
X140765071Y-85730854D01*
X140762206Y-85722838D01*
X140707042Y-85549941D01*
X140705471Y-85544605D01*
X140654404Y-85355671D01*
X140653107Y-85350422D01*
X140609138Y-85153884D01*
X140608094Y-85148695D01*
X140588883Y-85041497D01*
X140571154Y-84942570D01*
X140570352Y-84937489D01*
X140565789Y-84904075D01*
X140540996Y-84722505D01*
X140540421Y-84717543D01*
X140536814Y-84679815D01*
X140518901Y-84492466D01*
X140518536Y-84487651D01*
X140515762Y-84438341D01*
X140505309Y-84252533D01*
X140505137Y-84247949D01*
X140501385Y-84043656D01*
X140519835Y-83976270D01*
X140571790Y-83929554D01*
X140640754Y-83918342D01*
X140704832Y-83946195D01*
G37*
%TD.AperFunction*%
M02*
