%TF.GenerationSoftware,KiCad,Pcbnew,9.0.0*%
%TF.CreationDate,2025-06-13T08:55:22+10:00*%
%TF.ProjectId,NeoNavPrecision3D,4e656f4e-6176-4507-9265-636973696f6e,rev?*%
%TF.SameCoordinates,Original*%
%TF.FileFunction,Legend,Bot*%
%TF.FilePolarity,Positive*%
%FSLAX46Y46*%
G04 Gerber Fmt 4.6, Leading zero omitted, Abs format (unit mm)*
G04 Created by KiCad (PCBNEW 9.0.0) date 2025-06-13 08:55:22*
%MOMM*%
%LPD*%
G01*
G04 APERTURE LIST*
%ADD10C,0.100000*%
%ADD11C,0.150000*%
%ADD12C,0.106680*%
%ADD13C,0.000000*%
%ADD14C,0.504000*%
G04 APERTURE END LIST*
D10*
G36*
X167766041Y-85283489D02*
G01*
X167766041Y-86283907D01*
X167532240Y-86283907D01*
X167532240Y-85697786D01*
X167330617Y-86075385D01*
X167161235Y-86075385D01*
X166959612Y-85697786D01*
X166959612Y-86283907D01*
X166725872Y-86283907D01*
X166725872Y-85283489D01*
X166958269Y-85283489D01*
X167243850Y-85817526D01*
X167528026Y-85283489D01*
X167766041Y-85283489D01*
G37*
G36*
X166331982Y-85521804D02*
G01*
X166370640Y-85531540D01*
X166408145Y-85545116D01*
X166442573Y-85561792D01*
X166474686Y-85581946D01*
X166502017Y-85603839D01*
X166526309Y-85628680D01*
X166545621Y-85654220D01*
X166561528Y-85682217D01*
X166579509Y-85734727D01*
X166375078Y-85769227D01*
X166353476Y-85736487D01*
X166320743Y-85713448D01*
X166277792Y-85701404D01*
X166258879Y-85700289D01*
X166233991Y-85702207D01*
X166211885Y-85707816D01*
X166193371Y-85716473D01*
X166177595Y-85728141D01*
X166154769Y-85759383D01*
X166143530Y-85801615D01*
X166142681Y-85818808D01*
X166142681Y-85856482D01*
X166185292Y-85841910D01*
X166226690Y-85832547D01*
X166298080Y-85827112D01*
X166340686Y-85829086D01*
X166382893Y-85835090D01*
X166421932Y-85844660D01*
X166459114Y-85858098D01*
X166490881Y-85873867D01*
X166519924Y-85893040D01*
X166543417Y-85913418D01*
X166563801Y-85936716D01*
X166579461Y-85960801D01*
X166591807Y-85987459D01*
X166600171Y-86015210D01*
X166604974Y-86045365D01*
X166606021Y-86068251D01*
X166604160Y-86098305D01*
X166598598Y-86127184D01*
X166577160Y-86179462D01*
X166542630Y-86224191D01*
X166495533Y-86260389D01*
X166436985Y-86286058D01*
X166369695Y-86298646D01*
X166345708Y-86299539D01*
X166310935Y-86297562D01*
X166276235Y-86291541D01*
X166243994Y-86281896D01*
X166213393Y-86268322D01*
X166187579Y-86252427D01*
X166164349Y-86233079D01*
X166146503Y-86213123D01*
X166131507Y-86190362D01*
X166125889Y-86283907D01*
X165921519Y-86283907D01*
X165921519Y-85995457D01*
X166142681Y-85995457D01*
X166142681Y-86002601D01*
X166144581Y-86025433D01*
X166150064Y-86046332D01*
X166170991Y-86082477D01*
X166204276Y-86110052D01*
X166248399Y-86126680D01*
X166282693Y-86130157D01*
X166305985Y-86128177D01*
X166328780Y-86122138D01*
X166347755Y-86112956D01*
X166363696Y-86100150D01*
X166373723Y-86086697D01*
X166380089Y-86070605D01*
X166382007Y-86054310D01*
X166380225Y-86037679D01*
X166374919Y-86022642D01*
X166355151Y-85998678D01*
X166322227Y-85981362D01*
X166275145Y-85972040D01*
X166256071Y-85971277D01*
X166219297Y-85973306D01*
X166186835Y-85979697D01*
X166142681Y-85995457D01*
X165921519Y-85995457D01*
X165921519Y-85829921D01*
X165923442Y-85791474D01*
X165929087Y-85755192D01*
X165938247Y-85721210D01*
X165950746Y-85689531D01*
X165985269Y-85633053D01*
X166031820Y-85586187D01*
X166089721Y-85549837D01*
X166158094Y-85525382D01*
X166235529Y-85514474D01*
X166254727Y-85514054D01*
X166331982Y-85521804D01*
G37*
G36*
X166606071Y-86069340D02*
G01*
X166606021Y-86068251D01*
X166606071Y-86067447D01*
X166606071Y-86069340D01*
G37*
G36*
X165243989Y-85612056D02*
G01*
X165283988Y-85569880D01*
X165334058Y-85538837D01*
X165393540Y-85519735D01*
X165452573Y-85514054D01*
X165489699Y-85515972D01*
X165525017Y-85521582D01*
X165590982Y-85543448D01*
X165650418Y-85579014D01*
X165702662Y-85627962D01*
X165746281Y-85689770D01*
X165779157Y-85763031D01*
X165798920Y-85844901D01*
X165803977Y-85914002D01*
X165796316Y-85994273D01*
X165773278Y-86073573D01*
X165756379Y-86110875D01*
X165736035Y-86146118D01*
X165713128Y-86177904D01*
X165687207Y-86206913D01*
X165659820Y-86231580D01*
X165629897Y-86252996D01*
X165599298Y-86269959D01*
X165566591Y-86283380D01*
X165533508Y-86292600D01*
X165498652Y-86298057D01*
X165467960Y-86299539D01*
X165402654Y-86291920D01*
X165340935Y-86269356D01*
X165312407Y-86252739D01*
X165285976Y-86232808D01*
X165262089Y-86209879D01*
X165240868Y-86183988D01*
X165232754Y-86172166D01*
X165225793Y-86283907D01*
X165015806Y-86283907D01*
X165015806Y-85906125D01*
X165241181Y-85906125D01*
X165248825Y-85964554D01*
X165258166Y-85991688D01*
X165271015Y-86016756D01*
X165286527Y-86038371D01*
X165305040Y-86057110D01*
X165325071Y-86071671D01*
X165347560Y-86082876D01*
X165371032Y-86090033D01*
X165396543Y-86093490D01*
X165406350Y-86093764D01*
X165454046Y-86086272D01*
X165497468Y-86064238D01*
X165516513Y-86048089D01*
X165533001Y-86028992D01*
X165549171Y-86002051D01*
X165566737Y-85954567D01*
X165571580Y-85906125D01*
X165563965Y-85848499D01*
X165554635Y-85821648D01*
X165541827Y-85796853D01*
X165526277Y-85775314D01*
X165507752Y-85756641D01*
X165487633Y-85742045D01*
X165465096Y-85730816D01*
X165441588Y-85723632D01*
X165416106Y-85720164D01*
X165406350Y-85719890D01*
X165380594Y-85721792D01*
X165356831Y-85727290D01*
X165314735Y-85748380D01*
X165280311Y-85782287D01*
X165255199Y-85828235D01*
X165242275Y-85883801D01*
X165241181Y-85906125D01*
X165015806Y-85906125D01*
X165015806Y-85234091D01*
X165243989Y-85234091D01*
X165243989Y-85612056D01*
G37*
G36*
X164561199Y-85515976D02*
G01*
X164599086Y-85521614D01*
X164670579Y-85543693D01*
X164735214Y-85579502D01*
X164791599Y-85628201D01*
X164837946Y-85688595D01*
X164872278Y-85758891D01*
X164884353Y-85797006D01*
X164892782Y-85836673D01*
X164898325Y-85905819D01*
X164896394Y-85948954D01*
X164890695Y-85990409D01*
X164881364Y-86030024D01*
X164868542Y-86067617D01*
X164852405Y-86102947D01*
X164833070Y-86135925D01*
X164810779Y-86166254D01*
X164785591Y-86193916D01*
X164757819Y-86218605D01*
X164727455Y-86240330D01*
X164694853Y-86258817D01*
X164659957Y-86274056D01*
X164623116Y-86285828D01*
X164584266Y-86294071D01*
X164514741Y-86299539D01*
X164473050Y-86297589D01*
X164431753Y-86291754D01*
X164391553Y-86282127D01*
X164352667Y-86268706D01*
X164316659Y-86252099D01*
X164282737Y-86231970D01*
X164252726Y-86209525D01*
X164225353Y-86183917D01*
X164202148Y-86156713D01*
X164181953Y-86126693D01*
X164163337Y-86089856D01*
X164371920Y-86036184D01*
X164394232Y-86061301D01*
X164417953Y-86080947D01*
X164439215Y-86093113D01*
X164462423Y-86101605D01*
X164511933Y-86107747D01*
X164538077Y-86105839D01*
X164561668Y-86100299D01*
X164601213Y-86079607D01*
X164632467Y-86046369D01*
X164655690Y-85999491D01*
X164664523Y-85967369D01*
X164149354Y-85967369D01*
X164149354Y-85916994D01*
X164151294Y-85870153D01*
X164157058Y-85825252D01*
X164157822Y-85821800D01*
X164384499Y-85821800D01*
X164664523Y-85821800D01*
X164655988Y-85789467D01*
X164643661Y-85760061D01*
X164629853Y-85737729D01*
X164612923Y-85718660D01*
X164595218Y-85704918D01*
X164574850Y-85694483D01*
X164553189Y-85688007D01*
X164529000Y-85685056D01*
X164521702Y-85684902D01*
X164496870Y-85686807D01*
X164474754Y-85692326D01*
X164438594Y-85712746D01*
X164410813Y-85745572D01*
X164390978Y-85792438D01*
X164384499Y-85821800D01*
X164157822Y-85821800D01*
X164166356Y-85783262D01*
X164179181Y-85743545D01*
X164195028Y-85707153D01*
X164214088Y-85673308D01*
X164235684Y-85642949D01*
X164260193Y-85615359D01*
X164286897Y-85591234D01*
X164316254Y-85570080D01*
X164347677Y-85552319D01*
X164381547Y-85537745D01*
X164417551Y-85526578D01*
X164455851Y-85518858D01*
X164521702Y-85514054D01*
X164561199Y-85515976D01*
G37*
G36*
X163564392Y-86283907D02*
G01*
X163355809Y-86283907D01*
X163222758Y-85811297D01*
X163091172Y-86283907D01*
X162879780Y-86283907D01*
X162633400Y-85529685D01*
X162862988Y-85529685D01*
X162984804Y-86009439D01*
X163119199Y-85529685D01*
X163320760Y-85529685D01*
X163455155Y-86006570D01*
X163572758Y-85529685D01*
X163810772Y-85529685D01*
X163564392Y-86283907D01*
G37*
G36*
X162550846Y-86283907D02*
G01*
X162322662Y-86283907D01*
X162322662Y-85529685D01*
X162550846Y-85529685D01*
X162550846Y-86283907D01*
G37*
G36*
X162546632Y-85400786D02*
G01*
X162521951Y-85431417D01*
X162485423Y-85453285D01*
X162441194Y-85462341D01*
X162437456Y-85462397D01*
X162414257Y-85460470D01*
X162392215Y-85454803D01*
X162371702Y-85445540D01*
X162353181Y-85432856D01*
X162325471Y-85400786D01*
X162316624Y-85380193D01*
X162311407Y-85357446D01*
X162310083Y-85337772D01*
X162311986Y-85314300D01*
X162317487Y-85292804D01*
X162325471Y-85274757D01*
X162354266Y-85241802D01*
X162392873Y-85220511D01*
X162437456Y-85213147D01*
X162481338Y-85220740D01*
X162502070Y-85230152D01*
X162520722Y-85243076D01*
X162535132Y-85257620D01*
X162546632Y-85274757D01*
X162561365Y-85313495D01*
X162563485Y-85337772D01*
X162561531Y-85361121D01*
X162555669Y-85382515D01*
X162546632Y-85400786D01*
G37*
G36*
X162225392Y-85529685D02*
G01*
X162225392Y-85715921D01*
X162102172Y-85715921D01*
X162102172Y-86030261D01*
X162100224Y-86071563D01*
X162094410Y-86109834D01*
X162085420Y-86143040D01*
X162073060Y-86173344D01*
X162058198Y-86199400D01*
X162040343Y-86222649D01*
X162020150Y-86242471D01*
X161997186Y-86259480D01*
X161943113Y-86284718D01*
X161876591Y-86297935D01*
X161840404Y-86299539D01*
X161798123Y-86297543D01*
X161757827Y-86291384D01*
X161721682Y-86281769D01*
X161685980Y-86268180D01*
X161655573Y-86253377D01*
X161690561Y-86079598D01*
X161721503Y-86091438D01*
X161755534Y-86100164D01*
X161788564Y-86103595D01*
X161809856Y-86101695D01*
X161827717Y-86096210D01*
X161841746Y-86087929D01*
X161853003Y-86076958D01*
X161868401Y-86046371D01*
X161873988Y-86002051D01*
X161873988Y-85715921D01*
X161682196Y-85715921D01*
X161682196Y-85529685D01*
X161873988Y-85529685D01*
X161873988Y-85279581D01*
X162102172Y-85279581D01*
X162102172Y-85529685D01*
X162225392Y-85529685D01*
G37*
G36*
X161552381Y-86283907D02*
G01*
X161324197Y-86283907D01*
X161324197Y-85859169D01*
X161316681Y-85810534D01*
X161307540Y-85788558D01*
X161295117Y-85768862D01*
X161279991Y-85752204D01*
X161262154Y-85738566D01*
X161242663Y-85728690D01*
X161221060Y-85722348D01*
X161195420Y-85719890D01*
X161172645Y-85721844D01*
X161152051Y-85727711D01*
X161134714Y-85736771D01*
X161119280Y-85749279D01*
X161111400Y-85757869D01*
X161090878Y-85799101D01*
X161082165Y-85852890D01*
X161081969Y-85863382D01*
X161081969Y-86283907D01*
X160853785Y-86283907D01*
X160853785Y-85831020D01*
X160855748Y-85787061D01*
X160861670Y-85744561D01*
X160871034Y-85705937D01*
X160884078Y-85669567D01*
X160899612Y-85638053D01*
X160918426Y-85609267D01*
X160938918Y-85585246D01*
X160962313Y-85564205D01*
X160987081Y-85547348D01*
X161014485Y-85533658D01*
X161043510Y-85523671D01*
X161075043Y-85517106D01*
X161118422Y-85514054D01*
X161152420Y-85516011D01*
X161185270Y-85521897D01*
X161215588Y-85531331D01*
X161244213Y-85544467D01*
X161269863Y-85560612D01*
X161293392Y-85580217D01*
X161324197Y-85616270D01*
X161324197Y-85234091D01*
X161552381Y-85234091D01*
X161552381Y-86283907D01*
G37*
G36*
X158693763Y-86283907D02*
G01*
X158483775Y-86283907D01*
X158478157Y-86189691D01*
X158437264Y-86234461D01*
X158384746Y-86269372D01*
X158323120Y-86291826D01*
X158256995Y-86299539D01*
X158219992Y-86297622D01*
X158184786Y-86292018D01*
X158118905Y-86270154D01*
X158059420Y-86234562D01*
X158007035Y-86185558D01*
X157963249Y-86123711D01*
X157930268Y-86050561D01*
X157910530Y-85969195D01*
X157905999Y-85907529D01*
X158137988Y-85907529D01*
X158145603Y-85965155D01*
X158154932Y-85992008D01*
X158167740Y-86016806D01*
X158183290Y-86038347D01*
X158201813Y-86057022D01*
X158221929Y-86071618D01*
X158244462Y-86082846D01*
X158267962Y-86090027D01*
X158293434Y-86093492D01*
X158303157Y-86093764D01*
X158329241Y-86091808D01*
X158353330Y-86085927D01*
X158387177Y-86068729D01*
X158406446Y-86054781D01*
X158423239Y-86037764D01*
X158445978Y-86002051D01*
X158463545Y-85954774D01*
X158468387Y-85907529D01*
X158460742Y-85849124D01*
X158451400Y-85821991D01*
X158438547Y-85796920D01*
X158423030Y-85775302D01*
X158404510Y-85756558D01*
X158384474Y-85741993D01*
X158361978Y-85730785D01*
X158338501Y-85723625D01*
X158312982Y-85720165D01*
X158303157Y-85719890D01*
X158277162Y-85721812D01*
X158252940Y-85727451D01*
X158217794Y-85743520D01*
X158178837Y-85780345D01*
X158158993Y-85810259D01*
X158148426Y-85836880D01*
X158141512Y-85865166D01*
X158137988Y-85907529D01*
X157905999Y-85907529D01*
X157905591Y-85901973D01*
X157913272Y-85819100D01*
X157922873Y-85778248D01*
X157936174Y-85738742D01*
X157952859Y-85701439D01*
X157972956Y-85666303D01*
X157995521Y-85634811D01*
X158021084Y-85606120D01*
X158048142Y-85581742D01*
X158077760Y-85560584D01*
X158108214Y-85543755D01*
X158140842Y-85530418D01*
X158174099Y-85521171D01*
X158209230Y-85515644D01*
X158241608Y-85514054D01*
X158308490Y-85521750D01*
X158340480Y-85531263D01*
X158370966Y-85544432D01*
X158399178Y-85560896D01*
X158425230Y-85580736D01*
X158465579Y-85624696D01*
X158465579Y-85234091D01*
X158693763Y-85234091D01*
X158693763Y-86283907D01*
G37*
G36*
X157879579Y-85529685D02*
G01*
X157581359Y-86269009D01*
X157586976Y-86281648D01*
X157602592Y-86315197D01*
X157622455Y-86343404D01*
X157638442Y-86358040D01*
X157657224Y-86368949D01*
X157676053Y-86374950D01*
X157697517Y-86377361D01*
X157700366Y-86377391D01*
X157745102Y-86370783D01*
X157778768Y-86359134D01*
X157819373Y-86534195D01*
X157769452Y-86555844D01*
X157705714Y-86567796D01*
X157673804Y-86569183D01*
X157638623Y-86567265D01*
X157606097Y-86561656D01*
X157576297Y-86552648D01*
X157548865Y-86540425D01*
X157499372Y-86506104D01*
X157455693Y-86457460D01*
X157416739Y-86391539D01*
X157392376Y-86333733D01*
X157095621Y-85529685D01*
X157337787Y-85529685D01*
X157474991Y-86022568D01*
X157628986Y-85529685D01*
X157879579Y-85529685D01*
G37*
G36*
X156429754Y-86299539D02*
G01*
X156388761Y-86297613D01*
X156349945Y-86291948D01*
X156313546Y-86282760D01*
X156279470Y-86270198D01*
X156247759Y-86254407D01*
X156218541Y-86235567D01*
X156167558Y-86188995D01*
X156127250Y-86131216D01*
X156098732Y-86062980D01*
X156083412Y-85985312D01*
X156081158Y-85939586D01*
X156081158Y-85283489D01*
X156324790Y-85283489D01*
X156324790Y-85949417D01*
X156326767Y-85977634D01*
X156332788Y-86004266D01*
X156341867Y-86026281D01*
X156354490Y-86045529D01*
X156368660Y-86059663D01*
X156385741Y-86070620D01*
X156404125Y-86077494D01*
X156425096Y-86080887D01*
X156433967Y-86081186D01*
X156454045Y-86079302D01*
X156471831Y-86073932D01*
X156501969Y-86053580D01*
X156526652Y-86019432D01*
X156545952Y-85969017D01*
X156783967Y-86011088D01*
X156770744Y-86054963D01*
X156754328Y-86095642D01*
X156735614Y-86131572D01*
X156714056Y-86164334D01*
X156690599Y-86192845D01*
X156664580Y-86218207D01*
X156636760Y-86239826D01*
X156606582Y-86258260D01*
X156574403Y-86273292D01*
X156539988Y-86285021D01*
X156464134Y-86298250D01*
X156429754Y-86299539D01*
G37*
G36*
X155601237Y-85515980D02*
G01*
X155641391Y-85521648D01*
X155717593Y-85543899D01*
X155786549Y-85579895D01*
X155846372Y-85628451D01*
X155872253Y-85656965D01*
X155895158Y-85688028D01*
X155914835Y-85721321D01*
X155931200Y-85756779D01*
X155943972Y-85793874D01*
X155953141Y-85832740D01*
X155960013Y-85908934D01*
X155958088Y-85949884D01*
X155952429Y-85989276D01*
X155930270Y-86063642D01*
X155894430Y-86130717D01*
X155845947Y-86188926D01*
X155786162Y-86236517D01*
X155752548Y-86255784D01*
X155716787Y-86271754D01*
X155679176Y-86284240D01*
X155639828Y-86293126D01*
X155565195Y-86299539D01*
X155523420Y-86297612D01*
X155483102Y-86291942D01*
X155406679Y-86269696D01*
X155337639Y-86233739D01*
X155277858Y-86185281D01*
X155252041Y-86156848D01*
X155229204Y-86125867D01*
X155209613Y-86092675D01*
X155193333Y-86057312D01*
X155180645Y-86020310D01*
X155171556Y-85981522D01*
X155164945Y-85907529D01*
X155397217Y-85907529D01*
X155404832Y-85964635D01*
X155414204Y-85991515D01*
X155427081Y-86016412D01*
X155442723Y-86038092D01*
X155461360Y-86056915D01*
X155481534Y-86071591D01*
X155504126Y-86082881D01*
X155527579Y-86090061D01*
X155552987Y-86093506D01*
X155562386Y-86093764D01*
X155610083Y-86086272D01*
X155653505Y-86064238D01*
X155672549Y-86048089D01*
X155689037Y-86028992D01*
X155705207Y-86002051D01*
X155722774Y-85954774D01*
X155727616Y-85907529D01*
X155719971Y-85849124D01*
X155710629Y-85821991D01*
X155697776Y-85796920D01*
X155682259Y-85775302D01*
X155663739Y-85756558D01*
X155643703Y-85741993D01*
X155621207Y-85730785D01*
X155597730Y-85723625D01*
X155572211Y-85720165D01*
X155562386Y-85719890D01*
X155536820Y-85721808D01*
X155513024Y-85727421D01*
X155470730Y-85749012D01*
X155434958Y-85784459D01*
X155418222Y-85810259D01*
X155407654Y-85836880D01*
X155400741Y-85865166D01*
X155397217Y-85907529D01*
X155164945Y-85907529D01*
X155164820Y-85906125D01*
X155166745Y-85864994D01*
X155172409Y-85825407D01*
X155194586Y-85750665D01*
X155230440Y-85683282D01*
X155278898Y-85624873D01*
X155338595Y-85577185D01*
X155372130Y-85557902D01*
X155407834Y-85541911D01*
X155445372Y-85529415D01*
X155484681Y-85520511D01*
X155559638Y-85514054D01*
X155601237Y-85515980D01*
G37*
G36*
X155091120Y-86093948D02*
G01*
X155065653Y-86151953D01*
X155027787Y-86201185D01*
X154977603Y-86241831D01*
X154915116Y-86273053D01*
X154841363Y-86293038D01*
X154764933Y-86299539D01*
X154723299Y-86297582D01*
X154682422Y-86291702D01*
X154643981Y-86282204D01*
X154607423Y-86268965D01*
X154575277Y-86253089D01*
X154545784Y-86233880D01*
X154521246Y-86213101D01*
X154499777Y-86189441D01*
X154482862Y-86164786D01*
X154469253Y-86137612D01*
X154459646Y-86109380D01*
X154453584Y-86078849D01*
X154451325Y-86043878D01*
X154453233Y-86013549D01*
X154458773Y-85985761D01*
X154479739Y-85937238D01*
X154513666Y-85896122D01*
X154561730Y-85861332D01*
X154626037Y-85833083D01*
X154707536Y-85812885D01*
X154741120Y-85807329D01*
X154788844Y-85797703D01*
X154821394Y-85786585D01*
X154829291Y-85782294D01*
X154842114Y-85771844D01*
X154850138Y-85759636D01*
X154853105Y-85744741D01*
X154851242Y-85729921D01*
X154846015Y-85717605D01*
X154826750Y-85699244D01*
X154794638Y-85688273D01*
X154770490Y-85686306D01*
X154747443Y-85688260D01*
X154726655Y-85694122D01*
X154708941Y-85702976D01*
X154691975Y-85718205D01*
X154678474Y-85736595D01*
X154671144Y-85751702D01*
X154462500Y-85714089D01*
X154473024Y-85683629D01*
X154486587Y-85655869D01*
X154522765Y-85607258D01*
X154570832Y-85567772D01*
X154630880Y-85537958D01*
X154702278Y-85519391D01*
X154770490Y-85514054D01*
X154810950Y-85516008D01*
X154850602Y-85521867D01*
X154887934Y-85531347D01*
X154923359Y-85544541D01*
X154954522Y-85560389D01*
X154983016Y-85579539D01*
X155006675Y-85600280D01*
X155027248Y-85623865D01*
X155043343Y-85648465D01*
X155056106Y-85675545D01*
X155064899Y-85703705D01*
X155070108Y-85734122D01*
X155071519Y-85761411D01*
X155069612Y-85791384D01*
X155064078Y-85818940D01*
X155043031Y-85867518D01*
X155008859Y-85909064D01*
X154960477Y-85944398D01*
X154896176Y-85973014D01*
X154819521Y-85992404D01*
X154785938Y-85997960D01*
X154738143Y-86007837D01*
X154703968Y-86019278D01*
X154696301Y-86022995D01*
X154683871Y-86032487D01*
X154675640Y-86044052D01*
X154671144Y-86064760D01*
X154673007Y-86079685D01*
X154678232Y-86092218D01*
X154697687Y-86111496D01*
X154730317Y-86123962D01*
X154763529Y-86127348D01*
X154787789Y-86125393D01*
X154811250Y-86119530D01*
X154832312Y-86110196D01*
X154851164Y-86097241D01*
X154865873Y-86082199D01*
X154877570Y-86064118D01*
X154881132Y-86056395D01*
X155091120Y-86093948D01*
G37*
G36*
X154341355Y-86283907D02*
G01*
X154113171Y-86283907D01*
X154113171Y-85859169D01*
X154105655Y-85810534D01*
X154096514Y-85788558D01*
X154084091Y-85768862D01*
X154068965Y-85752204D01*
X154051128Y-85738566D01*
X154031637Y-85728690D01*
X154010034Y-85722348D01*
X153984394Y-85719890D01*
X153961619Y-85721844D01*
X153941026Y-85727711D01*
X153923688Y-85736771D01*
X153908254Y-85749279D01*
X153900375Y-85757869D01*
X153879852Y-85799101D01*
X153871139Y-85852890D01*
X153870943Y-85863382D01*
X153870943Y-86283907D01*
X153642759Y-86283907D01*
X153642759Y-85831020D01*
X153644722Y-85787061D01*
X153650644Y-85744561D01*
X153660008Y-85705937D01*
X153673052Y-85669567D01*
X153688586Y-85638053D01*
X153707401Y-85609267D01*
X153727893Y-85585246D01*
X153751287Y-85564205D01*
X153776056Y-85547348D01*
X153803460Y-85533658D01*
X153832484Y-85523671D01*
X153864018Y-85517106D01*
X153907397Y-85514054D01*
X153941394Y-85516011D01*
X153974244Y-85521897D01*
X154004562Y-85531331D01*
X154033187Y-85544467D01*
X154058837Y-85560612D01*
X154082366Y-85580217D01*
X154113171Y-85616270D01*
X154113171Y-85234091D01*
X154341355Y-85234091D01*
X154341355Y-86283907D01*
G37*
G36*
X153500183Y-85529685D02*
G01*
X153500183Y-85941845D01*
X153498248Y-85985660D01*
X153492522Y-86027233D01*
X153483321Y-86065740D01*
X153470685Y-86101811D01*
X153455041Y-86134734D01*
X153436294Y-86165050D01*
X153414887Y-86192251D01*
X153390668Y-86216674D01*
X153363961Y-86238036D01*
X153334683Y-86256423D01*
X153268778Y-86283799D01*
X153193117Y-86297883D01*
X153154396Y-86299539D01*
X153111914Y-86297610D01*
X153071896Y-86291927D01*
X153034908Y-86282792D01*
X153000443Y-86270300D01*
X152968795Y-86254727D01*
X152939757Y-86236134D01*
X152889690Y-86190387D01*
X152850455Y-86133548D01*
X152822788Y-86065866D01*
X152807938Y-85987668D01*
X152805800Y-85941845D01*
X152805800Y-85529685D01*
X153033984Y-85529685D01*
X153033984Y-85946058D01*
X153036002Y-85978880D01*
X153042312Y-86009491D01*
X153051348Y-86033037D01*
X153064007Y-86053618D01*
X153078022Y-86068512D01*
X153095061Y-86080328D01*
X153113627Y-86088162D01*
X153135026Y-86092707D01*
X153152991Y-86093764D01*
X153176013Y-86091869D01*
X153196305Y-86086416D01*
X153229011Y-86066305D01*
X153253057Y-86034181D01*
X153268109Y-85989113D01*
X153271999Y-85946058D01*
X153271999Y-85529685D01*
X153500183Y-85529685D01*
G37*
G36*
X152424794Y-85521804D02*
G01*
X152463453Y-85531540D01*
X152500957Y-85545116D01*
X152535385Y-85561792D01*
X152567498Y-85581946D01*
X152594829Y-85603839D01*
X152619121Y-85628680D01*
X152638434Y-85654220D01*
X152654340Y-85682217D01*
X152672322Y-85734727D01*
X152467890Y-85769227D01*
X152446288Y-85736487D01*
X152413555Y-85713448D01*
X152370605Y-85701404D01*
X152351692Y-85700289D01*
X152326804Y-85702207D01*
X152304697Y-85707816D01*
X152286183Y-85716473D01*
X152270407Y-85728141D01*
X152247581Y-85759383D01*
X152236343Y-85801615D01*
X152235493Y-85818808D01*
X152235493Y-85856482D01*
X152278105Y-85841910D01*
X152319502Y-85832547D01*
X152390893Y-85827112D01*
X152433499Y-85829086D01*
X152475705Y-85835090D01*
X152514745Y-85844660D01*
X152551926Y-85858098D01*
X152583693Y-85873867D01*
X152612736Y-85893040D01*
X152636230Y-85913418D01*
X152656613Y-85936716D01*
X152672273Y-85960801D01*
X152684619Y-85987459D01*
X152692984Y-86015210D01*
X152697786Y-86045365D01*
X152698833Y-86068251D01*
X152696972Y-86098305D01*
X152691410Y-86127184D01*
X152669973Y-86179462D01*
X152635442Y-86224191D01*
X152588345Y-86260389D01*
X152529797Y-86286058D01*
X152462508Y-86298646D01*
X152438520Y-86299539D01*
X152403747Y-86297562D01*
X152369047Y-86291541D01*
X152336806Y-86281896D01*
X152306205Y-86268322D01*
X152280392Y-86252427D01*
X152257161Y-86233079D01*
X152239316Y-86213123D01*
X152224319Y-86190362D01*
X152218702Y-86283907D01*
X152014331Y-86283907D01*
X152014331Y-85995457D01*
X152235493Y-85995457D01*
X152235493Y-86002601D01*
X152237393Y-86025433D01*
X152242876Y-86046332D01*
X152263803Y-86082477D01*
X152297088Y-86110052D01*
X152341211Y-86126680D01*
X152375505Y-86130157D01*
X152398797Y-86128177D01*
X152421593Y-86122138D01*
X152440567Y-86112956D01*
X152456508Y-86100150D01*
X152466535Y-86086697D01*
X152472902Y-86070605D01*
X152474819Y-86054310D01*
X152473038Y-86037679D01*
X152467732Y-86022642D01*
X152447963Y-85998678D01*
X152415039Y-85981362D01*
X152367957Y-85972040D01*
X152348883Y-85971277D01*
X152312110Y-85973306D01*
X152279648Y-85979697D01*
X152235493Y-85995457D01*
X152014331Y-85995457D01*
X152014331Y-85829921D01*
X152016254Y-85791474D01*
X152021899Y-85755192D01*
X152031060Y-85721210D01*
X152043558Y-85689531D01*
X152078081Y-85633053D01*
X152124632Y-85586187D01*
X152182533Y-85549837D01*
X152250906Y-85525382D01*
X152328341Y-85514474D01*
X152347540Y-85514054D01*
X152424794Y-85521804D01*
G37*
G36*
X152698883Y-86069340D02*
G01*
X152698833Y-86068251D01*
X152698883Y-86067447D01*
X152698883Y-86069340D01*
G37*
D11*
X142380180Y-66877506D02*
X141665895Y-66877506D01*
X141665895Y-66877506D02*
X141523038Y-66925125D01*
X141523038Y-66925125D02*
X141427800Y-67020363D01*
X141427800Y-67020363D02*
X141380180Y-67163220D01*
X141380180Y-67163220D02*
X141380180Y-67258458D01*
X141380180Y-65925125D02*
X141380180Y-66401315D01*
X141380180Y-66401315D02*
X142380180Y-66401315D01*
X141475419Y-65020363D02*
X141427800Y-65067982D01*
X141427800Y-65067982D02*
X141380180Y-65210839D01*
X141380180Y-65210839D02*
X141380180Y-65306077D01*
X141380180Y-65306077D02*
X141427800Y-65448934D01*
X141427800Y-65448934D02*
X141523038Y-65544172D01*
X141523038Y-65544172D02*
X141618276Y-65591791D01*
X141618276Y-65591791D02*
X141808752Y-65639410D01*
X141808752Y-65639410D02*
X141951609Y-65639410D01*
X141951609Y-65639410D02*
X142142085Y-65591791D01*
X142142085Y-65591791D02*
X142237323Y-65544172D01*
X142237323Y-65544172D02*
X142332561Y-65448934D01*
X142332561Y-65448934D02*
X142380180Y-65306077D01*
X142380180Y-65306077D02*
X142380180Y-65210839D01*
X142380180Y-65210839D02*
X142332561Y-65067982D01*
X142332561Y-65067982D02*
X142284942Y-65020363D01*
X142380180Y-64306077D02*
X141665895Y-64306077D01*
X141665895Y-64306077D02*
X141523038Y-64353696D01*
X141523038Y-64353696D02*
X141427800Y-64448934D01*
X141427800Y-64448934D02*
X141380180Y-64591791D01*
X141380180Y-64591791D02*
X141380180Y-64687029D01*
X141380180Y-63353696D02*
X141380180Y-63829886D01*
X141380180Y-63829886D02*
X142380180Y-63829886D01*
X141475419Y-62448934D02*
X141427800Y-62496553D01*
X141427800Y-62496553D02*
X141380180Y-62639410D01*
X141380180Y-62639410D02*
X141380180Y-62734648D01*
X141380180Y-62734648D02*
X141427800Y-62877505D01*
X141427800Y-62877505D02*
X141523038Y-62972743D01*
X141523038Y-62972743D02*
X141618276Y-63020362D01*
X141618276Y-63020362D02*
X141808752Y-63067981D01*
X141808752Y-63067981D02*
X141951609Y-63067981D01*
X141951609Y-63067981D02*
X142142085Y-63020362D01*
X142142085Y-63020362D02*
X142237323Y-62972743D01*
X142237323Y-62972743D02*
X142332561Y-62877505D01*
X142332561Y-62877505D02*
X142380180Y-62734648D01*
X142380180Y-62734648D02*
X142380180Y-62639410D01*
X142380180Y-62639410D02*
X142332561Y-62496553D01*
X142332561Y-62496553D02*
X142284942Y-62448934D01*
X142380180Y-61734648D02*
X141665895Y-61734648D01*
X141665895Y-61734648D02*
X141523038Y-61782267D01*
X141523038Y-61782267D02*
X141427800Y-61877505D01*
X141427800Y-61877505D02*
X141380180Y-62020362D01*
X141380180Y-62020362D02*
X141380180Y-62115600D01*
X141380180Y-60782267D02*
X141380180Y-61258457D01*
X141380180Y-61258457D02*
X142380180Y-61258457D01*
X141475419Y-59877505D02*
X141427800Y-59925124D01*
X141427800Y-59925124D02*
X141380180Y-60067981D01*
X141380180Y-60067981D02*
X141380180Y-60163219D01*
X141380180Y-60163219D02*
X141427800Y-60306076D01*
X141427800Y-60306076D02*
X141523038Y-60401314D01*
X141523038Y-60401314D02*
X141618276Y-60448933D01*
X141618276Y-60448933D02*
X141808752Y-60496552D01*
X141808752Y-60496552D02*
X141951609Y-60496552D01*
X141951609Y-60496552D02*
X142142085Y-60448933D01*
X142142085Y-60448933D02*
X142237323Y-60401314D01*
X142237323Y-60401314D02*
X142332561Y-60306076D01*
X142332561Y-60306076D02*
X142380180Y-60163219D01*
X142380180Y-60163219D02*
X142380180Y-60067981D01*
X142380180Y-60067981D02*
X142332561Y-59925124D01*
X142332561Y-59925124D02*
X142284942Y-59877505D01*
X142380180Y-59163219D02*
X141665895Y-59163219D01*
X141665895Y-59163219D02*
X141523038Y-59210838D01*
X141523038Y-59210838D02*
X141427800Y-59306076D01*
X141427800Y-59306076D02*
X141380180Y-59448933D01*
X141380180Y-59448933D02*
X141380180Y-59544171D01*
X141380180Y-58210838D02*
X141380180Y-58687028D01*
X141380180Y-58687028D02*
X142380180Y-58687028D01*
X141475419Y-57306076D02*
X141427800Y-57353695D01*
X141427800Y-57353695D02*
X141380180Y-57496552D01*
X141380180Y-57496552D02*
X141380180Y-57591790D01*
X141380180Y-57591790D02*
X141427800Y-57734647D01*
X141427800Y-57734647D02*
X141523038Y-57829885D01*
X141523038Y-57829885D02*
X141618276Y-57877504D01*
X141618276Y-57877504D02*
X141808752Y-57925123D01*
X141808752Y-57925123D02*
X141951609Y-57925123D01*
X141951609Y-57925123D02*
X142142085Y-57877504D01*
X142142085Y-57877504D02*
X142237323Y-57829885D01*
X142237323Y-57829885D02*
X142332561Y-57734647D01*
X142332561Y-57734647D02*
X142380180Y-57591790D01*
X142380180Y-57591790D02*
X142380180Y-57496552D01*
X142380180Y-57496552D02*
X142332561Y-57353695D01*
X142332561Y-57353695D02*
X142284942Y-57306076D01*
D12*
X160243549Y-56116391D02*
X160243549Y-56749698D01*
X160243549Y-56749698D02*
X160206296Y-56824204D01*
X160206296Y-56824204D02*
X160169042Y-56861458D01*
X160169042Y-56861458D02*
X160094536Y-56898711D01*
X160094536Y-56898711D02*
X159945522Y-56898711D01*
X159945522Y-56898711D02*
X159871016Y-56861458D01*
X159871016Y-56861458D02*
X159833762Y-56824204D01*
X159833762Y-56824204D02*
X159796509Y-56749698D01*
X159796509Y-56749698D02*
X159796509Y-56116391D01*
X159014189Y-56898711D02*
X159461229Y-56898711D01*
X159237709Y-56898711D02*
X159237709Y-56116391D01*
X159237709Y-56116391D02*
X159312216Y-56228151D01*
X159312216Y-56228151D02*
X159386723Y-56302658D01*
X159386723Y-56302658D02*
X159461229Y-56339911D01*
D13*
%TO.C,G\u002A\u002A\u002A*%
G36*
X149712361Y-77873235D02*
G01*
X149758212Y-77894823D01*
X149806122Y-77925683D01*
X149854921Y-77964724D01*
X149903438Y-78010850D01*
X149950498Y-78062962D01*
X149994934Y-78119968D01*
X150035572Y-78180770D01*
X150071240Y-78244277D01*
X150100766Y-78309388D01*
X150120588Y-78359235D01*
X150162624Y-78323962D01*
X150195804Y-78297966D01*
X150245338Y-78263369D01*
X150299186Y-78229362D01*
X150352513Y-78198976D01*
X150400482Y-78175231D01*
X150451105Y-78155355D01*
X150507364Y-78138117D01*
X150564716Y-78124754D01*
X150620426Y-78115713D01*
X150671725Y-78111439D01*
X150715873Y-78112366D01*
X150750113Y-78118946D01*
X150768625Y-78126370D01*
X150805728Y-78150579D01*
X150832682Y-78182563D01*
X150848518Y-78220370D01*
X150852256Y-78262033D01*
X150842923Y-78305587D01*
X150839753Y-78314571D01*
X150835011Y-78330597D01*
X150834187Y-78338141D01*
X150838662Y-78338768D01*
X150853786Y-78338007D01*
X150875446Y-78335616D01*
X150880758Y-78335001D01*
X150924291Y-78337004D01*
X150963444Y-78350867D01*
X150996119Y-78375092D01*
X151020222Y-78408186D01*
X151033660Y-78448649D01*
X151034072Y-78451218D01*
X151035520Y-78495831D01*
X151028093Y-78548659D01*
X151012239Y-78607545D01*
X150988390Y-78670350D01*
X150968927Y-78711262D01*
X150923798Y-78787585D01*
X150868546Y-78862719D01*
X150805452Y-78933694D01*
X150743982Y-78990863D01*
X150736789Y-78997554D01*
X150689471Y-79037258D01*
X150725789Y-79059509D01*
X150734851Y-79065143D01*
X150813083Y-79120578D01*
X150885453Y-79184011D01*
X150950353Y-79253535D01*
X151006150Y-79327253D01*
X151051226Y-79403258D01*
X151083958Y-79479647D01*
X151095857Y-79525593D01*
X151098638Y-79573926D01*
X151089914Y-79615648D01*
X151070200Y-79649913D01*
X151040011Y-79675875D01*
X150999861Y-79692688D01*
X150950267Y-79699500D01*
X150914061Y-79700526D01*
X150923424Y-79718413D01*
X150940048Y-79754686D01*
X150949404Y-79790160D01*
X150948834Y-79822328D01*
X150938696Y-79854344D01*
X150936941Y-79858087D01*
X150912659Y-79892968D01*
X150897323Y-79905561D01*
X150878798Y-79920773D01*
X150838969Y-79938463D01*
X150808611Y-79945435D01*
X150740519Y-79952573D01*
X150665892Y-79950664D01*
X150587103Y-79940202D01*
X150506537Y-79921684D01*
X150426577Y-79895594D01*
X150349601Y-79862428D01*
X150277989Y-79822676D01*
X150262991Y-79813563D01*
X150245910Y-79804120D01*
X150236346Y-79800059D01*
X150234874Y-79800706D01*
X150228840Y-79810563D01*
X150221083Y-79829849D01*
X150212913Y-79855481D01*
X150199360Y-79897157D01*
X150175423Y-79957627D01*
X150146768Y-80019758D01*
X150115814Y-80078389D01*
X150084982Y-80128364D01*
X150072835Y-80145885D01*
X150056599Y-80167687D01*
X150040236Y-80186780D01*
X150021025Y-80206024D01*
X149996245Y-80228279D01*
X149963180Y-80256403D01*
X149941825Y-80274207D01*
X149935029Y-80279873D01*
X149910224Y-80299830D01*
X149891734Y-80313370D01*
X149877277Y-80322015D01*
X149864563Y-80327283D01*
X149851295Y-80330696D01*
X149817648Y-80335049D01*
X149788867Y-80331388D01*
X149758329Y-80318747D01*
X149731348Y-80300461D01*
X149702595Y-80267124D01*
X149684019Y-80225980D01*
X149674334Y-80192512D01*
X149638903Y-80223211D01*
X149637574Y-80224352D01*
X149597668Y-80251207D01*
X149557255Y-80264023D01*
X149516356Y-80262813D01*
X149474993Y-80247558D01*
X149449060Y-80227610D01*
X149422544Y-80194347D01*
X149398112Y-80150575D01*
X149376502Y-80098125D01*
X149358459Y-80038827D01*
X149344731Y-79974504D01*
X149336062Y-79906983D01*
X149334420Y-79870810D01*
X149334913Y-79836481D01*
X149471648Y-79836481D01*
X149474519Y-79918782D01*
X149485850Y-79993320D01*
X149505478Y-80058256D01*
X149508448Y-80065528D01*
X149519297Y-80090280D01*
X149529236Y-80110758D01*
X149540666Y-80132340D01*
X149571910Y-80100046D01*
X149572522Y-80099415D01*
X149590006Y-80081326D01*
X149614010Y-80056471D01*
X149641455Y-80028042D01*
X149669255Y-79999228D01*
X149676063Y-79992183D01*
X149699613Y-79968086D01*
X149719022Y-79948615D01*
X149732441Y-79935618D01*
X149738012Y-79930932D01*
X149738159Y-79931069D01*
X149741267Y-79939245D01*
X149747449Y-79958619D01*
X149756085Y-79987137D01*
X149766551Y-80022743D01*
X149778223Y-80063389D01*
X149785110Y-80087418D01*
X149797717Y-80129786D01*
X149807683Y-80160400D01*
X149815482Y-80180552D01*
X149821591Y-80191534D01*
X149826480Y-80194637D01*
X149827214Y-80194521D01*
X149839013Y-80188094D01*
X149857472Y-80173681D01*
X149880184Y-80153582D01*
X149904734Y-80130092D01*
X149928715Y-80105514D01*
X149949717Y-80082136D01*
X149965334Y-80062263D01*
X149998517Y-80009865D01*
X150034067Y-79941522D01*
X150063921Y-79870238D01*
X150086434Y-79800043D01*
X150099939Y-79734971D01*
X150102553Y-79711559D01*
X150103064Y-79630918D01*
X150091392Y-79545961D01*
X150067895Y-79458107D01*
X150032918Y-79368750D01*
X149986812Y-79279310D01*
X149982554Y-79272041D01*
X149966086Y-79245153D01*
X149950729Y-79221767D01*
X149939344Y-79206271D01*
X149937459Y-79204037D01*
X149925892Y-79192878D01*
X149914839Y-79191250D01*
X149897937Y-79197866D01*
X149874655Y-79209691D01*
X149825724Y-79238959D01*
X149773617Y-79274879D01*
X149721521Y-79314941D01*
X149697055Y-79335806D01*
X149672626Y-79356639D01*
X149630108Y-79397459D01*
X149597156Y-79434892D01*
X149564605Y-79480402D01*
X149531976Y-79538038D01*
X149507479Y-79599130D01*
X149489839Y-79666981D01*
X149477786Y-79744900D01*
X149477406Y-79748265D01*
X149471648Y-79836481D01*
X149334913Y-79836481D01*
X149335155Y-79819625D01*
X149338456Y-79763976D01*
X149343940Y-79708485D01*
X149351232Y-79657765D01*
X149359948Y-79616438D01*
X149360277Y-79615197D01*
X149366095Y-79591625D01*
X149369643Y-79574190D01*
X149370174Y-79566595D01*
X149364788Y-79565853D01*
X149348807Y-79566326D01*
X149326351Y-79568183D01*
X149309205Y-79569293D01*
X149277502Y-79569886D01*
X149240402Y-79569457D01*
X149202861Y-79568013D01*
X149190371Y-79567243D01*
X149114756Y-79558732D01*
X149041420Y-79544165D01*
X148971833Y-79524251D01*
X148907467Y-79499701D01*
X148849789Y-79471231D01*
X148800276Y-79439548D01*
X148760392Y-79405362D01*
X148731610Y-79369387D01*
X148715404Y-79332332D01*
X148710569Y-79295943D01*
X148716602Y-79261457D01*
X148734765Y-79228461D01*
X148765862Y-79194754D01*
X148805827Y-79157993D01*
X148774516Y-79142629D01*
X148767723Y-79139083D01*
X148733388Y-79112989D01*
X148708764Y-79079510D01*
X148694860Y-79041216D01*
X148693419Y-79014373D01*
X148828721Y-79014373D01*
X148832913Y-79017695D01*
X148847899Y-79026326D01*
X148871827Y-79039028D01*
X148902671Y-79054727D01*
X148938404Y-79072358D01*
X148943737Y-79074948D01*
X148989144Y-79096937D01*
X149023367Y-79113608D01*
X149047618Y-79125908D01*
X149063102Y-79134796D01*
X149071035Y-79141220D01*
X149072630Y-79146142D01*
X149069094Y-79150511D01*
X149061636Y-79155276D01*
X149051471Y-79161397D01*
X149051396Y-79161447D01*
X149036405Y-79171238D01*
X149013968Y-79186125D01*
X148986471Y-79204496D01*
X148956313Y-79224744D01*
X148925875Y-79245254D01*
X148897560Y-79264412D01*
X148873751Y-79280611D01*
X148856846Y-79292233D01*
X148849234Y-79297674D01*
X148848165Y-79299409D01*
X148852505Y-79308113D01*
X148866670Y-79320739D01*
X148888433Y-79335823D01*
X148915561Y-79351902D01*
X148945832Y-79367527D01*
X148977013Y-79381238D01*
X149024803Y-79397944D01*
X149103109Y-79417351D01*
X149184770Y-79429166D01*
X149266211Y-79433103D01*
X149343831Y-79428873D01*
X149414043Y-79416193D01*
X149425241Y-79413132D01*
X149503004Y-79384099D01*
X149580374Y-79341891D01*
X149656307Y-79287242D01*
X149729752Y-79220896D01*
X149789728Y-79154584D01*
X150035193Y-79154584D01*
X150035261Y-79161107D01*
X150047613Y-79226527D01*
X150077866Y-79337182D01*
X150118411Y-79440064D01*
X150168752Y-79533795D01*
X150179112Y-79549922D01*
X150217729Y-79600985D01*
X150261966Y-79645524D01*
X150313931Y-79685211D01*
X150375730Y-79721723D01*
X150449467Y-79756728D01*
X150487831Y-79772598D01*
X150535571Y-79789339D01*
X150582980Y-79801730D01*
X150636684Y-79811716D01*
X150641003Y-79812354D01*
X150667666Y-79814805D01*
X150698707Y-79815821D01*
X150731060Y-79815536D01*
X150761649Y-79814090D01*
X150787407Y-79811608D01*
X150805271Y-79808228D01*
X150812171Y-79804083D01*
X150812157Y-79803887D01*
X150808596Y-79795417D01*
X150799514Y-79776724D01*
X150785908Y-79749798D01*
X150768782Y-79716625D01*
X150749140Y-79679187D01*
X150747097Y-79675322D01*
X150727678Y-79638424D01*
X150710851Y-79606180D01*
X150697609Y-79580529D01*
X150688955Y-79563405D01*
X150685894Y-79556749D01*
X150686001Y-79556664D01*
X150694260Y-79556197D01*
X150714169Y-79556209D01*
X150743585Y-79556667D01*
X150780378Y-79557536D01*
X150822403Y-79558785D01*
X150827078Y-79558937D01*
X150868922Y-79560132D01*
X150905533Y-79560919D01*
X150934705Y-79561265D01*
X150954236Y-79561144D01*
X150961933Y-79560531D01*
X150962856Y-79556468D01*
X150960303Y-79541597D01*
X150953713Y-79519332D01*
X150944125Y-79493011D01*
X150932575Y-79465973D01*
X150915497Y-79433729D01*
X150879218Y-79380204D01*
X150833871Y-79325913D01*
X150781976Y-79273340D01*
X150726061Y-79224985D01*
X150668663Y-79183320D01*
X150612301Y-79150838D01*
X150566592Y-79131520D01*
X150489427Y-79110373D01*
X150404297Y-79099342D01*
X150312339Y-79098476D01*
X150214688Y-79107832D01*
X150112476Y-79127460D01*
X150094615Y-79131740D01*
X150066354Y-79138907D01*
X150048514Y-79144455D01*
X150038868Y-79149359D01*
X150037696Y-79151024D01*
X150035193Y-79154584D01*
X149789728Y-79154584D01*
X149799673Y-79143589D01*
X149840495Y-79093895D01*
X149826649Y-79073796D01*
X149813220Y-79057966D01*
X149789244Y-79034974D01*
X149758302Y-79008449D01*
X149722976Y-78980494D01*
X149685845Y-78953223D01*
X149649497Y-78928754D01*
X149622231Y-78912092D01*
X149542352Y-78871155D01*
X149462650Y-78841667D01*
X149384790Y-78824166D01*
X149310430Y-78819187D01*
X149249000Y-78823249D01*
X149173448Y-78835187D01*
X149098767Y-78853944D01*
X149027560Y-78878601D01*
X148962428Y-78908236D01*
X148905967Y-78941922D01*
X148860781Y-78978741D01*
X148845792Y-78993980D01*
X148833559Y-79007493D01*
X148828721Y-79014373D01*
X148693419Y-79014373D01*
X148692684Y-79000684D01*
X148703246Y-78960492D01*
X148707479Y-78951303D01*
X148715124Y-78937681D01*
X148725166Y-78924568D01*
X148739754Y-78909642D01*
X148761024Y-78890577D01*
X148791112Y-78865052D01*
X148831428Y-78832583D01*
X148874435Y-78802243D01*
X148917382Y-78777667D01*
X148964915Y-78756226D01*
X149021689Y-78735307D01*
X149053639Y-78724652D01*
X149094232Y-78712479D01*
X149131809Y-78703471D01*
X149172050Y-78696327D01*
X149220641Y-78689743D01*
X149240760Y-78686948D01*
X149266292Y-78682296D01*
X149283765Y-78677677D01*
X149290210Y-78673774D01*
X149288782Y-78667187D01*
X149283298Y-78650334D01*
X149275135Y-78628514D01*
X149271892Y-78620166D01*
X149248645Y-78549455D01*
X149231351Y-78476121D01*
X149219939Y-78401892D01*
X149215146Y-78338999D01*
X149350062Y-78338999D01*
X149360708Y-78427826D01*
X149381593Y-78517470D01*
X149412144Y-78604534D01*
X149440279Y-78661046D01*
X149487776Y-78729075D01*
X149547862Y-78792142D01*
X149620062Y-78849757D01*
X149703897Y-78901445D01*
X149727192Y-78913627D01*
X149762459Y-78930730D01*
X149798126Y-78946739D01*
X149831610Y-78960600D01*
X149860331Y-78971257D01*
X149881698Y-78977653D01*
X149893128Y-78978733D01*
X149898287Y-78974258D01*
X149908712Y-78958085D01*
X149910093Y-78955370D01*
X150036251Y-78955370D01*
X150036345Y-78980488D01*
X150037396Y-78999455D01*
X150039199Y-79008327D01*
X150043971Y-79010147D01*
X150060416Y-79013400D01*
X150085469Y-79017066D01*
X150116018Y-79020648D01*
X150159213Y-79024057D01*
X150242673Y-79024950D01*
X150326044Y-79018982D01*
X150406088Y-79006587D01*
X150479550Y-78988186D01*
X150543191Y-78964213D01*
X150543775Y-78963944D01*
X150576590Y-78945380D01*
X150614988Y-78918486D01*
X150655876Y-78885865D01*
X150696150Y-78850121D01*
X150732708Y-78813871D01*
X150762461Y-78779713D01*
X150812331Y-78710014D01*
X150851890Y-78640999D01*
X150879672Y-78574964D01*
X150895083Y-78513119D01*
X150897389Y-78499637D01*
X150899104Y-78487965D01*
X150898302Y-78479862D01*
X150893361Y-78475132D01*
X150882656Y-78473565D01*
X150864573Y-78474958D01*
X150837470Y-78479110D01*
X150799735Y-78485811D01*
X150749743Y-78494865D01*
X150713911Y-78501153D01*
X150678660Y-78507030D01*
X150650500Y-78511383D01*
X150631675Y-78513875D01*
X150624426Y-78514155D01*
X150624991Y-78510681D01*
X150629481Y-78495989D01*
X150637654Y-78471924D01*
X150648735Y-78440753D01*
X150661946Y-78404728D01*
X150669959Y-78383144D01*
X150683550Y-78346373D01*
X150695390Y-78314145D01*
X150704425Y-78289329D01*
X150709600Y-78274802D01*
X150717604Y-78251508D01*
X150693452Y-78248622D01*
X150687275Y-78248033D01*
X150648223Y-78248894D01*
X150601109Y-78255795D01*
X150549343Y-78267841D01*
X150496343Y-78284135D01*
X150445513Y-78303774D01*
X150400272Y-78325858D01*
X150370154Y-78343501D01*
X150323048Y-78374204D01*
X150278401Y-78406766D01*
X150239656Y-78438629D01*
X150210256Y-78467230D01*
X150197291Y-78482241D01*
X150154544Y-78541396D01*
X150117391Y-78607762D01*
X150088876Y-78676110D01*
X150083320Y-78693190D01*
X150069356Y-78743815D01*
X150056796Y-78799715D01*
X150046517Y-78856278D01*
X150039390Y-78908900D01*
X150036296Y-78952965D01*
X150036251Y-78955370D01*
X149910093Y-78955370D01*
X149921644Y-78932652D01*
X149936021Y-78900378D01*
X149950775Y-78863703D01*
X149964843Y-78825054D01*
X149977159Y-78786864D01*
X149988307Y-78746615D01*
X150007006Y-78652080D01*
X150013298Y-78563124D01*
X150007163Y-78478968D01*
X149988558Y-78398824D01*
X149957455Y-78321899D01*
X149928225Y-78266314D01*
X149881893Y-78191952D01*
X149832696Y-78129261D01*
X149779612Y-78076833D01*
X149760556Y-78061372D01*
X149734565Y-78042427D01*
X149708257Y-78025067D01*
X149684482Y-78011059D01*
X149666090Y-78002167D01*
X149655925Y-78000157D01*
X149655682Y-78000320D01*
X149652414Y-78009117D01*
X149647764Y-78029444D01*
X149642150Y-78059124D01*
X149635987Y-78095979D01*
X149629684Y-78137832D01*
X149628957Y-78142921D01*
X149622953Y-78184010D01*
X149617537Y-78219629D01*
X149613047Y-78247669D01*
X149609816Y-78266015D01*
X149608183Y-78272559D01*
X149608053Y-78272508D01*
X149601064Y-78267547D01*
X149584907Y-78255396D01*
X149561314Y-78237378D01*
X149532017Y-78214815D01*
X149498745Y-78189025D01*
X149495524Y-78186523D01*
X149462383Y-78160934D01*
X149433206Y-78138687D01*
X149409768Y-78121111D01*
X149393842Y-78109542D01*
X149387200Y-78105307D01*
X149382547Y-78109065D01*
X149375639Y-78124058D01*
X149368288Y-78147794D01*
X149361260Y-78177379D01*
X149355309Y-78209915D01*
X149351199Y-78242503D01*
X149350228Y-78254388D01*
X149350062Y-78338999D01*
X149215146Y-78338999D01*
X149214347Y-78328507D01*
X149214503Y-78257706D01*
X149220347Y-78191217D01*
X149231806Y-78130778D01*
X149248814Y-78078124D01*
X149271308Y-78034988D01*
X149299219Y-78003108D01*
X149327849Y-77983233D01*
X149366069Y-77969331D01*
X149405530Y-77969187D01*
X149446671Y-77982827D01*
X149489939Y-78010261D01*
X149505491Y-78022265D01*
X149514082Y-77983968D01*
X149528661Y-77939430D01*
X149551245Y-77904757D01*
X149582715Y-77879984D01*
X149624234Y-77863855D01*
X149631523Y-77862260D01*
X149669742Y-77862016D01*
X149712361Y-77873235D01*
G37*
G36*
X151765001Y-78910605D02*
G01*
X151773389Y-78912457D01*
X151783626Y-78916051D01*
X151797281Y-78921883D01*
X151815923Y-78930450D01*
X151840083Y-78942315D01*
X151863825Y-78955915D01*
X151884842Y-78970749D01*
X151905389Y-78988438D01*
X151927720Y-79010592D01*
X151939765Y-79023307D01*
X151954413Y-79039757D01*
X151966918Y-79055484D01*
X151979126Y-79072877D01*
X151992904Y-79094327D01*
X151998643Y-79103193D01*
X152006446Y-79114204D01*
X152012460Y-79121418D01*
X152015716Y-79123600D01*
X152018506Y-79121480D01*
X152025238Y-79115191D01*
X152033729Y-79106552D01*
X152036951Y-79103191D01*
X152065160Y-79076701D01*
X152095918Y-79052438D01*
X152128386Y-79030749D01*
X152161739Y-79011989D01*
X152195133Y-78996508D01*
X152227747Y-78984651D01*
X152258745Y-78976768D01*
X152287290Y-78973216D01*
X152312560Y-78974338D01*
X152333713Y-78980482D01*
X152349372Y-78989604D01*
X152364319Y-79004560D01*
X152373057Y-79023124D01*
X152375671Y-79045508D01*
X152372249Y-79071920D01*
X152370011Y-79081889D01*
X152389949Y-79077522D01*
X152414134Y-79074604D01*
X152435435Y-79077629D01*
X152454022Y-79087015D01*
X152470743Y-79103032D01*
X152473098Y-79106115D01*
X152481607Y-79124073D01*
X152485687Y-79146621D01*
X152485590Y-79172972D01*
X152481575Y-79202324D01*
X152473903Y-79233902D01*
X152462830Y-79266894D01*
X152448613Y-79300519D01*
X152431516Y-79333980D01*
X152411791Y-79366489D01*
X152389709Y-79397251D01*
X152365515Y-79425470D01*
X152346382Y-79445766D01*
X152372242Y-79457822D01*
X152391776Y-79467744D01*
X152418969Y-79483482D01*
X152446820Y-79501383D01*
X152472857Y-79519837D01*
X152494583Y-79537219D01*
X152515075Y-79556708D01*
X152535561Y-79579425D01*
X152554457Y-79603516D01*
X152570957Y-79627780D01*
X152584243Y-79651014D01*
X152593508Y-79672021D01*
X152597926Y-79689597D01*
X152598498Y-79699957D01*
X152595243Y-79722757D01*
X152586094Y-79742485D01*
X152571759Y-79758254D01*
X152552949Y-79769171D01*
X152530378Y-79774339D01*
X152525448Y-79774820D01*
X152516852Y-79776109D01*
X152513116Y-79777377D01*
X152513806Y-79779625D01*
X152517487Y-79786584D01*
X152523374Y-79796263D01*
X152524832Y-79798633D01*
X152533454Y-79819587D01*
X152535522Y-79841081D01*
X152531289Y-79861799D01*
X152520989Y-79880430D01*
X152504874Y-79895651D01*
X152503757Y-79896412D01*
X152483051Y-79906895D01*
X152456531Y-79915004D01*
X152425297Y-79920473D01*
X152390462Y-79923033D01*
X152366909Y-79922850D01*
X152321029Y-79918356D01*
X152273487Y-79908834D01*
X152226178Y-79894698D01*
X152185734Y-79878294D01*
X152181001Y-79876373D01*
X152151893Y-79862802D01*
X152149388Y-79884803D01*
X152148727Y-79890311D01*
X152139793Y-79939356D01*
X152125808Y-79987394D01*
X152107305Y-80033251D01*
X152084829Y-80075739D01*
X152058922Y-80113678D01*
X152030118Y-80145890D01*
X152011085Y-80161588D01*
X151988918Y-80173517D01*
X151967343Y-80178576D01*
X151946866Y-80176817D01*
X151927999Y-80168296D01*
X151911255Y-80153072D01*
X151897148Y-80131201D01*
X151888707Y-80114364D01*
X151882337Y-80122707D01*
X151868899Y-80138513D01*
X151854239Y-80150714D01*
X151838959Y-80157513D01*
X151821644Y-80159772D01*
X151819495Y-80159767D01*
X151797724Y-80155991D01*
X151788417Y-80151529D01*
X151777180Y-80146143D01*
X151760093Y-80131263D01*
X151750137Y-80118491D01*
X151731816Y-80087975D01*
X151716314Y-80052386D01*
X151703931Y-80012964D01*
X151694956Y-79970933D01*
X151689680Y-79927521D01*
X151689097Y-79907797D01*
X151760143Y-79907797D01*
X151761097Y-79929361D01*
X151763697Y-79955532D01*
X151768274Y-79980597D01*
X151775372Y-80008097D01*
X151776018Y-80010269D01*
X151780721Y-80023374D01*
X151787065Y-80038222D01*
X151794306Y-80053404D01*
X151801709Y-80067500D01*
X151808540Y-80079094D01*
X151814059Y-80086767D01*
X151817526Y-80089108D01*
X151817616Y-80089057D01*
X151820823Y-80085521D01*
X151827635Y-80077134D01*
X151837333Y-80064804D01*
X151849202Y-80049448D01*
X151862526Y-80031966D01*
X151863901Y-80030154D01*
X151877019Y-80012900D01*
X151888514Y-79997883D01*
X151897691Y-79986006D01*
X151903860Y-79978168D01*
X151906324Y-79975262D01*
X151906391Y-79975293D01*
X151908423Y-79979081D01*
X151912790Y-79988464D01*
X151919040Y-80002428D01*
X151926713Y-80019955D01*
X151935358Y-80040033D01*
X151936315Y-80042266D01*
X151944943Y-80062245D01*
X151952616Y-80079671D01*
X151958864Y-80093490D01*
X151963213Y-80102670D01*
X151965191Y-80106160D01*
X151967305Y-80105703D01*
X151973758Y-80101235D01*
X151982801Y-80093237D01*
X151993098Y-80082935D01*
X152003301Y-80071552D01*
X152014738Y-80056419D01*
X152031991Y-80027567D01*
X152047608Y-79994268D01*
X152060976Y-79958265D01*
X152071476Y-79921291D01*
X152078497Y-79885090D01*
X152081419Y-79851397D01*
X152080482Y-79825609D01*
X152073488Y-79784605D01*
X152059984Y-79742069D01*
X152040183Y-79698547D01*
X152014318Y-79654590D01*
X151982616Y-79610738D01*
X151976670Y-79603264D01*
X151967083Y-79591521D01*
X151960548Y-79584335D01*
X151956120Y-79580869D01*
X151955076Y-79580683D01*
X151952852Y-79580284D01*
X151949794Y-79581750D01*
X151921678Y-79601946D01*
X151876186Y-79640512D01*
X151836617Y-79682224D01*
X151803509Y-79726541D01*
X151798187Y-79734962D01*
X151782610Y-79764378D01*
X151771345Y-79795010D01*
X151764060Y-79828219D01*
X151760440Y-79865361D01*
X151760143Y-79907797D01*
X151689097Y-79907797D01*
X151688393Y-79883964D01*
X151691391Y-79841485D01*
X151692389Y-79832417D01*
X151693085Y-79822295D01*
X151692900Y-79816894D01*
X151692270Y-79816342D01*
X151686299Y-79815666D01*
X151675509Y-79816248D01*
X151661636Y-79818032D01*
X151639024Y-79820800D01*
X151605264Y-79822808D01*
X151569693Y-79822957D01*
X151535264Y-79821255D01*
X151504943Y-79817708D01*
X151494018Y-79815838D01*
X151480178Y-79812973D01*
X151467582Y-79809457D01*
X151454295Y-79804637D01*
X151438365Y-79797848D01*
X151417848Y-79788450D01*
X151404766Y-79782297D01*
X151400602Y-79780342D01*
X151385749Y-79773038D01*
X151375308Y-79767296D01*
X151368057Y-79762389D01*
X151362781Y-79757551D01*
X151358256Y-79752054D01*
X151348813Y-79737156D01*
X151344213Y-79722787D01*
X151343461Y-79705619D01*
X151346149Y-79688891D01*
X151355538Y-79668017D01*
X151370845Y-79650221D01*
X151384484Y-79638307D01*
X151362237Y-79628355D01*
X151361405Y-79627982D01*
X151339982Y-79615076D01*
X151325067Y-79598850D01*
X151316649Y-79579313D01*
X151315217Y-79562100D01*
X151383470Y-79562100D01*
X151405550Y-79569727D01*
X151405983Y-79569876D01*
X151418347Y-79574141D01*
X151435333Y-79579988D01*
X151454759Y-79586675D01*
X151474445Y-79593443D01*
X151479259Y-79595102D01*
X151495788Y-79600906D01*
X151509230Y-79605774D01*
X151518303Y-79609238D01*
X151521733Y-79610837D01*
X151521701Y-79610935D01*
X151518533Y-79614195D01*
X151510763Y-79621366D01*
X151499222Y-79631699D01*
X151484743Y-79644456D01*
X151468155Y-79658885D01*
X151458346Y-79667411D01*
X151441154Y-79682659D01*
X151428915Y-79694083D01*
X151421133Y-79702185D01*
X151417300Y-79707476D01*
X151416913Y-79710465D01*
X151417132Y-79710785D01*
X151422751Y-79714931D01*
X151433599Y-79720462D01*
X151448059Y-79726747D01*
X151464524Y-79733151D01*
X151481373Y-79739056D01*
X151497002Y-79743815D01*
X151509798Y-79746806D01*
X151541781Y-79750930D01*
X151581799Y-79752662D01*
X151621945Y-79751068D01*
X151659966Y-79746253D01*
X151693595Y-79738315D01*
X151705203Y-79734406D01*
X151743314Y-79716927D01*
X151780776Y-79692761D01*
X151817017Y-79662384D01*
X151851430Y-79626274D01*
X151883448Y-79584890D01*
X151885937Y-79581289D01*
X151894989Y-79567616D01*
X151902634Y-79555246D01*
X151905487Y-79550033D01*
X152022647Y-79550033D01*
X152022837Y-79552684D01*
X152024916Y-79561146D01*
X152028696Y-79573760D01*
X152033717Y-79588939D01*
X152041604Y-79610042D01*
X152059522Y-79649563D01*
X152080651Y-79687540D01*
X152104080Y-79722531D01*
X152128891Y-79753105D01*
X152154172Y-79777825D01*
X152154427Y-79778040D01*
X152170385Y-79789422D01*
X152191495Y-79801605D01*
X152215849Y-79813705D01*
X152241540Y-79824830D01*
X152266658Y-79834092D01*
X152289288Y-79840607D01*
X152333087Y-79848789D01*
X152374301Y-79852264D01*
X152411519Y-79850845D01*
X152444047Y-79844519D01*
X152450908Y-79842642D01*
X152456784Y-79840888D01*
X152460427Y-79838729D01*
X152461570Y-79835361D01*
X152459956Y-79829975D01*
X152455325Y-79821760D01*
X152447413Y-79809900D01*
X152435963Y-79793592D01*
X152420715Y-79772025D01*
X152409879Y-79756520D01*
X152399363Y-79741202D01*
X152391125Y-79728893D01*
X152385815Y-79720568D01*
X152384090Y-79717208D01*
X152385850Y-79716716D01*
X152393763Y-79715603D01*
X152406897Y-79714168D01*
X152424018Y-79712540D01*
X152443896Y-79710845D01*
X152455828Y-79709880D01*
X152476139Y-79708208D01*
X152493926Y-79706707D01*
X152507607Y-79705510D01*
X152515589Y-79704756D01*
X152528322Y-79703408D01*
X152524377Y-79691394D01*
X152523296Y-79688354D01*
X152514311Y-79670141D01*
X152500708Y-79649455D01*
X152483655Y-79627714D01*
X152464334Y-79606321D01*
X152443912Y-79586684D01*
X152423562Y-79570219D01*
X152408630Y-79559904D01*
X152383815Y-79544453D01*
X152358661Y-79530569D01*
X152335136Y-79519315D01*
X152315196Y-79511743D01*
X152305276Y-79508934D01*
X152268010Y-79501789D01*
X152228574Y-79498867D01*
X152190101Y-79500445D01*
X152180833Y-79501581D01*
X152153912Y-79506127D01*
X152124814Y-79512489D01*
X152095898Y-79520071D01*
X152069538Y-79528278D01*
X152048095Y-79536504D01*
X152046951Y-79537008D01*
X152035135Y-79542573D01*
X152026430Y-79547237D01*
X152022647Y-79550033D01*
X151905487Y-79550033D01*
X151907432Y-79546478D01*
X151908073Y-79545096D01*
X151910789Y-79537196D01*
X151909128Y-79531631D01*
X151902294Y-79525117D01*
X151891608Y-79516747D01*
X151867066Y-79500122D01*
X151838693Y-79483458D01*
X151808366Y-79467718D01*
X151793160Y-79460772D01*
X151777976Y-79453838D01*
X151749398Y-79442772D01*
X151724516Y-79435472D01*
X151695926Y-79430132D01*
X151661597Y-79427421D01*
X151627426Y-79429301D01*
X151591579Y-79435898D01*
X151552214Y-79447339D01*
X151550549Y-79447900D01*
X151507714Y-79464570D01*
X151469563Y-79484006D01*
X151436931Y-79505723D01*
X151410646Y-79529242D01*
X151407868Y-79532237D01*
X151398595Y-79542790D01*
X151391131Y-79551972D01*
X151383470Y-79562100D01*
X151315217Y-79562100D01*
X151314749Y-79556469D01*
X151318448Y-79539868D01*
X151328298Y-79520064D01*
X151343558Y-79498933D01*
X151363517Y-79477225D01*
X151387497Y-79455697D01*
X151414789Y-79435094D01*
X151444699Y-79416170D01*
X151461384Y-79407451D01*
X151485663Y-79396551D01*
X151512612Y-79385878D01*
X151539965Y-79376271D01*
X151565465Y-79368562D01*
X151586852Y-79363588D01*
X151587510Y-79363469D01*
X151599899Y-79361031D01*
X151608891Y-79358874D01*
X151612588Y-79357455D01*
X151611753Y-79354753D01*
X151608017Y-79347325D01*
X151602212Y-79337156D01*
X151597920Y-79329320D01*
X151590673Y-79314510D01*
X151582724Y-79296936D01*
X151575157Y-79278928D01*
X151572774Y-79272874D01*
X151560171Y-79235371D01*
X151550922Y-79197617D01*
X151545017Y-79160454D01*
X151542438Y-79124728D01*
X151542682Y-79113763D01*
X151613149Y-79113763D01*
X151613543Y-79131472D01*
X151616170Y-79157658D01*
X151624231Y-79198819D01*
X151636607Y-79239894D01*
X151652645Y-79279135D01*
X151671695Y-79314781D01*
X151693096Y-79345077D01*
X151696999Y-79349682D01*
X151727765Y-79379946D01*
X151764655Y-79407128D01*
X151807092Y-79430901D01*
X151854490Y-79450931D01*
X151906277Y-79466889D01*
X151938664Y-79475207D01*
X151945094Y-79464270D01*
X151949603Y-79454461D01*
X151955165Y-79438112D01*
X151960868Y-79417703D01*
X151964457Y-79402585D01*
X151998405Y-79402585D01*
X151998699Y-79422912D01*
X151999521Y-79441732D01*
X152000810Y-79457607D01*
X152002494Y-79469081D01*
X152004493Y-79474706D01*
X152007738Y-79476150D01*
X152017645Y-79477508D01*
X152032476Y-79478017D01*
X152050843Y-79477698D01*
X152071366Y-79476593D01*
X152092668Y-79474728D01*
X152113369Y-79472141D01*
X152134778Y-79468550D01*
X152183436Y-79456589D01*
X152226740Y-79440012D01*
X152265040Y-79418627D01*
X152298718Y-79392248D01*
X152328129Y-79360693D01*
X152347901Y-79334706D01*
X152372761Y-79296536D01*
X152391491Y-79259577D01*
X152404532Y-79223045D01*
X152407627Y-79210666D01*
X152410844Y-79194260D01*
X152413247Y-79178043D01*
X152414620Y-79163768D01*
X152414768Y-79153147D01*
X152413483Y-79147913D01*
X152413351Y-79147838D01*
X152408488Y-79148228D01*
X152397891Y-79150503D01*
X152382672Y-79154381D01*
X152363950Y-79159572D01*
X152342843Y-79165803D01*
X152340286Y-79166577D01*
X152319605Y-79172775D01*
X152301631Y-79178052D01*
X152287432Y-79182097D01*
X152278079Y-79184602D01*
X152274639Y-79185273D01*
X152274634Y-79185201D01*
X152275436Y-79180814D01*
X152277608Y-79170533D01*
X152280916Y-79155456D01*
X152285109Y-79136693D01*
X152289951Y-79115353D01*
X152290422Y-79113282D01*
X152295203Y-79092047D01*
X152299273Y-79073409D01*
X152302403Y-79058506D01*
X152304353Y-79048457D01*
X152304890Y-79044396D01*
X152302099Y-79043028D01*
X152293516Y-79043068D01*
X152280714Y-79044820D01*
X152265229Y-79048007D01*
X152248591Y-79052355D01*
X152232331Y-79057577D01*
X152226520Y-79059730D01*
X152186615Y-79078242D01*
X152147100Y-79102779D01*
X152109448Y-79132316D01*
X152075136Y-79165842D01*
X152054685Y-79191517D01*
X152033069Y-79228844D01*
X152016553Y-79271013D01*
X152005266Y-79317693D01*
X151999334Y-79368557D01*
X151998714Y-79382212D01*
X151998405Y-79402585D01*
X151964457Y-79402585D01*
X151966278Y-79394916D01*
X151970971Y-79371427D01*
X151974514Y-79348923D01*
X151976373Y-79332414D01*
X151978112Y-79285779D01*
X151974494Y-79241747D01*
X151965634Y-79201209D01*
X151951640Y-79165081D01*
X151936231Y-79137027D01*
X151914002Y-79104048D01*
X151888755Y-79072980D01*
X151861491Y-79044845D01*
X151833214Y-79020665D01*
X151804936Y-79001464D01*
X151777659Y-78988260D01*
X151767182Y-78984545D01*
X151758129Y-78981753D01*
X151753823Y-78980985D01*
X151753177Y-78983690D01*
X151752404Y-78992646D01*
X151751679Y-79006714D01*
X151751058Y-79024698D01*
X151750604Y-79045410D01*
X151750553Y-79048492D01*
X151750168Y-79074717D01*
X151749838Y-79094501D01*
X151749366Y-79108633D01*
X151748580Y-79117884D01*
X151747297Y-79123035D01*
X151745326Y-79124865D01*
X151742493Y-79124161D01*
X151738608Y-79121695D01*
X151733490Y-79118250D01*
X151733449Y-79118222D01*
X151725542Y-79113312D01*
X151713600Y-79106011D01*
X151698899Y-79097091D01*
X151682735Y-79087331D01*
X151666382Y-79077496D01*
X151651133Y-79068361D01*
X151638264Y-79060701D01*
X151629076Y-79055290D01*
X151624842Y-79052897D01*
X151623788Y-79052777D01*
X151620639Y-79056736D01*
X151617804Y-79066183D01*
X151615478Y-79079749D01*
X151613860Y-79096066D01*
X151613149Y-79113763D01*
X151542682Y-79113763D01*
X151543182Y-79091295D01*
X151547230Y-79061000D01*
X151554576Y-79034696D01*
X151565203Y-79013234D01*
X151579101Y-78997452D01*
X151595191Y-78987179D01*
X151612761Y-78982445D01*
X151632299Y-78983750D01*
X151655019Y-78991000D01*
X151681120Y-79001755D01*
X151681480Y-78983622D01*
X151681660Y-78979645D01*
X151686412Y-78957730D01*
X151696773Y-78938773D01*
X151711765Y-78923808D01*
X151730383Y-78913876D01*
X151751644Y-78910020D01*
X151756903Y-78909997D01*
X151765001Y-78910605D01*
G37*
G36*
X148778313Y-79888404D02*
G01*
X148798735Y-79893882D01*
X148815585Y-79905590D01*
X148829040Y-79923668D01*
X148839283Y-79948253D01*
X148842329Y-79958005D01*
X148857413Y-79944254D01*
X148876898Y-79929634D01*
X148896858Y-79921604D01*
X148917648Y-79920439D01*
X148940138Y-79925950D01*
X148943719Y-79927442D01*
X148960067Y-79938739D01*
X148974874Y-79956227D01*
X148987966Y-79979095D01*
X148999165Y-80006523D01*
X149008308Y-80037706D01*
X149015216Y-80071815D01*
X149019716Y-80108044D01*
X149021640Y-80145570D01*
X149020812Y-80183586D01*
X149017069Y-80221268D01*
X149010227Y-80257803D01*
X149003805Y-80284946D01*
X149032226Y-80282458D01*
X149054107Y-80281283D01*
X149085525Y-80281316D01*
X149118595Y-80282894D01*
X149150371Y-80285856D01*
X149177877Y-80290046D01*
X149205368Y-80296679D01*
X149234467Y-80306110D01*
X149262878Y-80317525D01*
X149289300Y-80330288D01*
X149312422Y-80343766D01*
X149330949Y-80357326D01*
X149343564Y-80370339D01*
X149349239Y-80379024D01*
X149357820Y-80400397D01*
X149359760Y-80422056D01*
X149355232Y-80442881D01*
X149344399Y-80461739D01*
X149327436Y-80477502D01*
X149323407Y-80480383D01*
X149316608Y-80485797D01*
X149314006Y-80488763D01*
X149315727Y-80490364D01*
X149322395Y-80494551D01*
X149332333Y-80499991D01*
X149334780Y-80501313D01*
X149352724Y-80515148D01*
X149365262Y-80532729D01*
X149371955Y-80552788D01*
X149372351Y-80574072D01*
X149366006Y-80595313D01*
X149365418Y-80596529D01*
X149352728Y-80615961D01*
X149333815Y-80636243D01*
X149309500Y-80656597D01*
X149280613Y-80676231D01*
X149260124Y-80687850D01*
X149218143Y-80706898D01*
X149172209Y-80722422D01*
X149124171Y-80733834D01*
X149080943Y-80739850D01*
X149075884Y-80740554D01*
X149043890Y-80743355D01*
X149052721Y-80763661D01*
X149054903Y-80768761D01*
X149071688Y-80815702D01*
X149083595Y-80864297D01*
X149090500Y-80913261D01*
X149092280Y-80961296D01*
X149088814Y-81007105D01*
X149079974Y-81049403D01*
X149071339Y-81072515D01*
X149058107Y-81093930D01*
X149041952Y-81109099D01*
X149023339Y-81117813D01*
X149002739Y-81119868D01*
X148980628Y-81115055D01*
X148957474Y-81103168D01*
X148941746Y-81092807D01*
X148940401Y-81103218D01*
X148936666Y-81123624D01*
X148930070Y-81141520D01*
X148920237Y-81155048D01*
X148906370Y-81165663D01*
X148904507Y-81166733D01*
X148883765Y-81174349D01*
X148873475Y-81175138D01*
X148861050Y-81176092D01*
X148838813Y-81171748D01*
X148823804Y-81165666D01*
X148792680Y-81148398D01*
X148761459Y-81125329D01*
X148731025Y-81097380D01*
X148702237Y-81065468D01*
X148675962Y-81030510D01*
X148653069Y-80993432D01*
X148634425Y-80955144D01*
X148630756Y-80946792D01*
X148626297Y-80937679D01*
X148623437Y-80933094D01*
X148622615Y-80932931D01*
X148617106Y-80935331D01*
X148608052Y-80941230D01*
X148596931Y-80949711D01*
X148578731Y-80963415D01*
X148550499Y-80982033D01*
X148519768Y-80999948D01*
X148489100Y-81015688D01*
X148461068Y-81027778D01*
X148450671Y-81031620D01*
X148437253Y-81036059D01*
X148424587Y-81039312D01*
X148410670Y-81041781D01*
X148393480Y-81043868D01*
X148371012Y-81045986D01*
X148356607Y-81047199D01*
X148352023Y-81047587D01*
X148335508Y-81048689D01*
X148323595Y-81048936D01*
X148314862Y-81048312D01*
X148307874Y-81046761D01*
X148301207Y-81044262D01*
X148285579Y-81036082D01*
X148274412Y-81025938D01*
X148265176Y-81011447D01*
X148259140Y-80995616D01*
X148256834Y-80972844D01*
X148261192Y-80949778D01*
X148267047Y-80932640D01*
X148242804Y-80935147D01*
X148241897Y-80935238D01*
X148216892Y-80934773D01*
X148195861Y-80928178D01*
X148178803Y-80915468D01*
X148165736Y-80896635D01*
X148160639Y-80880408D01*
X148159816Y-80867151D01*
X148228066Y-80867151D01*
X148251001Y-80862716D01*
X148251450Y-80862628D01*
X148264290Y-80860140D01*
X148281924Y-80856711D01*
X148302091Y-80852787D01*
X148322523Y-80848807D01*
X148327522Y-80847837D01*
X148344739Y-80844598D01*
X148358813Y-80842093D01*
X148368403Y-80840556D01*
X148372173Y-80840227D01*
X148372195Y-80840328D01*
X148371080Y-80844735D01*
X148367937Y-80854830D01*
X148363109Y-80869549D01*
X148356948Y-80887837D01*
X148349798Y-80908626D01*
X148345565Y-80920915D01*
X148338301Y-80942717D01*
X148333413Y-80958729D01*
X148330726Y-80969637D01*
X148330051Y-80976135D01*
X148331210Y-80978917D01*
X148331560Y-80979085D01*
X148338500Y-80979866D01*
X148350659Y-80979231D01*
X148366324Y-80977445D01*
X148383786Y-80974758D01*
X148401330Y-80971448D01*
X148417244Y-80967755D01*
X148429821Y-80963947D01*
X148459582Y-80951527D01*
X148495104Y-80933018D01*
X148529075Y-80911564D01*
X148559594Y-80888384D01*
X148584750Y-80864696D01*
X148592847Y-80855506D01*
X148617112Y-80821312D01*
X148623179Y-80809496D01*
X148673652Y-80809496D01*
X148674870Y-80842759D01*
X148680430Y-80874920D01*
X148690726Y-80907321D01*
X148706161Y-80941298D01*
X148727122Y-80978197D01*
X148738730Y-80996393D01*
X148754069Y-81017760D01*
X148770564Y-81037177D01*
X148790461Y-81057445D01*
X148792107Y-81059003D01*
X148802732Y-81068000D01*
X148815650Y-81077687D01*
X148829511Y-81087215D01*
X148842970Y-81095719D01*
X148854684Y-81102346D01*
X148863299Y-81106232D01*
X148867472Y-81106525D01*
X148867526Y-81106436D01*
X148868535Y-81101770D01*
X148870241Y-81091101D01*
X148872475Y-81075574D01*
X148875074Y-81056339D01*
X148877873Y-81034538D01*
X148878158Y-81032281D01*
X148880891Y-81010780D01*
X148883338Y-80992027D01*
X148885347Y-80977153D01*
X148886770Y-80967281D01*
X148887451Y-80963532D01*
X148887524Y-80963526D01*
X148891178Y-80965791D01*
X148899652Y-80971733D01*
X148912045Y-80980702D01*
X148927455Y-80992044D01*
X148944980Y-81005109D01*
X148946926Y-81006564D01*
X148964388Y-81019553D01*
X148979746Y-81030807D01*
X148992067Y-81039651D01*
X149000423Y-81045427D01*
X149003881Y-81047460D01*
X149005482Y-81046007D01*
X149008837Y-81038912D01*
X149012669Y-81027463D01*
X149016436Y-81013393D01*
X149019580Y-80998434D01*
X149021919Y-80979609D01*
X149022435Y-80945998D01*
X149019310Y-80909350D01*
X149012885Y-80871487D01*
X149003492Y-80834216D01*
X148991472Y-80799355D01*
X148977155Y-80768714D01*
X148963450Y-80746851D01*
X148936891Y-80714837D01*
X148903928Y-80684752D01*
X148865019Y-80656961D01*
X148820641Y-80631826D01*
X148771259Y-80609699D01*
X148762374Y-80606200D01*
X148748199Y-80600825D01*
X148738947Y-80597867D01*
X148733379Y-80597080D01*
X148732382Y-80597441D01*
X148730256Y-80598208D01*
X148728341Y-80601006D01*
X148714090Y-80632555D01*
X148693976Y-80688699D01*
X148680564Y-80744608D01*
X148674051Y-80799541D01*
X148673652Y-80809496D01*
X148623179Y-80809496D01*
X148637474Y-80781653D01*
X148653670Y-80737227D01*
X148665417Y-80688746D01*
X148672454Y-80636899D01*
X148672809Y-80632536D01*
X148673812Y-80616169D01*
X148674247Y-80601633D01*
X148674018Y-80591640D01*
X148673883Y-80590124D01*
X148672285Y-80581924D01*
X148668064Y-80577934D01*
X148658890Y-80575711D01*
X148645449Y-80573805D01*
X148615883Y-80571678D01*
X148582979Y-80571433D01*
X148548845Y-80572965D01*
X148532203Y-80574553D01*
X148515587Y-80576139D01*
X148485304Y-80580845D01*
X148460107Y-80586965D01*
X148432676Y-80596635D01*
X148401592Y-80611452D01*
X148372939Y-80630166D01*
X148345192Y-80653803D01*
X148316822Y-80683393D01*
X148315661Y-80684711D01*
X148286899Y-80720566D01*
X148263577Y-80756473D01*
X148246176Y-80791596D01*
X148235171Y-80825107D01*
X148234263Y-80829089D01*
X148231509Y-80842865D01*
X148229635Y-80854549D01*
X148228066Y-80867151D01*
X148159816Y-80867151D01*
X148159268Y-80858332D01*
X148161915Y-80832403D01*
X148168348Y-80803624D01*
X148178351Y-80772989D01*
X148191685Y-80741501D01*
X148208127Y-80710157D01*
X148218217Y-80694264D01*
X148233793Y-80672684D01*
X148251794Y-80649967D01*
X148270679Y-80627970D01*
X148288908Y-80608545D01*
X148304944Y-80593543D01*
X148305454Y-80593111D01*
X148314964Y-80584806D01*
X148321673Y-80578441D01*
X148324165Y-80575363D01*
X148322092Y-80573441D01*
X148315142Y-80568877D01*
X148305028Y-80562972D01*
X148297395Y-80558331D01*
X148283713Y-80549129D01*
X148268042Y-80537885D01*
X148252485Y-80526074D01*
X148247394Y-80522022D01*
X148217729Y-80495845D01*
X148190841Y-80467772D01*
X148167145Y-80438541D01*
X148147051Y-80408892D01*
X148130978Y-80379565D01*
X148119336Y-80351306D01*
X148112545Y-80324852D01*
X148111654Y-80310908D01*
X148180777Y-80310908D01*
X148183046Y-80320507D01*
X148187815Y-80333419D01*
X148194572Y-80348358D01*
X148202804Y-80364040D01*
X148212000Y-80379178D01*
X148227368Y-80400543D01*
X148254930Y-80432159D01*
X148286185Y-80461543D01*
X148319695Y-80487508D01*
X148354015Y-80508854D01*
X148387698Y-80524391D01*
X148393380Y-80526427D01*
X148435156Y-80537253D01*
X148480694Y-80542349D01*
X148529332Y-80541718D01*
X148566360Y-80537112D01*
X148775576Y-80537112D01*
X148777064Y-80539313D01*
X148783097Y-80545602D01*
X148792677Y-80554635D01*
X148804615Y-80565271D01*
X148821997Y-80579603D01*
X148857275Y-80604869D01*
X148894562Y-80627194D01*
X148932348Y-80645783D01*
X148969122Y-80659855D01*
X149003375Y-80668623D01*
X149003704Y-80668681D01*
X149023215Y-80670560D01*
X149047588Y-80670556D01*
X149074730Y-80668857D01*
X149102541Y-80665647D01*
X149128925Y-80661109D01*
X149151780Y-80655436D01*
X149193803Y-80640622D01*
X149231232Y-80623025D01*
X149262754Y-80603187D01*
X149287762Y-80581444D01*
X149292764Y-80576389D01*
X149296977Y-80571930D01*
X149299052Y-80568241D01*
X149298357Y-80564752D01*
X149294266Y-80560894D01*
X149286149Y-80556095D01*
X149273367Y-80549780D01*
X149255297Y-80541382D01*
X149231308Y-80530329D01*
X149214172Y-80522319D01*
X149197406Y-80514312D01*
X149184116Y-80507770D01*
X149175355Y-80503215D01*
X149172182Y-80501169D01*
X149173460Y-80499863D01*
X149179756Y-80494942D01*
X149190413Y-80487132D01*
X149204427Y-80477162D01*
X149220794Y-80465754D01*
X149230644Y-80458954D01*
X149247398Y-80447349D01*
X149262052Y-80437154D01*
X149273301Y-80429279D01*
X149279837Y-80424635D01*
X149290191Y-80417101D01*
X149280767Y-80408669D01*
X149278311Y-80406577D01*
X149261423Y-80395297D01*
X149239299Y-80384183D01*
X149213660Y-80373881D01*
X149186232Y-80365015D01*
X149158727Y-80358220D01*
X149132870Y-80354135D01*
X149114782Y-80352669D01*
X149085566Y-80351696D01*
X149056841Y-80352249D01*
X149030840Y-80354265D01*
X149009785Y-80357677D01*
X148999790Y-80360204D01*
X148963944Y-80372649D01*
X148928330Y-80389838D01*
X148895801Y-80410440D01*
X148888343Y-80416059D01*
X148867300Y-80433455D01*
X148845283Y-80453515D01*
X148824032Y-80474539D01*
X148805307Y-80494825D01*
X148790850Y-80512671D01*
X148790111Y-80513680D01*
X148782661Y-80524407D01*
X148777454Y-80532799D01*
X148775576Y-80537112D01*
X148566360Y-80537112D01*
X148580396Y-80535366D01*
X148633224Y-80523292D01*
X148665431Y-80514303D01*
X148665531Y-80501615D01*
X148664531Y-80490866D01*
X148661174Y-80473925D01*
X148655908Y-80453400D01*
X148649200Y-80430960D01*
X148641519Y-80408273D01*
X148633336Y-80387012D01*
X148626692Y-80371785D01*
X148604880Y-80330529D01*
X148579731Y-80294204D01*
X148551789Y-80263529D01*
X148539629Y-80253743D01*
X148624006Y-80253743D01*
X148630788Y-80298520D01*
X148644353Y-80344589D01*
X148664647Y-80391606D01*
X148670939Y-80403741D01*
X148680858Y-80421540D01*
X148691275Y-80438996D01*
X148701398Y-80454883D01*
X148710451Y-80467986D01*
X148717646Y-80477082D01*
X148722190Y-80480953D01*
X148725722Y-80480582D01*
X148734982Y-80476805D01*
X148748079Y-80469829D01*
X148763826Y-80460370D01*
X148781047Y-80449151D01*
X148798563Y-80436885D01*
X148815197Y-80424295D01*
X148831943Y-80410480D01*
X148868101Y-80375792D01*
X148897315Y-80339784D01*
X148919791Y-80302114D01*
X148935767Y-80262431D01*
X148945461Y-80220397D01*
X148949590Y-80188007D01*
X148952033Y-80142520D01*
X148949776Y-80101148D01*
X148942804Y-80062989D01*
X148939296Y-80050721D01*
X148933877Y-80034904D01*
X148927850Y-80019660D01*
X148921901Y-80006610D01*
X148916719Y-79997338D01*
X148912990Y-79993447D01*
X148912838Y-79993448D01*
X148908821Y-79996219D01*
X148900782Y-80003488D01*
X148889540Y-80014456D01*
X148875923Y-80028312D01*
X148860758Y-80044260D01*
X148858932Y-80046210D01*
X148844119Y-80061918D01*
X148831191Y-80075475D01*
X148820918Y-80086078D01*
X148814071Y-80092924D01*
X148811426Y-80095225D01*
X148811386Y-80095165D01*
X148809887Y-80090965D01*
X148806628Y-80080975D01*
X148801954Y-80066264D01*
X148796204Y-80047918D01*
X148789727Y-80027016D01*
X148789100Y-80024987D01*
X148782622Y-80004206D01*
X148776828Y-79986031D01*
X148772087Y-79971558D01*
X148768752Y-79961882D01*
X148767187Y-79958096D01*
X148764086Y-79958308D01*
X148756672Y-79962633D01*
X148746462Y-79970551D01*
X148734644Y-79981054D01*
X148722410Y-79993138D01*
X148710939Y-80005791D01*
X148706983Y-80010561D01*
X148681680Y-80046545D01*
X148659727Y-80087552D01*
X148641888Y-80131959D01*
X148628937Y-80178149D01*
X148624063Y-80210609D01*
X148624006Y-80253743D01*
X148539629Y-80253743D01*
X148521606Y-80239238D01*
X148494234Y-80222647D01*
X148458493Y-80205200D01*
X148421094Y-80190918D01*
X148383416Y-80180185D01*
X148346838Y-80173382D01*
X148312747Y-80170892D01*
X148282523Y-80173096D01*
X148271592Y-80175117D01*
X148262356Y-80177226D01*
X148258244Y-80178714D01*
X148259036Y-80181380D01*
X148262845Y-80189522D01*
X148269250Y-80202067D01*
X148277705Y-80217952D01*
X148287668Y-80236116D01*
X148289165Y-80238811D01*
X148301944Y-80261716D01*
X148311550Y-80279014D01*
X148318206Y-80291490D01*
X148322152Y-80299893D01*
X148323616Y-80304995D01*
X148322824Y-80307566D01*
X148320018Y-80308372D01*
X148315421Y-80308180D01*
X148309266Y-80307755D01*
X148309217Y-80307752D01*
X148299915Y-80307453D01*
X148285922Y-80307101D01*
X148268730Y-80306726D01*
X148249851Y-80306357D01*
X148230772Y-80306015D01*
X148212999Y-80305729D01*
X148198025Y-80305530D01*
X148187362Y-80305438D01*
X148182497Y-80305483D01*
X148181526Y-80305905D01*
X148180777Y-80310908D01*
X148111654Y-80310908D01*
X148111018Y-80300952D01*
X148115163Y-80280335D01*
X148123960Y-80263394D01*
X148136809Y-80250509D01*
X148154383Y-80241870D01*
X148177684Y-80236789D01*
X148205665Y-80233052D01*
X148196911Y-80217168D01*
X148195077Y-80213635D01*
X148188235Y-80192280D01*
X148187730Y-80170682D01*
X148193231Y-80150225D01*
X148204389Y-80132315D01*
X148220873Y-80118346D01*
X148225416Y-80115697D01*
X148232733Y-80112174D01*
X148240925Y-80109584D01*
X148251586Y-80107579D01*
X148266328Y-80105801D01*
X148286756Y-80103899D01*
X148313611Y-80102095D01*
X148340973Y-80102001D01*
X148366591Y-80104339D01*
X148393229Y-80109385D01*
X148423646Y-80117405D01*
X148440434Y-80122395D01*
X148461345Y-80129317D01*
X148480038Y-80136685D01*
X148499308Y-80145643D01*
X148521964Y-80157330D01*
X148531367Y-80162139D01*
X148543631Y-80167773D01*
X148552445Y-80171014D01*
X148556356Y-80171275D01*
X148557713Y-80168044D01*
X148560399Y-80159233D01*
X148563431Y-80147505D01*
X148564542Y-80142984D01*
X148575726Y-80105937D01*
X148590232Y-80069546D01*
X148607507Y-80034529D01*
X148627010Y-80001606D01*
X148648191Y-79971501D01*
X148670507Y-79944927D01*
X148693410Y-79922601D01*
X148716355Y-79905251D01*
X148738800Y-79893588D01*
X148760191Y-79888334D01*
X148778313Y-79888404D01*
G37*
G36*
X156925777Y-82036123D02*
G01*
X156929317Y-82043295D01*
X156938542Y-82063266D01*
X156952319Y-82093746D01*
X156969936Y-82133117D01*
X156990684Y-82179764D01*
X157013853Y-82232069D01*
X157038733Y-82288414D01*
X157064613Y-82347184D01*
X157090784Y-82406761D01*
X157116536Y-82465527D01*
X157141158Y-82521867D01*
X157163940Y-82574163D01*
X157184172Y-82620798D01*
X157201144Y-82660156D01*
X157214146Y-82690619D01*
X157222468Y-82710570D01*
X157225400Y-82718392D01*
X157220031Y-82719970D01*
X157200489Y-82721604D01*
X157167424Y-82722983D01*
X157121655Y-82724089D01*
X157064000Y-82724903D01*
X156995278Y-82725405D01*
X156916307Y-82725576D01*
X156876237Y-82725556D01*
X156804047Y-82725377D01*
X156745242Y-82724982D01*
X156698707Y-82724338D01*
X156663329Y-82723411D01*
X156637993Y-82722165D01*
X156621586Y-82720567D01*
X156612994Y-82718583D01*
X156611102Y-82716177D01*
X156614441Y-82708379D01*
X156623517Y-82687599D01*
X156637221Y-82656434D01*
X156654838Y-82616495D01*
X156675654Y-82569391D01*
X156698955Y-82516730D01*
X156724027Y-82460122D01*
X156750158Y-82401175D01*
X156776631Y-82341500D01*
X156802734Y-82282705D01*
X156827753Y-82226400D01*
X156850973Y-82174193D01*
X156871681Y-82127694D01*
X156889163Y-82088512D01*
X156902705Y-82058257D01*
X156911592Y-82038536D01*
X156915112Y-82030961D01*
X156918552Y-82029297D01*
X156925777Y-82036123D01*
G37*
G36*
X162957303Y-81935257D02*
G01*
X163054322Y-81956143D01*
X163146724Y-81988636D01*
X163170688Y-82000060D01*
X163219316Y-82028452D01*
X163269311Y-82063220D01*
X163315644Y-82100741D01*
X163353284Y-82137394D01*
X163379575Y-82168713D01*
X163427462Y-82242125D01*
X163461634Y-82321706D01*
X163482087Y-82407442D01*
X163488818Y-82499322D01*
X163488685Y-82512655D01*
X163481600Y-82597475D01*
X163463044Y-82674883D01*
X163432062Y-82747905D01*
X163387697Y-82819569D01*
X163382204Y-82827135D01*
X163324765Y-82893120D01*
X163257306Y-82948944D01*
X163179458Y-82994793D01*
X163090849Y-83030852D01*
X162991110Y-83057307D01*
X162879870Y-83074344D01*
X162863322Y-83075410D01*
X162826352Y-83075407D01*
X162782205Y-83073425D01*
X162735685Y-83069794D01*
X162691599Y-83064842D01*
X162654751Y-83058899D01*
X162649128Y-83057755D01*
X162551230Y-83030840D01*
X162462830Y-82992477D01*
X162383340Y-82942358D01*
X162312167Y-82880176D01*
X162275735Y-82840521D01*
X162229846Y-82778521D01*
X162195897Y-82713412D01*
X162172240Y-82641792D01*
X162157229Y-82560262D01*
X162153200Y-82494983D01*
X162160629Y-82410169D01*
X162181767Y-82327537D01*
X162215873Y-82248721D01*
X162262203Y-82175357D01*
X162320013Y-82109078D01*
X162388561Y-82051520D01*
X162399985Y-82043574D01*
X162479047Y-81998609D01*
X162566538Y-81964169D01*
X162660283Y-81940433D01*
X162758109Y-81927582D01*
X162857840Y-81925797D01*
X162957303Y-81935257D01*
G37*
G36*
X169995681Y-81476317D02*
G01*
X169995997Y-81545789D01*
X169996250Y-81624841D01*
X169996446Y-81714156D01*
X169996594Y-81814415D01*
X169996698Y-81926301D01*
X169996768Y-82050495D01*
X169996809Y-82187682D01*
X169996828Y-82338542D01*
X169996833Y-82503759D01*
X169996835Y-82562929D01*
X169996865Y-82725484D01*
X169996906Y-82873925D01*
X169996932Y-83008943D01*
X169996917Y-83131227D01*
X169996835Y-83241466D01*
X169996659Y-83340348D01*
X169996362Y-83428564D01*
X169995919Y-83506803D01*
X169995302Y-83575753D01*
X169994487Y-83636104D01*
X169993445Y-83688545D01*
X169992151Y-83733765D01*
X169990578Y-83772454D01*
X169988700Y-83805300D01*
X169986491Y-83832992D01*
X169983923Y-83856221D01*
X169980972Y-83875675D01*
X169977609Y-83892044D01*
X169973810Y-83906015D01*
X169969547Y-83918280D01*
X169964794Y-83929526D01*
X169959525Y-83940444D01*
X169953713Y-83951721D01*
X169947332Y-83964049D01*
X169940356Y-83978114D01*
X169930351Y-83997971D01*
X169880897Y-84076187D01*
X169820381Y-84145612D01*
X169750360Y-84205070D01*
X169672391Y-84253383D01*
X169588033Y-84289373D01*
X169498843Y-84311863D01*
X169498013Y-84311923D01*
X169485385Y-84312162D01*
X169458075Y-84312397D01*
X169416368Y-84312628D01*
X169360548Y-84312854D01*
X169290901Y-84313076D01*
X169207710Y-84313293D01*
X169111262Y-84313506D01*
X169001841Y-84313713D01*
X168879731Y-84313916D01*
X168745218Y-84314113D01*
X168598586Y-84314305D01*
X168440121Y-84314492D01*
X168270107Y-84314673D01*
X168088829Y-84314848D01*
X167896572Y-84315017D01*
X167693620Y-84315180D01*
X167480260Y-84315336D01*
X167256774Y-84315487D01*
X167023450Y-84315630D01*
X166780570Y-84315767D01*
X166528421Y-84315898D01*
X166267286Y-84316021D01*
X165997452Y-84316137D01*
X165719202Y-84316246D01*
X165432821Y-84316347D01*
X165138595Y-84316441D01*
X164836809Y-84316527D01*
X164527746Y-84316605D01*
X164211692Y-84316675D01*
X163888933Y-84316737D01*
X163559752Y-84316790D01*
X163224434Y-84316835D01*
X162883266Y-84316872D01*
X162536530Y-84316899D01*
X162184513Y-84316918D01*
X161827498Y-84316928D01*
X161465772Y-84316928D01*
X161099618Y-84316919D01*
X160729322Y-84316901D01*
X160355169Y-84316873D01*
X159977443Y-84316835D01*
X159906848Y-84316827D01*
X159453634Y-84316775D01*
X159015176Y-84316723D01*
X158591229Y-84316672D01*
X158181547Y-84316620D01*
X157785887Y-84316567D01*
X157404001Y-84316513D01*
X157035646Y-84316458D01*
X156680577Y-84316401D01*
X156338548Y-84316342D01*
X156009313Y-84316280D01*
X155692629Y-84316215D01*
X155388250Y-84316146D01*
X155095931Y-84316074D01*
X154815427Y-84315998D01*
X154546492Y-84315917D01*
X154288882Y-84315831D01*
X154042351Y-84315740D01*
X153806655Y-84315643D01*
X153581548Y-84315541D01*
X153366785Y-84315432D01*
X153162122Y-84315316D01*
X152967312Y-84315193D01*
X152782111Y-84315062D01*
X152606274Y-84314924D01*
X152439556Y-84314777D01*
X152281712Y-84314621D01*
X152132496Y-84314457D01*
X151991663Y-84314283D01*
X151858969Y-84314099D01*
X151734168Y-84313905D01*
X151617015Y-84313701D01*
X151507266Y-84313486D01*
X151404674Y-84313259D01*
X151308995Y-84313021D01*
X151219984Y-84312770D01*
X151137396Y-84312507D01*
X151060985Y-84312231D01*
X150990507Y-84311943D01*
X150925716Y-84311640D01*
X150866367Y-84311324D01*
X150812216Y-84310993D01*
X150763016Y-84310647D01*
X150718524Y-84310287D01*
X150678494Y-84309911D01*
X150642680Y-84309519D01*
X150610838Y-84309111D01*
X150582723Y-84308686D01*
X150558089Y-84308244D01*
X150536692Y-84307785D01*
X150518286Y-84307309D01*
X150502627Y-84306814D01*
X150489468Y-84306301D01*
X150478566Y-84305768D01*
X150469674Y-84305217D01*
X150462549Y-84304646D01*
X150456944Y-84304055D01*
X150452615Y-84303443D01*
X150449316Y-84302811D01*
X150446803Y-84302158D01*
X150377204Y-84276912D01*
X150291995Y-84232855D01*
X150215542Y-84177593D01*
X150148838Y-84112139D01*
X150092879Y-84037505D01*
X150048658Y-83954701D01*
X150017169Y-83864742D01*
X150015599Y-83858482D01*
X150013978Y-83850747D01*
X150012504Y-83841621D01*
X150011170Y-83830419D01*
X150009969Y-83816462D01*
X150008895Y-83799065D01*
X150007939Y-83777547D01*
X150007096Y-83751225D01*
X150006359Y-83719418D01*
X150005719Y-83681442D01*
X150005171Y-83636615D01*
X150004707Y-83584256D01*
X150004320Y-83523681D01*
X150004004Y-83454209D01*
X150003751Y-83375157D01*
X150003554Y-83285842D01*
X150003407Y-83185583D01*
X150003303Y-83073698D01*
X150003233Y-82949503D01*
X150003192Y-82812316D01*
X150003173Y-82661456D01*
X150003168Y-82496239D01*
X150003167Y-82484961D01*
X150811487Y-82484961D01*
X150811487Y-83056423D01*
X150811487Y-83627885D01*
X150954352Y-83627885D01*
X151097218Y-83627885D01*
X151097218Y-83160888D01*
X151097229Y-83113249D01*
X151097342Y-83021091D01*
X151097588Y-82942623D01*
X151097986Y-82876924D01*
X151098556Y-82823074D01*
X151099316Y-82780151D01*
X151100284Y-82747235D01*
X151101480Y-82723406D01*
X151102921Y-82707741D01*
X151104627Y-82699321D01*
X151106617Y-82697225D01*
X151113305Y-82699670D01*
X151132704Y-82706822D01*
X151162557Y-82717854D01*
X151200856Y-82732022D01*
X151245590Y-82748585D01*
X151294754Y-82766799D01*
X151336169Y-82782041D01*
X151380864Y-82798228D01*
X151419104Y-82811788D01*
X151448982Y-82822058D01*
X151468594Y-82828371D01*
X151476033Y-82830063D01*
X151482366Y-82821816D01*
X151495615Y-82802087D01*
X151511346Y-82776776D01*
X151519389Y-82763173D01*
X151660527Y-82763173D01*
X151679209Y-82795129D01*
X151679224Y-82795154D01*
X151686309Y-82807374D01*
X151700176Y-82831385D01*
X151720114Y-82865950D01*
X151745408Y-82909829D01*
X151775344Y-82961784D01*
X151809209Y-83020578D01*
X151846290Y-83084972D01*
X151885874Y-83153727D01*
X151927245Y-83225606D01*
X152156599Y-83624126D01*
X152301887Y-83626159D01*
X152447175Y-83628192D01*
X152481876Y-83567893D01*
X158608941Y-83567893D01*
X158930177Y-83565932D01*
X159251413Y-83563972D01*
X159781731Y-82942554D01*
X160312049Y-82321136D01*
X160313972Y-82944434D01*
X160315895Y-83567731D01*
X160673016Y-83567731D01*
X161030137Y-83567731D01*
X161030137Y-82500894D01*
X161376052Y-82500894D01*
X161381783Y-82612016D01*
X161400266Y-82720823D01*
X161432190Y-82826361D01*
X161478238Y-82931506D01*
X161500612Y-82973873D01*
X161536186Y-83032668D01*
X161576114Y-83087999D01*
X161623210Y-83143655D01*
X161680288Y-83203423D01*
X161729244Y-83249820D01*
X161835744Y-83335437D01*
X161952473Y-83410549D01*
X162078843Y-83474908D01*
X162214265Y-83528265D01*
X162358150Y-83570374D01*
X162509910Y-83600984D01*
X162668955Y-83619850D01*
X162827008Y-83626295D01*
X162984617Y-83620366D01*
X163138370Y-83602177D01*
X163287229Y-83572032D01*
X163430160Y-83530235D01*
X163566124Y-83477089D01*
X163694086Y-83412898D01*
X163813009Y-83337967D01*
X163921857Y-83252598D01*
X164008969Y-83167400D01*
X164080847Y-83078981D01*
X164519065Y-83078981D01*
X164519065Y-83323356D01*
X164519065Y-83567731D01*
X165432653Y-83567731D01*
X166346241Y-83567731D01*
X166767318Y-83567731D01*
X167085776Y-83567731D01*
X167404233Y-83567731D01*
X167937330Y-82942944D01*
X168470427Y-82318156D01*
X168472350Y-82942944D01*
X168474273Y-83567731D01*
X168831394Y-83567731D01*
X169188514Y-83567731D01*
X169188514Y-82499999D01*
X169188514Y-81432267D01*
X168867067Y-81432670D01*
X168545619Y-81433073D01*
X168015513Y-82055196D01*
X167485406Y-82677318D01*
X167483483Y-82054793D01*
X167481560Y-81432267D01*
X167124439Y-81432267D01*
X166767318Y-81432267D01*
X166767318Y-82499999D01*
X166767318Y-83567731D01*
X166346241Y-83567731D01*
X166346241Y-82499999D01*
X166346241Y-81432267D01*
X165455211Y-81432267D01*
X164564180Y-81432267D01*
X164564180Y-81676592D01*
X164564180Y-81920917D01*
X165096167Y-81922847D01*
X165628153Y-81924777D01*
X165630186Y-82080801D01*
X165632218Y-82236826D01*
X165162113Y-82236826D01*
X164692008Y-82236826D01*
X164692008Y-82481201D01*
X164692008Y-82534811D01*
X164692008Y-82725576D01*
X165161960Y-82725576D01*
X165631913Y-82725576D01*
X165631913Y-82902279D01*
X165631913Y-83078981D01*
X165075489Y-83078981D01*
X164519065Y-83078981D01*
X164080847Y-83078981D01*
X164085081Y-83073772D01*
X164148490Y-82974042D01*
X164198974Y-82869246D01*
X164236313Y-82760419D01*
X164260287Y-82648596D01*
X164270673Y-82534811D01*
X164267251Y-82420100D01*
X164249801Y-82305498D01*
X164218101Y-82192038D01*
X164171931Y-82080757D01*
X164116559Y-81981633D01*
X164044468Y-81881630D01*
X163960194Y-81789315D01*
X163864332Y-81705065D01*
X163757477Y-81629255D01*
X163640223Y-81562262D01*
X163513167Y-81504462D01*
X163376903Y-81456230D01*
X163232026Y-81417943D01*
X163079130Y-81389977D01*
X163050149Y-81386360D01*
X162986866Y-81381120D01*
X162914585Y-81377807D01*
X162837149Y-81376420D01*
X162758406Y-81376957D01*
X162682200Y-81379418D01*
X162612377Y-81383802D01*
X162552783Y-81390109D01*
X162416453Y-81413794D01*
X162271255Y-81450939D01*
X162133535Y-81499071D01*
X162004232Y-81557758D01*
X161884284Y-81626569D01*
X161774633Y-81705072D01*
X161676215Y-81792836D01*
X161617444Y-81855443D01*
X161542471Y-81951002D01*
X161481793Y-82050426D01*
X161435112Y-82154421D01*
X161402128Y-82263692D01*
X161382541Y-82378948D01*
X161376100Y-82499999D01*
X161376052Y-82500894D01*
X161030137Y-82500894D01*
X161030137Y-82499999D01*
X161030137Y-81432267D01*
X160711031Y-81432267D01*
X160391925Y-81432267D01*
X159859477Y-82056330D01*
X159327028Y-82680392D01*
X159325105Y-82056330D01*
X159323182Y-81432267D01*
X158966061Y-81432267D01*
X158608941Y-81432267D01*
X158608941Y-82500080D01*
X158608941Y-83567869D01*
X158608941Y-83567893D01*
X152481876Y-83567893D01*
X152693304Y-83200505D01*
X152710590Y-83170455D01*
X152751989Y-83098391D01*
X152790844Y-83030615D01*
X152826536Y-82968220D01*
X152858442Y-82912296D01*
X152885941Y-82863938D01*
X152908411Y-82824236D01*
X152925231Y-82794283D01*
X152935778Y-82775172D01*
X152939432Y-82767995D01*
X152939040Y-82767649D01*
X152928754Y-82766226D01*
X152906181Y-82764996D01*
X152873556Y-82764030D01*
X152833117Y-82763399D01*
X152787099Y-82763173D01*
X152634766Y-82763173D01*
X152469479Y-83094019D01*
X152464673Y-83103636D01*
X152432200Y-83168419D01*
X152401800Y-83228738D01*
X152374135Y-83283307D01*
X152349862Y-83330838D01*
X152329642Y-83370046D01*
X152314133Y-83399644D01*
X152303996Y-83418346D01*
X152299889Y-83424866D01*
X152299674Y-83424707D01*
X152294552Y-83416245D01*
X152283440Y-83395828D01*
X152267002Y-83364736D01*
X152245904Y-83324252D01*
X152220810Y-83275657D01*
X152192385Y-83220232D01*
X152161296Y-83159259D01*
X152128205Y-83094019D01*
X151960826Y-82763173D01*
X151810676Y-82763173D01*
X151660527Y-82763173D01*
X151519389Y-82763173D01*
X151527809Y-82748933D01*
X151543254Y-82721609D01*
X151555931Y-82697855D01*
X151564090Y-82680723D01*
X151565980Y-82673262D01*
X151558530Y-82669867D01*
X151538389Y-82661923D01*
X151507258Y-82650109D01*
X151466773Y-82635033D01*
X151418569Y-82617305D01*
X151364283Y-82597533D01*
X151305551Y-82576326D01*
X151051451Y-82484961D01*
X150931469Y-82484961D01*
X150811487Y-82484961D01*
X150003167Y-82484961D01*
X150003165Y-82437069D01*
X150003136Y-82274515D01*
X150003095Y-82126073D01*
X150003069Y-81991055D01*
X150003084Y-81868771D01*
X150003166Y-81758533D01*
X150003342Y-81659650D01*
X150003639Y-81571434D01*
X150004082Y-81493195D01*
X150004593Y-81436026D01*
X152950278Y-81436026D01*
X153450818Y-82499999D01*
X153532328Y-82673262D01*
X153576895Y-82767995D01*
X153951358Y-83563972D01*
X154364629Y-83565914D01*
X154777901Y-83567857D01*
X154779542Y-83564380D01*
X155450859Y-83564380D01*
X155452026Y-83564644D01*
X155464888Y-83565233D01*
X155490843Y-83565710D01*
X155528499Y-83566070D01*
X155576461Y-83566307D01*
X155633337Y-83566416D01*
X155697733Y-83566391D01*
X155768258Y-83566227D01*
X155843517Y-83565919D01*
X156236176Y-83563972D01*
X156318833Y-83377820D01*
X156401489Y-83191667D01*
X156920120Y-83193598D01*
X157438751Y-83195529D01*
X157518954Y-83379750D01*
X157599157Y-83563972D01*
X157979427Y-83565920D01*
X158359696Y-83567869D01*
X158240676Y-83325305D01*
X158233579Y-83310847D01*
X158211940Y-83266829D01*
X158184457Y-83210983D01*
X158151705Y-83144477D01*
X158114261Y-83068483D01*
X158072704Y-82984171D01*
X158027609Y-82892711D01*
X157979554Y-82795274D01*
X157929117Y-82693029D01*
X157876873Y-82587147D01*
X157823400Y-82478799D01*
X157769276Y-82369154D01*
X157715077Y-82259383D01*
X157308497Y-81436026D01*
X156905856Y-81436026D01*
X156503216Y-81436026D01*
X156500111Y-81442295D01*
X155977037Y-82498461D01*
X155942454Y-82568298D01*
X155884765Y-82684828D01*
X155829124Y-82797261D01*
X155775888Y-82904877D01*
X155725414Y-83006955D01*
X155678056Y-83102772D01*
X155634171Y-83191607D01*
X155594116Y-83272739D01*
X155558245Y-83345447D01*
X155526917Y-83409009D01*
X155500486Y-83462703D01*
X155479308Y-83505809D01*
X155463740Y-83537605D01*
X155454139Y-83557369D01*
X155450859Y-83564380D01*
X154779542Y-83564380D01*
X155275712Y-82513221D01*
X155301190Y-82459241D01*
X155356558Y-82341908D01*
X155410051Y-82228513D01*
X155461320Y-82119799D01*
X155510015Y-82016510D01*
X155555786Y-81919388D01*
X155598283Y-81829176D01*
X155637156Y-81746617D01*
X155672056Y-81672456D01*
X155702632Y-81607433D01*
X155728536Y-81552294D01*
X155749416Y-81507780D01*
X155764923Y-81474636D01*
X155774707Y-81453603D01*
X155778419Y-81445425D01*
X155778537Y-81445091D01*
X155778744Y-81442295D01*
X155776564Y-81439936D01*
X155770846Y-81437978D01*
X155760440Y-81436384D01*
X155744197Y-81435116D01*
X155720966Y-81434137D01*
X155689597Y-81433411D01*
X155648940Y-81432900D01*
X155597845Y-81432567D01*
X155535162Y-81432376D01*
X155459740Y-81432288D01*
X155370431Y-81432267D01*
X154957547Y-81432267D01*
X154653858Y-82180244D01*
X154652101Y-82184569D01*
X154611206Y-82285173D01*
X154571887Y-82381684D01*
X154534514Y-82473206D01*
X154499455Y-82558844D01*
X154467081Y-82637704D01*
X154437761Y-82708889D01*
X154411864Y-82771505D01*
X154389759Y-82824656D01*
X154371817Y-82867448D01*
X154358406Y-82898984D01*
X154349896Y-82918370D01*
X154346657Y-82924710D01*
X154343581Y-82917770D01*
X154335237Y-82897760D01*
X154322005Y-82865599D01*
X154304256Y-82822198D01*
X154282359Y-82768469D01*
X154256686Y-82705323D01*
X154227606Y-82633672D01*
X154195489Y-82554426D01*
X154160706Y-82468498D01*
X154123627Y-82376799D01*
X154084622Y-82280239D01*
X154044061Y-82179731D01*
X154004529Y-82081767D01*
X153965494Y-81985114D01*
X153928382Y-81893304D01*
X153893564Y-81807248D01*
X153861408Y-81727855D01*
X153832284Y-81656038D01*
X153806562Y-81592706D01*
X153784611Y-81538769D01*
X153766800Y-81495140D01*
X153753500Y-81462728D01*
X153745081Y-81442444D01*
X153741910Y-81435199D01*
X153740439Y-81434962D01*
X153726841Y-81434453D01*
X153700181Y-81434050D01*
X153661863Y-81433757D01*
X153613291Y-81433578D01*
X153555870Y-81433517D01*
X153491005Y-81433577D01*
X153420101Y-81433763D01*
X153344561Y-81434079D01*
X152950278Y-81436026D01*
X150004593Y-81436026D01*
X150004698Y-81424245D01*
X150005514Y-81363894D01*
X150006556Y-81311453D01*
X150007850Y-81266233D01*
X150009423Y-81227545D01*
X150011301Y-81194699D01*
X150013510Y-81167006D01*
X150016078Y-81143777D01*
X150019029Y-81124323D01*
X150022391Y-81107955D01*
X150026191Y-81093983D01*
X150030454Y-81081718D01*
X150035207Y-81070472D01*
X150040476Y-81059554D01*
X150046288Y-81048277D01*
X150052669Y-81035950D01*
X150059645Y-81021884D01*
X150087856Y-80970001D01*
X150142265Y-80894768D01*
X150207490Y-80828836D01*
X150282156Y-80773329D01*
X150364892Y-80729376D01*
X150454323Y-80698103D01*
X150456661Y-80697530D01*
X150459934Y-80696877D01*
X150464011Y-80696245D01*
X150469138Y-80695635D01*
X150475559Y-80695045D01*
X150483520Y-80694476D01*
X150493268Y-80693927D01*
X150505046Y-80693397D01*
X150519100Y-80692887D01*
X150535677Y-80692396D01*
X150555020Y-80691924D01*
X150577377Y-80691470D01*
X150602992Y-80691033D01*
X150632110Y-80690615D01*
X150664977Y-80690213D01*
X150701839Y-80689828D01*
X150742940Y-80689460D01*
X150788527Y-80689108D01*
X150838845Y-80688772D01*
X150894138Y-80688451D01*
X150954653Y-80688145D01*
X151020635Y-80687854D01*
X151092330Y-80687577D01*
X151169982Y-80687314D01*
X151253838Y-80687064D01*
X151344142Y-80686828D01*
X151441140Y-80686605D01*
X151545078Y-80686394D01*
X151656200Y-80686195D01*
X151774754Y-80686009D01*
X151900982Y-80685833D01*
X152035132Y-80685669D01*
X152177449Y-80685515D01*
X152328178Y-80685372D01*
X152487564Y-80685239D01*
X152655853Y-80685115D01*
X152833290Y-80685001D01*
X153020121Y-80684895D01*
X153216592Y-80684798D01*
X153422947Y-80684710D01*
X153639431Y-80684629D01*
X153866292Y-80684555D01*
X154103773Y-80684489D01*
X154352120Y-80684429D01*
X154611580Y-80684376D01*
X154882396Y-80684329D01*
X155164815Y-80684288D01*
X155459082Y-80684252D01*
X155765442Y-80684221D01*
X156084141Y-80684194D01*
X156415424Y-80684172D01*
X156759537Y-80684153D01*
X157116725Y-80684138D01*
X157487234Y-80684127D01*
X157871308Y-80684118D01*
X158269194Y-80684111D01*
X158681137Y-80684107D01*
X159107382Y-80684104D01*
X159548174Y-80684103D01*
X160003760Y-80684102D01*
X160131474Y-80684102D01*
X160583094Y-80684103D01*
X161019988Y-80684105D01*
X161442402Y-80684109D01*
X161850580Y-80684114D01*
X162244769Y-80684122D01*
X162625212Y-80684133D01*
X162992155Y-80684147D01*
X163345843Y-80684164D01*
X163686521Y-80684185D01*
X164014435Y-80684210D01*
X164329829Y-80684240D01*
X164632948Y-80684274D01*
X164924038Y-80684313D01*
X165203343Y-80684358D01*
X165471109Y-80684409D01*
X165727581Y-80684466D01*
X165973004Y-80684529D01*
X166207623Y-80684600D01*
X166431683Y-80684678D01*
X166645429Y-80684763D01*
X166849106Y-80684856D01*
X167042960Y-80684958D01*
X167227235Y-80685068D01*
X167402176Y-80685187D01*
X167568030Y-80685316D01*
X167725040Y-80685454D01*
X167873452Y-80685602D01*
X168013511Y-80685761D01*
X168145461Y-80685930D01*
X168269549Y-80686111D01*
X168386019Y-80686303D01*
X168495117Y-80686507D01*
X168597087Y-80686723D01*
X168692174Y-80686951D01*
X168780624Y-80687193D01*
X168862681Y-80687447D01*
X168938592Y-80687715D01*
X169008600Y-80687998D01*
X169072951Y-80688294D01*
X169131890Y-80688605D01*
X169185663Y-80688931D01*
X169234513Y-80689272D01*
X169278687Y-80689629D01*
X169318429Y-80690002D01*
X169353985Y-80690391D01*
X169385600Y-80690797D01*
X169413518Y-80691220D01*
X169437985Y-80691661D01*
X169459245Y-80692119D01*
X169477545Y-80692595D01*
X169493129Y-80693090D01*
X169506242Y-80693604D01*
X169517129Y-80694136D01*
X169526036Y-80694689D01*
X169533207Y-80695261D01*
X169538888Y-80695854D01*
X169543323Y-80696467D01*
X169546758Y-80697100D01*
X169549438Y-80697756D01*
X169626304Y-80724741D01*
X169709907Y-80768120D01*
X169785372Y-80823065D01*
X169851549Y-80888413D01*
X169907285Y-80963003D01*
X169951430Y-81045671D01*
X169982832Y-81135257D01*
X169984402Y-81141516D01*
X169986023Y-81149251D01*
X169987497Y-81158378D01*
X169988831Y-81169579D01*
X169990032Y-81183536D01*
X169991106Y-81200933D01*
X169992061Y-81222451D01*
X169992904Y-81248773D01*
X169993642Y-81280581D01*
X169994282Y-81318556D01*
X169994830Y-81363383D01*
X169995294Y-81415742D01*
X169995400Y-81432267D01*
X169995681Y-81476317D01*
G37*
G36*
X160116062Y-85140995D02*
G01*
X160156654Y-85148058D01*
X160183786Y-85155602D01*
X160219345Y-85169474D01*
X160253176Y-85187258D01*
X160284854Y-85208623D01*
X160313955Y-85233237D01*
X160340056Y-85260772D01*
X160362733Y-85290897D01*
X160381561Y-85323281D01*
X160384957Y-85330219D01*
X160397085Y-85358796D01*
X160406387Y-85388033D01*
X160412986Y-85418626D01*
X160417008Y-85451270D01*
X160418577Y-85486661D01*
X160417818Y-85525494D01*
X160416131Y-85554060D01*
X160412810Y-85588960D01*
X160408106Y-85620962D01*
X160401846Y-85651020D01*
X160393853Y-85680085D01*
X160383951Y-85709111D01*
X160380772Y-85717414D01*
X160367800Y-85747241D01*
X160352528Y-85776410D01*
X160334638Y-85805374D01*
X160313813Y-85834587D01*
X160289735Y-85864504D01*
X160262085Y-85895579D01*
X160230545Y-85928267D01*
X160229456Y-85929358D01*
X160218504Y-85940282D01*
X160208236Y-85950418D01*
X160198300Y-85960088D01*
X160188342Y-85969612D01*
X160178009Y-85979309D01*
X160166948Y-85989501D01*
X160154805Y-86000508D01*
X160141228Y-86012649D01*
X160125863Y-86026246D01*
X160108357Y-86041619D01*
X160088357Y-86059087D01*
X160065510Y-86078972D01*
X160039462Y-86101594D01*
X160033438Y-86106825D01*
X160004660Y-86131894D01*
X159976190Y-86156820D01*
X159948299Y-86181361D01*
X159921257Y-86205272D01*
X159895335Y-86228312D01*
X159870802Y-86250237D01*
X159847929Y-86270805D01*
X159826987Y-86289772D01*
X159808245Y-86306896D01*
X159791975Y-86321934D01*
X159778446Y-86334642D01*
X159767930Y-86344778D01*
X159760695Y-86352098D01*
X159758986Y-86353812D01*
X159754074Y-86357800D01*
X159750528Y-86359393D01*
X159750408Y-86359378D01*
X159747457Y-86357541D01*
X159741767Y-86352995D01*
X159733917Y-86346234D01*
X159724486Y-86337758D01*
X159714051Y-86328061D01*
X159704440Y-86319011D01*
X159688516Y-86304129D01*
X159672365Y-86289185D01*
X159655653Y-86273882D01*
X159638047Y-86257922D01*
X159619212Y-86241005D01*
X159598816Y-86222835D01*
X159576523Y-86203113D01*
X159552000Y-86181540D01*
X159524912Y-86157819D01*
X159494927Y-86131652D01*
X159461710Y-86102740D01*
X159456216Y-86097962D01*
X159430027Y-86075158D01*
X159406977Y-86055030D01*
X159386713Y-86037260D01*
X159368885Y-86021534D01*
X159353140Y-86007537D01*
X159339128Y-85994953D01*
X159326497Y-85983467D01*
X159314895Y-85972763D01*
X159303970Y-85962527D01*
X159293372Y-85952442D01*
X159282748Y-85942193D01*
X159248290Y-85907447D01*
X159215841Y-85871566D01*
X159187454Y-85836312D01*
X159162927Y-85801263D01*
X159142054Y-85765996D01*
X159124633Y-85730090D01*
X159110459Y-85693121D01*
X159099329Y-85654666D01*
X159091039Y-85614304D01*
X159085385Y-85571611D01*
X159082164Y-85526165D01*
X159081773Y-85515766D01*
X159081726Y-85476025D01*
X159084244Y-85439597D01*
X159089467Y-85405904D01*
X159097536Y-85374370D01*
X159108591Y-85344418D01*
X159122772Y-85315471D01*
X159140218Y-85286952D01*
X159142549Y-85283527D01*
X159166225Y-85253255D01*
X159193144Y-85226139D01*
X159222958Y-85202349D01*
X159255316Y-85182055D01*
X159289872Y-85165428D01*
X159326275Y-85152638D01*
X159364177Y-85143856D01*
X159403229Y-85139252D01*
X159443082Y-85138996D01*
X159478964Y-85142497D01*
X159513679Y-85149642D01*
X159547819Y-85160684D01*
X159582417Y-85175895D01*
X159594454Y-85182155D01*
X159627786Y-85202772D01*
X159659586Y-85227251D01*
X159689219Y-85255020D01*
X159716052Y-85285504D01*
X159739453Y-85318130D01*
X159740190Y-85319274D01*
X159744759Y-85326111D01*
X159748265Y-85330933D01*
X159750000Y-85332758D01*
X159750121Y-85332714D01*
X159752168Y-85330373D01*
X159755880Y-85325185D01*
X159760548Y-85318130D01*
X159768119Y-85306967D01*
X159781588Y-85289077D01*
X159796696Y-85270804D01*
X159812204Y-85253626D01*
X159826875Y-85239017D01*
X159851922Y-85217580D01*
X159885937Y-85193571D01*
X159921567Y-85173814D01*
X159958587Y-85158372D01*
X159996772Y-85147307D01*
X160035896Y-85140681D01*
X160075735Y-85138556D01*
X160116062Y-85140995D01*
G37*
G36*
X148596244Y-59402404D02*
G01*
X148596244Y-59727026D01*
X147993375Y-60329786D01*
X147390506Y-60932546D01*
X147390506Y-60607924D01*
X147390506Y-60283302D01*
X147993375Y-59680542D01*
X148596244Y-59077782D01*
X148596244Y-59402404D01*
G37*
G36*
X148596244Y-62197372D02*
G01*
X148596244Y-62521238D01*
X147993375Y-63120688D01*
X147390506Y-63720138D01*
X147390506Y-63399581D01*
X147390506Y-63079025D01*
X147993375Y-62476265D01*
X148596244Y-61873505D01*
X148596244Y-62197372D01*
G37*
G36*
X148596244Y-63125617D02*
G01*
X148596244Y-63450239D01*
X147993375Y-64052999D01*
X147390506Y-64655759D01*
X147390506Y-64331137D01*
X147390506Y-64006515D01*
X147993375Y-63403756D01*
X148596244Y-62800996D01*
X148596244Y-63125617D01*
G37*
G36*
X148596244Y-64053108D02*
G01*
X148596244Y-64377730D01*
X147993375Y-64980490D01*
X147390506Y-65583250D01*
X147390506Y-65258628D01*
X147390506Y-64934006D01*
X147993375Y-64331246D01*
X148596244Y-63728487D01*
X148596244Y-64053108D01*
G37*
G36*
X148596244Y-66847527D02*
G01*
X148596244Y-67170845D01*
X147993375Y-67770671D01*
X147390506Y-68370497D01*
X147390506Y-68050113D01*
X147390506Y-67729729D01*
X147993375Y-67126969D01*
X148596244Y-66524209D01*
X148596244Y-66847527D01*
G37*
G36*
X148076679Y-58994619D02*
G01*
X148397653Y-58998174D01*
X147894080Y-59501604D01*
X147390506Y-60005033D01*
X147390506Y-59680299D01*
X147390506Y-59355565D01*
X147573106Y-59173315D01*
X147755706Y-58991065D01*
X148076679Y-58994619D01*
G37*
G36*
X148595625Y-60329840D02*
G01*
X148596244Y-60654517D01*
X147993375Y-61257277D01*
X147390506Y-61860037D01*
X147390506Y-61540100D01*
X147390506Y-61220164D01*
X147992756Y-60612664D01*
X148595006Y-60005164D01*
X148595625Y-60329840D01*
G37*
G36*
X148595625Y-64980545D02*
G01*
X148596244Y-65305221D01*
X147993375Y-65907981D01*
X147390506Y-66510741D01*
X147390506Y-66190805D01*
X147390506Y-65870868D01*
X147992756Y-65263368D01*
X148595006Y-64655868D01*
X148595625Y-64980545D01*
G37*
G36*
X148596244Y-67776195D02*
G01*
X148596244Y-68100690D01*
X148149134Y-68547945D01*
X147702024Y-68995200D01*
X147546265Y-68995200D01*
X147390506Y-68995200D01*
X147390506Y-68826210D01*
X147390506Y-68657220D01*
X147993375Y-68054460D01*
X148596244Y-67451700D01*
X148596244Y-67776195D01*
G37*
G36*
X147436881Y-59031299D02*
G01*
X147427600Y-59040858D01*
X147405474Y-59062435D01*
X147394652Y-59071048D01*
X147394609Y-59071046D01*
X147391710Y-59059235D01*
X147390506Y-59031299D01*
X147392148Y-59008025D01*
X147403433Y-58994364D01*
X147432735Y-58991549D01*
X147474963Y-58991549D01*
X147436881Y-59031299D01*
G37*
G36*
X148595644Y-61266157D02*
G01*
X148595044Y-61581898D01*
X147992775Y-62189197D01*
X147390506Y-62796496D01*
X147390506Y-62476345D01*
X147390506Y-62156194D01*
X147571129Y-61966930D01*
X147587326Y-61950054D01*
X147642954Y-61892947D01*
X147713249Y-61821697D01*
X147795047Y-61739468D01*
X147885185Y-61649424D01*
X147980498Y-61554729D01*
X148077824Y-61458547D01*
X148173998Y-61364040D01*
X148596244Y-60950415D01*
X148595644Y-61266157D01*
G37*
G36*
X148595644Y-65916858D02*
G01*
X148595044Y-66232603D01*
X147992775Y-66839902D01*
X147390506Y-67447200D01*
X147390506Y-67127014D01*
X147390506Y-66806828D01*
X147588795Y-66599215D01*
X147595902Y-66591790D01*
X147653166Y-66532767D01*
X147725482Y-66459293D01*
X147809389Y-66374831D01*
X147901423Y-66282844D01*
X147998122Y-66186794D01*
X148096023Y-66090145D01*
X148191664Y-65996358D01*
X148596244Y-65601114D01*
X148595644Y-65916858D01*
G37*
G36*
X148596244Y-68687249D02*
G01*
X148596244Y-68995200D01*
X148291497Y-68995200D01*
X148240937Y-68995153D01*
X148159294Y-68994860D01*
X148089354Y-68994334D01*
X148034818Y-68993618D01*
X147999384Y-68992753D01*
X147986750Y-68991780D01*
X147990284Y-68987729D01*
X148009851Y-68967394D01*
X148044611Y-68931962D01*
X148092360Y-68883661D01*
X148150894Y-68824721D01*
X148218008Y-68757367D01*
X148291497Y-68683829D01*
X148596244Y-68379298D01*
X148596244Y-68687249D01*
G37*
G36*
X172609494Y-61809195D02*
G01*
X172609494Y-62129132D01*
X172007244Y-62736632D01*
X171404994Y-63344132D01*
X171404375Y-63019455D01*
X171403756Y-62694779D01*
X172006625Y-62092019D01*
X172609494Y-61489259D01*
X172609494Y-61809195D01*
G37*
G36*
X172609494Y-66459900D02*
G01*
X172609494Y-66779836D01*
X172007244Y-67387336D01*
X171404994Y-67994836D01*
X171404375Y-67670160D01*
X171403756Y-67345483D01*
X172006625Y-66742723D01*
X172609494Y-66139963D01*
X172609494Y-66459900D01*
G37*
G36*
X172609494Y-68319701D02*
G01*
X172609494Y-68644435D01*
X172426894Y-68826685D01*
X172244294Y-69008935D01*
X171923321Y-69005381D01*
X171602347Y-69001826D01*
X172105920Y-68498396D01*
X172609494Y-67994967D01*
X172609494Y-68319701D01*
G37*
G36*
X172609494Y-59949887D02*
G01*
X172609494Y-60270271D01*
X172006625Y-60873031D01*
X171403756Y-61475791D01*
X171403756Y-61152473D01*
X171403756Y-60829155D01*
X172006625Y-60229329D01*
X172609494Y-59629503D01*
X172609494Y-59949887D01*
G37*
G36*
X172609494Y-62741372D02*
G01*
X172609494Y-63065994D01*
X172006625Y-63668754D01*
X171403756Y-64271513D01*
X171403756Y-63946892D01*
X171403756Y-63622270D01*
X172006625Y-63019510D01*
X172609494Y-62416750D01*
X172609494Y-62741372D01*
G37*
G36*
X172609494Y-63668863D02*
G01*
X172609494Y-63993485D01*
X172006625Y-64596244D01*
X171403756Y-65199004D01*
X171403756Y-64874383D01*
X171403756Y-64549761D01*
X172006625Y-63947001D01*
X172609494Y-63344241D01*
X172609494Y-63668863D01*
G37*
G36*
X172609494Y-64600419D02*
G01*
X172609494Y-64920975D01*
X172006625Y-65523735D01*
X171403756Y-66126495D01*
X171403756Y-65802628D01*
X171403756Y-65478762D01*
X172006625Y-64879312D01*
X172609494Y-64279862D01*
X172609494Y-64600419D01*
G37*
G36*
X172609494Y-67392076D02*
G01*
X172609494Y-67716698D01*
X172006625Y-68319458D01*
X171403756Y-68922218D01*
X171403756Y-68597596D01*
X171403756Y-68272974D01*
X172006625Y-67670214D01*
X172609494Y-67067454D01*
X172609494Y-67392076D01*
G37*
G36*
X172609494Y-59173790D02*
G01*
X172609494Y-59342780D01*
X172006625Y-59945540D01*
X171403756Y-60548300D01*
X171403756Y-60223805D01*
X171403756Y-59899310D01*
X171850866Y-59452055D01*
X172297976Y-59004800D01*
X172453735Y-59004800D01*
X172609494Y-59004800D01*
X172609494Y-59173790D01*
G37*
G36*
X172605391Y-68928954D02*
G01*
X172608290Y-68940765D01*
X172609494Y-68968701D01*
X172607852Y-68991975D01*
X172596567Y-69005636D01*
X172567265Y-69008451D01*
X172525037Y-69008451D01*
X172563119Y-68968701D01*
X172572400Y-68959142D01*
X172594526Y-68937565D01*
X172605348Y-68928952D01*
X172605391Y-68928954D01*
G37*
G36*
X172609494Y-60872986D02*
G01*
X172609494Y-61193172D01*
X172411205Y-61400785D01*
X172404098Y-61408210D01*
X172346834Y-61467233D01*
X172274518Y-61540707D01*
X172190611Y-61625169D01*
X172098577Y-61717156D01*
X172001878Y-61813206D01*
X171903977Y-61909855D01*
X171808336Y-62003642D01*
X171403756Y-62398886D01*
X171404356Y-62083142D01*
X171404956Y-61767397D01*
X172007225Y-61160098D01*
X172609494Y-60552800D01*
X172609494Y-60872986D01*
G37*
G36*
X172609494Y-65523655D02*
G01*
X172609494Y-65843806D01*
X172428871Y-66033070D01*
X172412674Y-66049946D01*
X172357046Y-66107053D01*
X172286751Y-66178303D01*
X172204953Y-66260532D01*
X172114815Y-66350576D01*
X172019502Y-66445271D01*
X171922176Y-66541453D01*
X171826002Y-66635960D01*
X171403756Y-67049585D01*
X171404356Y-66733843D01*
X171404956Y-66418102D01*
X172007225Y-65810803D01*
X172609494Y-65203504D01*
X172609494Y-65523655D01*
G37*
G36*
X171759063Y-59004847D02*
G01*
X171840706Y-59005140D01*
X171910646Y-59005666D01*
X171965182Y-59006382D01*
X172000616Y-59007247D01*
X172013250Y-59008220D01*
X172009716Y-59012271D01*
X171990149Y-59032606D01*
X171955389Y-59068038D01*
X171907640Y-59116339D01*
X171849106Y-59175279D01*
X171781992Y-59242633D01*
X171708503Y-59316171D01*
X171403756Y-59620702D01*
X171403756Y-59312751D01*
X171403756Y-59004800D01*
X171708503Y-59004800D01*
X171759063Y-59004847D01*
G37*
G36*
X172021175Y-55414890D02*
G01*
X172072162Y-55467621D01*
X172142570Y-55576232D01*
X172219640Y-55721618D01*
X172308754Y-55888413D01*
X172473661Y-56111831D01*
X172678920Y-56286140D01*
X172947812Y-56434120D01*
X172949593Y-56434943D01*
X173084769Y-56505295D01*
X173181091Y-56570265D01*
X173217809Y-56615885D01*
X173210530Y-56631209D01*
X173145230Y-56687323D01*
X173026723Y-56763043D01*
X172872853Y-56846442D01*
X172807253Y-56880203D01*
X172596327Y-57007606D01*
X172440087Y-57146381D01*
X172315041Y-57321253D01*
X172197695Y-57556943D01*
X172195701Y-57561442D01*
X172114685Y-57718590D01*
X172042742Y-57793764D01*
X171972626Y-57786289D01*
X171897091Y-57695488D01*
X171808891Y-57520686D01*
X171796667Y-57493952D01*
X171617749Y-57203663D01*
X171379593Y-56975316D01*
X171076513Y-56803342D01*
X171042771Y-56788501D01*
X170899852Y-56713113D01*
X170836219Y-56645297D01*
X170852977Y-56577236D01*
X170951225Y-56501110D01*
X171132065Y-56409100D01*
X171170305Y-56391137D01*
X171385523Y-56270163D01*
X171551463Y-56129250D01*
X171689424Y-55946462D01*
X171820707Y-55699861D01*
X171828959Y-55682612D01*
X171902342Y-55545958D01*
X171968249Y-55449322D01*
X172013290Y-55412672D01*
X172021175Y-55414890D01*
G37*
G36*
X148021175Y-55414890D02*
G01*
X148072162Y-55467621D01*
X148142570Y-55576232D01*
X148219640Y-55721618D01*
X148308754Y-55888413D01*
X148473661Y-56111831D01*
X148678920Y-56286140D01*
X148947812Y-56434120D01*
X148949593Y-56434943D01*
X149084769Y-56505295D01*
X149181091Y-56570265D01*
X149217809Y-56615885D01*
X149210530Y-56631209D01*
X149145230Y-56687323D01*
X149026723Y-56763043D01*
X148872853Y-56846442D01*
X148807253Y-56880203D01*
X148596327Y-57007606D01*
X148440087Y-57146381D01*
X148315041Y-57321253D01*
X148197695Y-57556943D01*
X148195701Y-57561442D01*
X148114685Y-57718590D01*
X148042742Y-57793764D01*
X147972626Y-57786289D01*
X147897091Y-57695488D01*
X147808891Y-57520686D01*
X147796667Y-57493952D01*
X147617749Y-57203663D01*
X147379593Y-56975316D01*
X147076513Y-56803342D01*
X147042771Y-56788501D01*
X146899852Y-56713113D01*
X146836219Y-56645297D01*
X146852977Y-56577236D01*
X146951225Y-56501110D01*
X147132065Y-56409100D01*
X147170305Y-56391137D01*
X147385523Y-56270163D01*
X147551463Y-56129250D01*
X147689424Y-55946462D01*
X147820707Y-55699861D01*
X147828959Y-55682612D01*
X147902342Y-55545958D01*
X147968249Y-55449322D01*
X148013290Y-55412672D01*
X148021175Y-55414890D01*
G37*
D10*
%TO.C,U1*%
X151059500Y-68743250D02*
X151059500Y-51598250D01*
X152964500Y-49693250D02*
X166934500Y-49693250D01*
X166934500Y-70648250D02*
X152964500Y-70648250D01*
X168839500Y-68743250D02*
X168839500Y-51598250D01*
X151059500Y-51598250D02*
G75*
G02*
X152964500Y-49693250I1905000J0D01*
G01*
X152964500Y-70648250D02*
G75*
G02*
X151059500Y-68743250I0J1905000D01*
G01*
X166934500Y-49689250D02*
G75*
G02*
X168839500Y-51594250I-1J-1905001D01*
G01*
X168839500Y-68743250D02*
G75*
G02*
X166934500Y-70648250I-1905001J1D01*
G01*
D14*
X168027500Y-50826250D02*
G75*
G02*
X167523500Y-50826250I-252000J0D01*
G01*
X167523500Y-50826250D02*
G75*
G02*
X168027500Y-50826250I252000J0D01*
G01*
X169301500Y-50109250D02*
G75*
G02*
X168797500Y-50109250I-252000J0D01*
G01*
X168797500Y-50109250D02*
G75*
G02*
X169301500Y-50109250I252000J0D01*
G01*
%TD*%
M02*
